{
.appVersion = "983";
copyright = "Copyright 2016 Google Inc. All Rights Reserved.";
customParameters = (
{
name = description;
value = "Designed by Monotype design team.";
},
{
name = license;
value = "This Font Software is licensed under the SIL Open Font License, Version 1.1. This Font Software is distributed on an \"AS IS\" BASIS, WITHOUT WARRANTIES OR CONDITIONS OF ANY KIND, either express or implied. See the SIL Open Font License for the specific language, permissions and limitations governing your use of this Font Software.";
},
{
name = licenseURL;
value = "http://scripts.sil.org/OFL";
},
{
name = vendorID;
value = GOOG;
},
{
name = trademark;
value = "Noto is a trademark of Google Inc.";
},
{
name = fsType;
value = (
);
},
{
name = panose;
value = (
2,
11,
5,
2,
4,
5,
4,
2,
2,
4
);
},
{
name = unicodeRanges;
value = (
27
);
},
{
name = codePageRanges;
value = (
1252
);
}
);
date = "2016-11-10 14:13:02 +0000";
designer = "Monotype Design Team";
designerURL = "http://www.monotype.com/studio";
disablesNiceNames = 1;
familyName = "Noto Sans Balinese";
features = (
{

glyphs = (
{
glyphname = zerowidthjoiner;
lastChange = "2016-11-10 14:12:48 +0000";
layers = (
{
layerId = "BB284FF0-04DD-4FE7-B9B3-843DE156013A";
paths = (
{
closed = 1;
nodes = (
"36 183 LINE",
"36 1368 LINE",
"170 1232 LINE",
"219 1281 LINE",
"48 1450 LINE",
"219 1618 LINE",
"170 1667 LINE",
"0 1496 LINE",
"-170 1667 LINE",
"-219 1618 LINE",
"-48 1450 LINE",
"-219 1281 LINE",
"-170 1232 LINE",
"-36 1368 LINE",
"-36 183 LINE"
);
}
);
width = 0;
}
);
note = afii301;
unicode = 200D;
},
{
glyphname = zerowidthnonjoiner;
lastChange = "2016-11-10 14:12:48 +0000";
layers = (
{
layerId = "BB284FF0-04DD-4FE7-B9B3-843DE156013A";
paths = (
{
closed = 1;
nodes = (
"36 183 LINE",
"36 1667 LINE",
"-36 1667 LINE",
"-36 183 LINE"
);
}
);
width = 0;
}
);
note = afii61664;
unicode = 200C;
},
{
glyphname = .notdef;
lastChange = "2016-11-10 14:12:48 +0000";
layers = (
{
layerId = "BB284FF0-04DD-4FE7-B9B3-843DE156013A";
paths = (
{
closed = 1;
nodes = (
"1034 0 LINE",
"1034 1462 LINE",
"193 1462 LINE",
"193 0 LINE"
);
},
{
closed = 1;
nodes = (
"297 1358 LINE",
"930 1358 LINE",
"930 104 LINE",
"297 104 LINE"
);
}
);
width = 1229;
}
);
note = .notdef;
},
{
glyphname = dottedCircle;
lastChange = "2016-11-10 14:12:48 +0000";
layers = (
{
layerId = "BB284FF0-04DD-4FE7-B9B3-843DE156013A";
paths = (
{
closed = 1;
nodes = (
"886 813 OFFCURVE",
"907 833 OFFCURVE",
"907 874 CURVE SMOOTH",
"907 917 OFFCURVE",
"886 938 OFFCURVE",
"844 938 CURVE SMOOTH",
"801 938 OFFCURVE",
"780 917 OFFCURVE",
"780 874 CURVE SMOOTH",
"780 833 OFFCURVE",
"801 813 OFFCURVE",
"844 813 CURVE SMOOTH"
);
},
{
closed = 1;
nodes = (
"326 273 OFFCURVE",
"347 293 OFFCURVE",
"347 334 CURVE SMOOTH",
"347 377 OFFCURVE",
"326 398 OFFCURVE",
"284 398 CURVE SMOOTH",
"241 398 OFFCURVE",
"220 377 OFFCURVE",
"220 334 CURVE SMOOTH",
"220 293 OFFCURVE",
"241 273 OFFCURVE",
"284 273 CURVE SMOOTH"
);
},
{
closed = 1;
nodes = (
"596 90 OFFCURVE",
"617 110 OFFCURVE",
"617 151 CURVE SMOOTH",
"617 194 OFFCURVE",
"596 215 OFFCURVE",
"554 215 CURVE SMOOTH",
"511 215 OFFCURVE",
"490 194 OFFCURVE",
"490 151 CURVE SMOOTH",
"490 110 OFFCURVE",
"511 90 OFFCURVE",
"554 90 CURVE SMOOTH"
);
},
{
closed = 1;
nodes = (
"206 543 OFFCURVE",
"227 563 OFFCURVE",
"227 604 CURVE SMOOTH",
"227 647 OFFCURVE",
"206 668 OFFCURVE",
"164 668 CURVE SMOOTH",
"121 668 OFFCURVE",
"100 647 OFFCURVE",
"100 604 CURVE SMOOTH",
"100 563 OFFCURVE",
"121 543 OFFCURVE",
"164 543 CURVE SMOOTH"
);
},
{
closed = 1;
nodes = (
"326 813 OFFCURVE",
"347 833 OFFCURVE",
"347 874 CURVE SMOOTH",
"347 917 OFFCURVE",
"326 938 OFFCURVE",
"284 938 CURVE SMOOTH",
"241 938 OFFCURVE",
"220 917 OFFCURVE",
"220 874 CURVE SMOOTH",
"220 833 OFFCURVE",
"241 813 OFFCURVE",
"284 813 CURVE SMOOTH"
);
},
{
closed = 1;
nodes = (
"886 273 OFFCURVE",
"907 293 OFFCURVE",
"907 334 CURVE SMOOTH",
"907 377 OFFCURVE",
"886 398 OFFCURVE",
"844 398 CURVE SMOOTH",
"801 398 OFFCURVE",
"780 377 OFFCURVE",
"780 334 CURVE SMOOTH",
"780 293 OFFCURVE",
"801 273 OFFCURVE",
"844 273 CURVE SMOOTH"
);
},
{
closed = 1;
nodes = (
"1006 543 OFFCURVE",
"1027 563 OFFCURVE",
"1027 604 CURVE SMOOTH",
"1027 647 OFFCURVE",
"1006 668 OFFCURVE",
"964 668 CURVE SMOOTH",
"921 668 OFFCURVE",
"900 647 OFFCURVE",
"900 604 CURVE SMOOTH",
"900 563 OFFCURVE",
"921 543 OFFCURVE",
"964 543 CURVE SMOOTH"
);
},
{
closed = 1;
nodes = (
"606 963 OFFCURVE",
"627 983 OFFCURVE",
"627 1024 CURVE SMOOTH",
"627 1067 OFFCURVE",
"606 1088 OFFCURVE",
"564 1088 CURVE SMOOTH",
"521 1088 OFFCURVE",
"500 1067 OFFCURVE",
"500 1024 CURVE SMOOTH",
"500 983 OFFCURVE",
"521 963 OFFCURVE",
"564 963 CURVE SMOOTH"
);
}
);
width = 1127;
}
);
note = uni25CC;
unicode = 25CC;
},
{
glyphname = uni1B00;
lastChange = "2016-11-10 14:12:45 +0000";
layers = (
{
layerId = "BB284FF0-04DD-4FE7-B9B3-843DE156013A";
paths = (
{
closed = 1;
nodes = (
"-777 1320 LINE",
"-865 1445 OFFCURVE",
"-877 1492 OFFCURVE",
"-877 1593 CURVE SMOOTH",
"-877 1750 OFFCURVE",
"-757 1840 OFFCURVE",
"-553 1840 CURVE SMOOTH",
"-362 1840 OFFCURVE",
"-250 1753 OFFCURVE",
"-250 1593 CURVE SMOOTH",
"-250 1494 OFFCURVE",
"-262 1447 OFFCURVE",
"-350 1320 CURVE",
"-300 1270 LINE",
"-213 1378 OFFCURVE",
"-170 1489 OFFCURVE",
"-170 1602 CURVE SMOOTH",
"-170 1850 OFFCURVE",
"-311 1990 OFFCURVE",
"-560 1990 CURVE SMOOTH",
"-815 1990 OFFCURVE",
"-957 1853 OFFCURVE",
"-957 1602 CURVE SMOOTH",
"-957 1487 OFFCURVE",
"-914 1377 OFFCURVE",
"-827 1270 CURVE"
);
},
{
closed = 1;
nodes = (
"-488 1417 OFFCURVE",
"-438 1470 OFFCURVE",
"-438 1533 CURVE SMOOTH",
"-438 1600 OFFCURVE",
"-492 1650 OFFCURVE",
"-553 1650 CURVE SMOOTH",
"-617 1650 OFFCURVE",
"-670 1597 OFFCURVE",
"-670 1533 CURVE SMOOTH",
"-670 1472 OFFCURVE",
"-620 1417 OFFCURVE",
"-553 1417 CURVE SMOOTH"
);
}
);
width = 0;
}
);
note = uni1B00;
unicode = 1B00;
},
{
glyphname = uni1B01;
lastChange = "2016-11-10 14:12:45 +0000";
layers = (
{
layerId = "BB284FF0-04DD-4FE7-B9B3-843DE156013A";
paths = (
{
closed = 1;
nodes = (
"-301 1270 OFFCURVE",
"-160 1409 OFFCURVE",
"-160 1658 CURVE SMOOTH",
"-160 1773 OFFCURVE",
"-203 1883 OFFCURVE",
"-290 1990 CURVE",
"-340 1940 LINE",
"-256 1820 OFFCURVE",
"-240 1770 OFFCURVE",
"-240 1667 CURVE SMOOTH",
"-240 1624 OFFCURVE",
"-248 1586 OFFCURVE",
"-265 1552 CURVE",
"-285 1701 OFFCURVE",
"-375 1808 OFFCURVE",
"-504 1829 CURVE",
"-504 2039 LINE",
"-584 2039 LINE",
"-584 1830 LINE",
"-720 1811 OFFCURVE",
"-817 1695 OFFCURVE",
"-830 1535 CURVE",
"-855 1573 OFFCURVE",
"-867 1617 OFFCURVE",
"-867 1667 CURVE SMOOTH",
"-867 1772 OFFCURVE",
"-852 1817 OFFCURVE",
"-767 1940 CURVE",
"-817 1990 LINE",
"-904 1882 OFFCURVE",
"-947 1771 OFFCURVE",
"-947 1658 CURVE SMOOTH",
"-947 1407 OFFCURVE",
"-805 1270 OFFCURVE",
"-550 1270 CURVE SMOOTH"
);
},
{
closed = 1;
nodes = (
"-629 1420 OFFCURVE",
"-699 1435 OFFCURVE",
"-753 1466 CURVE",
"-756 1477 OFFCURVE",
"-757 1491 OFFCURVE",
"-757 1508 CURVE SMOOTH",
"-757 1640 OFFCURVE",
"-669 1749 OFFCURVE",
"-548 1749 CURVE SMOOTH",
"-427 1749 OFFCURVE",
"-337 1640 OFFCURVE",
"-337 1508 CURVE SMOOTH",
"-337 1487 LINE",
"-339 1469 LINE",
"-390 1436 OFFCURVE",
"-458 1420 OFFCURVE",
"-543 1420 CURVE SMOOTH"
);
}
);
width = 0;
}
);
note = uni1B01;
unicode = 1B01;
},
{
glyphname = uni1B02;
lastChange = "2016-11-10 14:12:45 +0000";
layers = (
{
layerId = "BB284FF0-04DD-4FE7-B9B3-843DE156013A";
paths = (
{
closed = 1;
nodes = (
"-78 1308 LINE",
"-252 1739 LINE SMOOTH",
"-299 1858 OFFCURVE",
"-343 1943 OFFCURVE",
"-383 1994 CURVE SMOOTH",
"-423 2045 OFFCURVE",
"-463 2070 OFFCURVE",
"-502 2070 CURVE SMOOTH",
"-590 2070 OFFCURVE",
"-642 1934 OFFCURVE",
"-642 1791 CURVE",
"-576 1786 LINE",
"-573 1854 OFFCURVE",
"-542 1899 OFFCURVE",
"-487 1899 CURVE SMOOTH",
"-456 1899 OFFCURVE",
"-426 1880 OFFCURVE",
"-398 1843 CURVE SMOOTH",
"-370 1805 OFFCURVE",
"-338 1741 OFFCURVE",
"-302 1650 CURVE SMOOTH",
"-150 1270 LINE"
);
}
);
width = 0;
}
);
note = uni1B02;
unicode = 1B02;
},
{
glyphname = uni1B03;
lastChange = "2016-11-10 14:12:45 +0000";
layers = (
{
layerId = "BB284FF0-04DD-4FE7-B9B3-843DE156013A";
paths = (
{
closed = 1;
nodes = (
"-7 1332 LINE",
"-374 1379 OFFCURVE",
"-657 1627 OFFCURVE",
"-796 2026 CURVE",
"-992 2070 LINE",
"-861 1633 OFFCURVE",
"-464 1300 OFFCURVE",
"-31 1272 CURVE"
);
}
);
width = 0;
}
);
note = uni1B03;
unicode = 1B03;
},
{
glyphname = uni1B04;
lastChange = "2016-11-10 14:12:45 +0000";
layers = (
{
layerId = "BB284FF0-04DD-4FE7-B9B3-843DE156013A";
paths = (
{
closed = 1;
nodes = (
"510 -1079 LINE",
"503 -1055 LINE",
"485 -1012 OFFCURVE",
"476 -947 OFFCURVE",
"476 -862 CURVE SMOOTH",
"476 -762 OFFCURVE",
"521 -629 OFFCURVE",
"610 -463 CURVE SMOOTH",
"699 -297 OFFCURVE",
"743 -133 OFFCURVE",
"743 28 CURVE SMOOTH",
"743 210 OFFCURVE",
"657 337 OFFCURVE",
"485 409 CURVE",
"618 476 OFFCURVE",
"698 591 OFFCURVE",
"698 714 CURVE SMOOTH",
"698 963 OFFCURVE",
"574 1118 OFFCURVE",
"383 1118 CURVE SMOOTH",
"188 1118 OFFCURVE",
"80 949 OFFCURVE",
"80 686 CURVE",
"116 680 LINE",
"126 680 OFFCURVE",
"141 683 OFFCURVE",
"160 688 CURVE",
"163 855 OFFCURVE",
"247 948 OFFCURVE",
"386 948 CURVE SMOOTH",
"514 948 OFFCURVE",
"598 864 OFFCURVE",
"598 721 CURVE SMOOTH",
"598 540 OFFCURVE",
"484 449 OFFCURVE",
"255 449 CURVE SMOOTH",
"202 449 LINE",
"192 369 LINE",
"234 369 LINE SMOOTH",
"486 369 OFFCURVE",
"643 271 OFFCURVE",
"643 95 CURVE SMOOTH",
"643 -44 OFFCURVE",
"599 -187 OFFCURVE",
"510 -335 CURVE SMOOTH",
"421 -484 OFFCURVE",
"376 -640 OFFCURVE",
"376 -803 CURVE SMOOTH",
"376 -887 OFFCURVE",
"418 -1062 OFFCURVE",
"459 -1118 CURVE"
);
}
);
width = 843;
}
);
note = uni1B04;
unicode = 1B04;
},
{
glyphname = uni1B05;
lastChange = "2016-11-10 14:12:45 +0000";
layers = (
{
layerId = "BB284FF0-04DD-4FE7-B9B3-843DE156013A";
paths = (
{
closed = 1;
nodes = (
"797 -20 OFFCURVE",
"940 118 OFFCURVE",
"940 321 CURVE SMOOTH",
"940 422 OFFCURVE",
"880 503 OFFCURVE",
"773 536 CURVE",
"852 587 OFFCURVE",
"892 663 OFFCURVE",
"892 764 CURVE SMOOTH",
"892 877 OFFCURVE",
"801 960 OFFCURVE",
"684 960 CURVE SMOOTH",
"579 960 OFFCURVE",
"485 866 OFFCURVE",
"440 726 CURVE",
"476 700 LINE",
"515 763 OFFCURVE",
"572 790 OFFCURVE",
"665 790 CURVE SMOOTH",
"736 790 OFFCURVE",
"792 751 OFFCURVE",
"792 691 CURVE SMOOTH",
"792 631 OFFCURVE",
"717 566 OFFCURVE",
"620 555 CURVE",
"543 555 LINE",
"533 475 LINE",
"625 475 LINE SMOOTH",
"766 475 OFFCURVE",
"840 419 OFFCURVE",
"840 332 CURVE SMOOTH",
"840 212 OFFCURVE",
"765 150 OFFCURVE",
"580 150 CURVE SMOOTH",
"336 150 OFFCURVE",
"200 310 OFFCURVE",
"200 605 CURVE SMOOTH",
"200 906 OFFCURVE",
"415 1110 OFFCURVE",
"691 1110 CURVE SMOOTH",
"898 1110 OFFCURVE",
"1053 1049 OFFCURVE",
"1222 798 CURVE",
"1292 844 LINE",
"1188 1067 OFFCURVE",
"958 1210 OFFCURVE",
"689 1210 CURVE SMOOTH",
"583 1210 OFFCURVE",
"483 1183 OFFCURVE",
"389 1128 CURVE SMOOTH",
"200 1019 OFFCURVE",
"100 830 OFFCURVE",
"100 597 CURVE SMOOTH",
"100 249 OFFCURVE",
"308 -20 OFFCURVE",
"580 -20 CURVE SMOOTH"
);
},
{
closed = 1;
nodes = (
"1687 -20 OFFCURVE",
"1813 146 OFFCURVE",
"1813 485 CURVE SMOOTH",
"1813 509 LINE",
"1852 496 OFFCURVE",
"1910 473 OFFCURVE",
"1988 439 CURVE",
"1988 0 LINE",
"2068 0 LINE",
"2068 404 LINE",
"2203 346 LINE",
"2228 424 LINE",
"2068 492 LINE",
"2068 635 LINE SMOOTH",
"2068 768 OFFCURVE",
"2059 865 OFFCURVE",
"2041 925 CURVE SMOOTH",
"2004 1044 OFFCURVE",
"1920 1100 OFFCURVE",
"1780 1100 CURVE SMOOTH",
"1733 1100 LINE",
"1733 625 LINE",
"1658 648 OFFCURVE",
"1600 660 OFFCURVE",
"1558 660 CURVE SMOOTH",
"1485 660 OFFCURVE",
"1432 616 OFFCURVE",
"1432 551 CURVE SMOOTH",
"1432 483 OFFCURVE",
"1482 396 OFFCURVE",
"1559 331 CURVE",
"1609 373 LINE",
"1581 402 OFFCURVE",
"1567 431 OFFCURVE",
"1567 459 CURVE SMOOTH",
"1567 510 OFFCURVE",
"1607 541 OFFCURVE",
"1662 541 CURVE SMOOTH",
"1680 541 OFFCURVE",
"1704 538 OFFCURVE",
"1733 531 CURVE",
"1733 496 LINE SMOOTH",
"1733 265 OFFCURVE",
"1635 150 OFFCURVE",
"1454 150 CURVE SMOOTH",
"1262 150 OFFCURVE",
"1151 235 OFFCURVE",
"1130 390 CURVE",
"1064 370 LINE",
"1092 118 OFFCURVE",
"1227 -20 OFFCURVE",
"1454 -20 CURVE SMOOTH"
);
},
{
closed = 1;
nodes = (
"1813 598 LINE",
"1813 930 LINE",
"1839 930 LINE SMOOTH",
"1938 930 OFFCURVE",
"1988 829 OFFCURVE",
"1988 626 CURVE SMOOTH",
"1988 526 LINE"
);
}
);
width = 2258;
}
);
note = uni1B05;
unicode = 1B05;
},
{
glyphname = uni1B06;
lastChange = "2016-11-10 14:12:45 +0000";
layers = (
{
layerId = "BB284FF0-04DD-4FE7-B9B3-843DE156013A";
paths = (
{
closed = 1;
nodes = (
"2573 -21 OFFCURVE",
"2771 192 OFFCURVE",
"2771 561 CURVE SMOOTH",
"2771 882 OFFCURVE",
"2552 1117 OFFCURVE",
"2239 1117 CURVE SMOOTH",
"1950 1117 OFFCURVE",
"1733 879 OFFCURVE",
"1733 544 CURVE SMOOTH",
"1733 543 LINE",
"1645 625 OFFCURVE",
"1574 666 OFFCURVE",
"1521 666 CURVE SMOOTH",
"1454 666 OFFCURVE",
"1410 609 OFFCURVE",
"1410 522 CURVE SMOOTH",
"1410 465 OFFCURVE",
"1425 408 OFFCURVE",
"1454 349 CURVE",
"1517 368 LINE",
"1509 389 OFFCURVE",
"1505 408 OFFCURVE",
"1505 426 CURVE SMOOTH",
"1505 474 OFFCURVE",
"1541 511 OFFCURVE",
"1588 511 CURVE SMOOTH",
"1624 511 OFFCURVE",
"1671 484 OFFCURVE",
"1730 431 CURVE",
"1713 244 OFFCURVE",
"1621 150 OFFCURVE",
"1454 150 CURVE SMOOTH",
"1262 150 OFFCURVE",
"1151 235 OFFCURVE",
"1130 390 CURVE",
"1064 370 LINE",
"1092 118 OFFCURVE",
"1227 -20 OFFCURVE",
"1454 -20 CURVE SMOOTH",
"1659 -20 OFFCURVE",
"1777 105 OFFCURVE",
"1806 356 CURVE",
"2011 138 LINE",
"2064 200 LINE",
"1813 464 LINE",
"1813 541 LINE SMOOTH",
"1813 786 OFFCURVE",
"1977 947 OFFCURVE",
"2242 947 CURVE SMOOTH",
"2502 947 OFFCURVE",
"2671 794 OFFCURVE",
"2671 553 CURVE SMOOTH",
"2671 266 OFFCURVE",
"2524 79 OFFCURVE",
"2343 79 CURVE SMOOTH",
"2298 79 OFFCURVE",
"2233 87 OFFCURVE",
"2202 102 CURVE",
"2151 22 LINE",
"2198 -7 OFFCURVE",
"2259 -21 OFFCURVE",
"2332 -21 CURVE SMOOTH"
);
},
{
closed = 1;
nodes = (
"797 -20 OFFCURVE",
"940 118 OFFCURVE",
"940 321 CURVE SMOOTH",
"940 422 OFFCURVE",
"880 503 OFFCURVE",
"773 536 CURVE",
"852 587 OFFCURVE",
"892 663 OFFCURVE",
"892 764 CURVE SMOOTH",
"892 877 OFFCURVE",
"801 960 OFFCURVE",
"684 960 CURVE SMOOTH",
"579 960 OFFCURVE",
"485 866 OFFCURVE",
"440 726 CURVE",
"476 700 LINE",
"515 763 OFFCURVE",
"572 790 OFFCURVE",
"665 790 CURVE SMOOTH",
"736 790 OFFCURVE",
"792 751 OFFCURVE",
"792 691 CURVE SMOOTH",
"792 628 OFFCURVE",
"715 555 OFFCURVE",
"620 555 CURVE SMOOTH",
"543 555 LINE",
"533 475 LINE",
"625 475 LINE SMOOTH",
"766 475 OFFCURVE",
"840 419 OFFCURVE",
"840 332 CURVE SMOOTH",
"840 212 OFFCURVE",
"765 150 OFFCURVE",
"580 150 CURVE SMOOTH",
"336 150 OFFCURVE",
"200 310 OFFCURVE",
"200 605 CURVE SMOOTH",
"200 906 OFFCURVE",
"415 1110 OFFCURVE",
"691 1110 CURVE SMOOTH",
"898 1110 OFFCURVE",
"1053 1049 OFFCURVE",
"1222 798 CURVE",
"1292 844 LINE",
"1188 1067 OFFCURVE",
"958 1210 OFFCURVE",
"689 1210 CURVE SMOOTH",
"583 1210 OFFCURVE",
"483 1183 OFFCURVE",
"389 1128 CURVE SMOOTH",
"200 1019 OFFCURVE",
"100 830 OFFCURVE",
"100 597 CURVE SMOOTH",
"100 249 OFFCURVE",
"308 -20 OFFCURVE",
"580 -20 CURVE SMOOTH"
);
}
);
width = 2871;
}
);
note = uni1B06;
unicode = 1B06;
},
{
glyphname = uni1B07;
lastChange = "2016-11-10 14:12:45 +0000";
layers = (
{
layerId = "BB284FF0-04DD-4FE7-B9B3-843DE156013A";
paths = (
{
closed = 1;
nodes = (
"740 0 LINE",
"740 616 LINE SMOOTH",
"740 845 OFFCURVE",
"803 948 OFFCURVE",
"971 948 CURVE SMOOTH",
"1086 948 OFFCURVE",
"1186 845 OFFCURVE",
"1186 733 CURVE",
"1255 733 LINE",
"1267 865 OFFCURVE",
"1357 948 OFFCURVE",
"1470 948 CURVE SMOOTH",
"1638 948 OFFCURVE",
"1700 845 OFFCURVE",
"1700 616 CURVE SMOOTH",
"1700 0 LINE",
"1780 0 LINE",
"1780 616 LINE SMOOTH",
"1780 981 OFFCURVE",
"1694 1118 OFFCURVE",
"1470 1118 CURVE SMOOTH",
"1348 1118 OFFCURVE",
"1265 1049 OFFCURVE",
"1220 912 CURVE",
"1176 1049 OFFCURVE",
"1093 1118 OFFCURVE",
"971 1118 CURVE SMOOTH",
"748 1118 OFFCURVE",
"660 981 OFFCURVE",
"660 616 CURVE SMOOTH",
"660 170 LINE",
"634 170 LINE SMOOTH",
"542 170 OFFCURVE",
"488 256 OFFCURVE",
"488 417 CURVE SMOOTH",
"488 653 LINE SMOOTH",
"488 838 OFFCURVE",
"471 961 OFFCURVE",
"438 1024 CURVE SMOOTH",
"404 1087 OFFCURVE",
"353 1118 OFFCURVE",
"286 1118 CURVE SMOOTH",
"219 1118 OFFCURVE",
"168 1085 OFFCURVE",
"133 1019 CURVE SMOOTH",
"98 953 OFFCURVE",
"80 842 OFFCURVE",
"80 686 CURVE",
"116 680 LINE",
"126 680 OFFCURVE",
"141 683 OFFCURVE",
"160 688 CURVE",
"161 773 OFFCURVE",
"166 830 OFFCURVE",
"173 859 CURVE SMOOTH",
"188 917 OFFCURVE",
"222 948 OFFCURVE",
"289 948 CURVE SMOOTH",
"333 948 OFFCURVE",
"364 928 OFFCURVE",
"382 887 CURVE SMOOTH",
"399 846 OFFCURVE",
"408 770 OFFCURVE",
"408 660 CURVE SMOOTH",
"408 465 LINE SMOOTH",
"408 330 OFFCURVE",
"417 234 OFFCURVE",
"435 175 CURVE SMOOTH",
"470 57 OFFCURVE",
"556 0 OFFCURVE",
"693 0 CURVE SMOOTH"
);
},
{
closed = 1;
nodes = (
"1379 -720 OFFCURVE",
"1490 -622 OFFCURVE",
"1490 -494 CURVE SMOOTH",
"1490 -377 OFFCURVE",
"1382 -317 OFFCURVE",
"1199 -277 CURVE SMOOTH",
"1107 -258 OFFCURVE",
"1061 -232 OFFCURVE",
"1061 -200 CURVE SMOOTH",
"1061 -157 OFFCURVE",
"1123 -130 OFFCURVE",
"1203 -130 CURVE SMOOTH",
"1268 -130 OFFCURVE",
"1321 -142 OFFCURVE",
"1360 -167 CURVE",
"1399 -96 LINE",
"1350 -69 OFFCURVE",
"1297 -50 OFFCURVE",
"1208 -50 CURVE SMOOTH",
"1076 -50 OFFCURVE",
"976 -118 OFFCURVE",
"976 -213 CURVE SMOOTH",
"976 -246 OFFCURVE",
"991 -273 OFFCURVE",
"1020 -296 CURVE SMOOTH",
"1049 -319 OFFCURVE",
"1106 -339 OFFCURVE",
"1191 -358 CURVE SMOOTH",
"1276 -377 OFFCURVE",
"1333 -395 OFFCURVE",
"1362 -413 CURVE SMOOTH",
"1391 -431 OFFCURVE",
"1405 -453 OFFCURVE",
"1405 -480 CURVE SMOOTH",
"1405 -535 OFFCURVE",
"1310 -571 OFFCURVE",
"1206 -571 CURVE SMOOTH",
"1094 -571 OFFCURVE",
"942 -521 OFFCURVE",
"906 -465 CURVE",
"868 -491 LINE",
"909 -612 OFFCURVE",
"1081 -720 OFFCURVE",
"1226 -720 CURVE SMOOTH"
);
}
);
width = 1910;
}
);
note = uni1B07;
unicode = 1B07;
},
{
glyphname = uni1B09;
lastChange = "2016-11-10 14:12:45 +0000";
layers = (
{
layerId = "BB284FF0-04DD-4FE7-B9B3-843DE156013A";
paths = (
{
closed = 1;
nodes = (
"544 -1118 LINE",
"544 -822 LINE SMOOTH",
"544 -595 OFFCURVE",
"659 -488 OFFCURVE",
"934 -488 CURVE SMOOTH",
"1207 -488 OFFCURVE",
"1324 -590 OFFCURVE",
"1324 -826 CURVE SMOOTH",
"1324 -1118 LINE",
"1404 -1118 LINE",
"1404 -823 LINE SMOOTH",
"1404 -482 OFFCURVE",
"1234 -318 OFFCURVE",
"933 -318 CURVE SMOOTH",
"626 -318 OFFCURVE",
"464 -495 OFFCURVE",
"464 -822 CURVE SMOOTH",
"464 -948 LINE",
"438 -948 LINE SMOOTH",
"338 -948 OFFCURVE",
"230 -833 OFFCURVE",
"230 -681 CURVE SMOOTH",
"230 -529 OFFCURVE",
"330 -377 OFFCURVE",
"583 -176 CURVE SMOOTH",
"710 -75 OFFCURVE",
"819 21 OFFCURVE",
"911 114 CURVE SMOOTH",
"1094 299 OFFCURVE",
"1182 498 OFFCURVE",
"1182 714 CURVE SMOOTH",
"1182 963 OFFCURVE",
"1058 1118 OFFCURVE",
"867 1118 CURVE SMOOTH",
"672 1118 OFFCURVE",
"564 949 OFFCURVE",
"564 686 CURVE",
"600 680 LINE",
"610 680 OFFCURVE",
"625 683 OFFCURVE",
"644 688 CURVE",
"647 855 OFFCURVE",
"731 948 OFFCURVE",
"870 948 CURVE SMOOTH",
"998 948 OFFCURVE",
"1082 864 OFFCURVE",
"1082 721 CURVE SMOOTH",
"1082 630 OFFCURVE",
"1051 539 OFFCURVE",
"990 446 CURVE SMOOTH",
"928 353 OFFCURVE",
"805 229 OFFCURVE",
"620 73 CURVE SMOOTH",
"251 -239 OFFCURVE",
"130 -441 OFFCURVE",
"130 -676 CURVE SMOOTH",
"130 -955 OFFCURVE",
"268 -1118 OFFCURVE",
"497 -1118 CURVE SMOOTH"
);
}
);
width = 1534;
}
);
note = uni1B09;
unicode = 1B09;
},
{
glyphname = uni1B0B;
lastChange = "2016-11-10 14:12:45 +0000";
layers = (
{
layerId = "BB284FF0-04DD-4FE7-B9B3-843DE156013A";
paths = (
{
closed = 1;
nodes = (
"1124 -20 OFFCURVE",
"1268 155 OFFCURVE",
"1268 482 CURVE SMOOTH",
"1268 930 LINE",
"1294 930 LINE SMOOTH",
"1393 930 OFFCURVE",
"1443 829 OFFCURVE",
"1443 626 CURVE SMOOTH",
"1443 0 LINE",
"1523 0 LINE",
"1523 635 LINE SMOOTH",
"1523 768 OFFCURVE",
"1514 865 OFFCURVE",
"1496 925 CURVE SMOOTH",
"1459 1044 OFFCURVE",
"1375 1100 OFFCURVE",
"1235 1100 CURVE SMOOTH",
"1188 1100 LINE",
"1188 482 LINE SMOOTH",
"1188 255 OFFCURVE",
"1087 150 OFFCURVE",
"838 150 CURVE SMOOTH",
"590 150 OFFCURVE",
"488 246 OFFCURVE",
"488 486 CURVE SMOOTH",
"488 653 LINE SMOOTH",
"488 838 OFFCURVE",
"471 961 OFFCURVE",
"438 1024 CURVE SMOOTH",
"404 1087 OFFCURVE",
"353 1118 OFFCURVE",
"286 1118 CURVE SMOOTH",
"219 1118 OFFCURVE",
"168 1085 OFFCURVE",
"133 1019 CURVE SMOOTH",
"98 953 OFFCURVE",
"80 842 OFFCURVE",
"80 686 CURVE",
"116 680 LINE",
"126 680 OFFCURVE",
"141 683 OFFCURVE",
"160 688 CURVE",
"161 773 OFFCURVE",
"166 830 OFFCURVE",
"173 859 CURVE SMOOTH",
"188 917 OFFCURVE",
"222 948 OFFCURVE",
"289 948 CURVE SMOOTH",
"333 948 OFFCURVE",
"364 928 OFFCURVE",
"382 887 CURVE SMOOTH",
"399 846 OFFCURVE",
"408 770 OFFCURVE",
"408 660 CURVE SMOOTH",
"408 464 LINE SMOOTH",
"408 148 OFFCURVE",
"552 -20 OFFCURVE",
"839 -20 CURVE SMOOTH"
);
},
{
closed = 1;
nodes = (
"1009 -770 OFFCURVE",
"1120 -672 OFFCURVE",
"1120 -544 CURVE SMOOTH",
"1120 -427 OFFCURVE",
"1012 -367 OFFCURVE",
"829 -327 CURVE SMOOTH",
"737 -308 OFFCURVE",
"691 -282 OFFCURVE",
"691 -250 CURVE SMOOTH",
"691 -207 OFFCURVE",
"753 -180 OFFCURVE",
"833 -180 CURVE SMOOTH",
"898 -180 OFFCURVE",
"951 -192 OFFCURVE",
"990 -217 CURVE",
"1029 -146 LINE",
"980 -119 OFFCURVE",
"927 -100 OFFCURVE",
"838 -100 CURVE SMOOTH",
"706 -100 OFFCURVE",
"606 -168 OFFCURVE",
"606 -263 CURVE SMOOTH",
"606 -296 OFFCURVE",
"621 -323 OFFCURVE",
"650 -346 CURVE SMOOTH",
"679 -369 OFFCURVE",
"736 -389 OFFCURVE",
"821 -408 CURVE SMOOTH",
"906 -427 OFFCURVE",
"963 -445 OFFCURVE",
"992 -463 CURVE SMOOTH",
"1021 -481 OFFCURVE",
"1035 -503 OFFCURVE",
"1035 -530 CURVE SMOOTH",
"1035 -585 OFFCURVE",
"940 -621 OFFCURVE",
"836 -621 CURVE SMOOTH",
"724 -621 OFFCURVE",
"572 -571 OFFCURVE",
"536 -515 CURVE",
"498 -541 LINE",
"539 -662 OFFCURVE",
"711 -770 OFFCURVE",
"856 -770 CURVE SMOOTH"
);
}
);
width = 1653;
}
);
note = uni1B0B;
unicode = 1B0B;
},
{
glyphname = uni1B0D;
lastChange = "2016-11-10 14:12:45 +0000";
layers = (
{
layerId = "BB284FF0-04DD-4FE7-B9B3-843DE156013A";
paths = (
{
closed = 1;
nodes = (
"1655 -918 OFFCURVE",
"1714 -714 OFFCURVE",
"1757 -507 CURVE",
"1808 -508 LINE SMOOTH",
"1905 -508 OFFCURVE",
"2017 -481 OFFCURVE",
"2090 -432 CURVE",
"2057 -361 LINE",
"2000 -392 OFFCURVE",
"1914 -408 OFFCURVE",
"1798 -408 CURVE",
"1777 -407 LINE",
"1819 -181 OFFCURVE",
"1840 44 OFFCURVE",
"1840 268 CURVE SMOOTH",
"1840 545 OFFCURVE",
"1808 756 OFFCURVE",
"1745 901 CURVE SMOOTH",
"1681 1046 OFFCURVE",
"1589 1118 OFFCURVE",
"1470 1118 CURVE SMOOTH",
"1348 1118 OFFCURVE",
"1265 1049 OFFCURVE",
"1220 912 CURVE",
"1176 1049 OFFCURVE",
"1093 1118 OFFCURVE",
"971 1118 CURVE SMOOTH",
"748 1118 OFFCURVE",
"660 981 OFFCURVE",
"660 616 CURVE SMOOTH",
"660 170 LINE",
"634 170 LINE SMOOTH",
"542 170 OFFCURVE",
"488 256 OFFCURVE",
"488 417 CURVE SMOOTH",
"488 653 LINE SMOOTH",
"488 838 OFFCURVE",
"471 961 OFFCURVE",
"438 1024 CURVE SMOOTH",
"404 1087 OFFCURVE",
"353 1118 OFFCURVE",
"286 1118 CURVE SMOOTH",
"219 1118 OFFCURVE",
"168 1085 OFFCURVE",
"133 1019 CURVE SMOOTH",
"98 953 OFFCURVE",
"80 842 OFFCURVE",
"80 686 CURVE",
"116 680 LINE",
"126 680 OFFCURVE",
"141 683 OFFCURVE",
"160 688 CURVE",
"161 773 OFFCURVE",
"166 830 OFFCURVE",
"173 859 CURVE SMOOTH",
"188 917 OFFCURVE",
"222 948 OFFCURVE",
"289 948 CURVE SMOOTH",
"333 948 OFFCURVE",
"364 928 OFFCURVE",
"382 887 CURVE SMOOTH",
"399 846 OFFCURVE",
"408 770 OFFCURVE",
"408 660 CURVE SMOOTH",
"408 465 LINE SMOOTH",
"408 330 OFFCURVE",
"417 234 OFFCURVE",
"435 175 CURVE SMOOTH",
"470 57 OFFCURVE",
"556 0 OFFCURVE",
"693 0 CURVE SMOOTH",
"740 0 LINE",
"740 616 LINE SMOOTH",
"740 845 OFFCURVE",
"803 948 OFFCURVE",
"971 948 CURVE SMOOTH",
"1086 948 OFFCURVE",
"1186 845 OFFCURVE",
"1186 733 CURVE",
"1255 733 LINE",
"1267 865 OFFCURVE",
"1357 948 OFFCURVE",
"1470 948 CURVE SMOOTH",
"1650 948 OFFCURVE",
"1740 718 OFFCURVE",
"1740 258 CURVE SMOOTH",
"1740 56 OFFCURVE",
"1719 -163 OFFCURVE",
"1677 -398 CURVE",
"1573 -383 OFFCURVE",
"1426 -336 OFFCURVE",
"1236 -257 CURVE SMOOTH",
"1046 -179 OFFCURVE",
"882 -140 OFFCURVE",
"743 -140 CURVE SMOOTH",
"531 -140 OFFCURVE",
"380 -268 OFFCURVE",
"380 -428 CURVE SMOOTH",
"380 -495 OFFCURVE",
"405 -553 OFFCURVE",
"454 -604 CURVE SMOOTH",
"553 -705 OFFCURVE",
"725 -768 OFFCURVE",
"1060 -844 CURVE SMOOTH",
"1227 -882 OFFCURVE",
"1344 -918 OFFCURVE",
"1409 -951 CURVE SMOOTH",
"1474 -984 OFFCURVE",
"1507 -1023 OFFCURVE",
"1510 -1068 CURVE",
"1500 -1100 LINE",
"1580 -1120 LINE"
);
},
{
closed = 1;
nodes = (
"1500 -876 OFFCURVE",
"1354 -818 OFFCURVE",
"1112 -763 CURVE SMOOTH",
"869 -708 OFFCURVE",
"703 -656 OFFCURVE",
"614 -606 CURVE SMOOTH",
"525 -556 OFFCURVE",
"480 -498 OFFCURVE",
"480 -432 CURVE SMOOTH",
"480 -337 OFFCURVE",
"547 -290 OFFCURVE",
"681 -290 CURVE SMOOTH",
"794 -290 OFFCURVE",
"953 -321 OFFCURVE",
"1158 -383 CURVE SMOOTH",
"1363 -446 OFFCURVE",
"1530 -484 OFFCURVE",
"1659 -499 CURVE",
"1633 -631 OFFCURVE",
"1597 -776 OFFCURVE",
"1551 -935 CURVE"
);
}
);
width = 1940;
}
);
note = uni1B0D;
unicode = 1B0D;
},
{
glyphname = uni1B0E;
lastChange = "2016-11-10 13:44:54 +0000";
layers = (
{
layerId = "BB284FF0-04DD-4FE7-B9B3-843DE156013A";
paths = (
{
closed = 1;
nodes = (
"1655 -917 OFFCURVE",
"1714 -713 OFFCURVE",
"1757 -508 CURVE",
"1851 -508 OFFCURVE",
"1938 -482 OFFCURVE",
"2018 -430 CURVE SMOOTH",
"2098 -379 OFFCURVE",
"2169 -353 OFFCURVE",
"2232 -353 CURVE SMOOTH",
"2301 -353 OFFCURVE",
"2328 -380 OFFCURVE",
"2328 -452 CURVE SMOOTH",
"2328 -520 OFFCURVE",
"2258 -585 OFFCURVE",
"2175 -585 CURVE SMOOTH",
"2110 -585 LINE",
"2101 -665 LINE",
"2179 -665 LINE SMOOTH",
"2299 -665 OFFCURVE",
"2363 -717 OFFCURVE",
"2363 -792 CURVE SMOOTH",
"2363 -895 OFFCURVE",
"2300 -948 OFFCURVE",
"2141 -948 CURVE SMOOTH",
"2017 -948 OFFCURVE",
"1931 -919 OFFCURVE",
"1880 -842 CURVE",
"1818 -901 LINE",
"1893 -1022 OFFCURVE",
"2006 -1098 OFFCURVE",
"2141 -1098 CURVE SMOOTH",
"2322 -1098 OFFCURVE",
"2453 -977 OFFCURVE",
"2453 -801 CURVE SMOOTH",
"2453 -705 OFFCURVE",
"2398 -628 OFFCURVE",
"2310 -601 CURVE",
"2382 -555 OFFCURVE",
"2418 -490 OFFCURVE",
"2418 -406 CURVE SMOOTH",
"2418 -303 OFFCURVE",
"2350 -230 OFFCURVE",
"2258 -230 CURVE SMOOTH",
"2176 -230 OFFCURVE",
"2104 -260 OFFCURVE",
"2041 -319 CURVE SMOOTH",
"1978 -378 OFFCURVE",
"1897 -408 OFFCURVE",
"1798 -408 CURVE",
"1777 -407 LINE",
"1819 -181 OFFCURVE",
"1840 44 OFFCURVE",
"1840 268 CURVE SMOOTH",
"1840 545 OFFCURVE",
"1808 756 OFFCURVE",
"1745 901 CURVE SMOOTH",
"1681 1046 OFFCURVE",
"1589 1118 OFFCURVE",
"1470 1118 CURVE SMOOTH",
"1348 1118 OFFCURVE",
"1265 1049 OFFCURVE",
"1220 912 CURVE",
"1176 1049 OFFCURVE",
"1093 1118 OFFCURVE",
"971 1118 CURVE SMOOTH",
"748 1118 OFFCURVE",
"660 981 OFFCURVE",
"660 616 CURVE SMOOTH",
"660 170 LINE",
"634 170 LINE SMOOTH",
"542 170 OFFCURVE",
"488 256 OFFCURVE",
"488 417 CURVE SMOOTH",
"488 653 LINE SMOOTH",
"488 838 OFFCURVE",
"471 961 OFFCURVE",
"438 1024 CURVE SMOOTH",
"404 1087 OFFCURVE",
"353 1118 OFFCURVE",
"286 1118 CURVE SMOOTH",
"219 1118 OFFCURVE",
"168 1085 OFFCURVE",
"133 1019 CURVE SMOOTH",
"98 953 OFFCURVE",
"80 842 OFFCURVE",
"80 686 CURVE",
"116 680 LINE",
"126 680 OFFCURVE",
"141 683 OFFCURVE",
"160 688 CURVE",
"161 773 OFFCURVE",
"166 830 OFFCURVE",
"173 859 CURVE SMOOTH",
"188 917 OFFCURVE",
"222 948 OFFCURVE",
"289 948 CURVE SMOOTH",
"333 948 OFFCURVE",
"364 928 OFFCURVE",
"382 887 CURVE SMOOTH",
"399 846 OFFCURVE",
"408 770 OFFCURVE",
"408 660 CURVE SMOOTH",
"408 465 LINE SMOOTH",
"408 330 OFFCURVE",
"417 234 OFFCURVE",
"435 175 CURVE SMOOTH",
"470 57 OFFCURVE",
"556 0 OFFCURVE",
"693 0 CURVE SMOOTH",
"740 0 LINE",
"740 616 LINE SMOOTH",
"740 845 OFFCURVE",
"803 948 OFFCURVE",
"971 948 CURVE SMOOTH",
"1086 948 OFFCURVE",
"1186 845 OFFCURVE",
"1186 733 CURVE",
"1255 733 LINE",
"1267 865 OFFCURVE",
"1357 948 OFFCURVE",
"1470 948 CURVE SMOOTH",
"1650 948 OFFCURVE",
"1740 718 OFFCURVE",
"1740 258 CURVE SMOOTH",
"1740 56 OFFCURVE",
"1719 -163 OFFCURVE",
"1677 -398 CURVE",
"1573 -383 OFFCURVE",
"1426 -336 OFFCURVE",
"1236 -257 CURVE SMOOTH",
"1046 -179 OFFCURVE",
"882 -140 OFFCURVE",
"743 -140 CURVE SMOOTH",
"531 -140 OFFCURVE",
"380 -268 OFFCURVE",
"380 -428 CURVE SMOOTH",
"380 -495 OFFCURVE",
"405 -553 OFFCURVE",
"454 -604 CURVE SMOOTH",
"553 -705 OFFCURVE",
"725 -768 OFFCURVE",
"1060 -844 CURVE SMOOTH",
"1227 -882 OFFCURVE",
"1344 -918 OFFCURVE",
"1409 -951 CURVE SMOOTH",
"1474 -984 OFFCURVE",
"1507 -1023 OFFCURVE",
"1510 -1068 CURVE",
"1500 -1100 LINE",
"1580 -1120 LINE"
);
},
{
closed = 1;
nodes = (
"1500 -876 OFFCURVE",
"1354 -818 OFFCURVE",
"1112 -763 CURVE SMOOTH",
"869 -708 OFFCURVE",
"703 -656 OFFCURVE",
"614 -606 CURVE SMOOTH",
"525 -556 OFFCURVE",
"480 -498 OFFCURVE",
"480 -432 CURVE SMOOTH",
"480 -337 OFFCURVE",
"547 -290 OFFCURVE",
"681 -290 CURVE SMOOTH",
"794 -290 OFFCURVE",
"958 -323 OFFCURVE",
"1172 -388 CURVE SMOOTH",
"1385 -454 OFFCURVE",
"1547 -492 OFFCURVE",
"1658 -503 CURVE",
"1629 -644 OFFCURVE",
"1594 -788 OFFCURVE",
"1551 -935 CURVE"
);
}
);
width = 2353;
}
);
note = uni1B0E;
unicode = 1B0E;
},
{
glyphname = uni1B0F;
lastChange = "2016-11-10 14:12:45 +0000";
layers = (
{
layerId = "BB284FF0-04DD-4FE7-B9B3-843DE156013A";
paths = (
{
closed = 1;
nodes = (
"393 25 LINE SMOOTH",
"393 270 OFFCURVE",
"557 431 OFFCURVE",
"822 431 CURVE SMOOTH",
"1085 431 OFFCURVE",
"1251 284 OFFCURVE",
"1251 44 CURVE SMOOTH",
"1251 12 LINE",
"1249 -20 LINE",
"1350 1 LINE",
"1351 26 LINE",
"1351 52 LINE SMOOTH",
"1351 371 OFFCURVE",
"1134 601 OFFCURVE",
"819 601 CURVE SMOOTH",
"579 601 OFFCURVE",
"384 436 OFFCURVE",
"329 185 CURVE",
"256 265 OFFCURVE",
"220 385 OFFCURVE",
"220 545 CURVE SMOOTH",
"220 846 OFFCURVE",
"435 1050 OFFCURVE",
"711 1050 CURVE SMOOTH",
"742 1050 OFFCURVE",
"776 1048 OFFCURVE",
"813 1043 CURVE",
"836 1139 LINE",
"792 1146 OFFCURVE",
"750 1150 OFFCURVE",
"709 1150 CURVE SMOOTH",
"603 1150 OFFCURVE",
"503 1123 OFFCURVE",
"409 1068 CURVE SMOOTH",
"220 959 OFFCURVE",
"120 770 OFFCURVE",
"120 537 CURVE SMOOTH",
"120 293 OFFCURVE",
"221 79 OFFCURVE",
"393 -24 CURVE"
);
}
);
width = 1471;
}
);
note = uni1B0F;
unicode = 1B0F;
},
{
glyphname = uni1B10;
lastChange = "2016-11-10 14:12:45 +0000";
layers = (
{
layerId = "BB284FF0-04DD-4FE7-B9B3-843DE156013A";
paths = (
{
closed = 1;
nodes = (
"1172 -1118 OFFCURVE",
"1226 -1084 OFFCURVE",
"1267 -1015 CURVE SMOOTH",
"1307 -946 OFFCURVE",
"1356 -912 OFFCURVE",
"1414 -912 CURVE SMOOTH",
"1472 -912 OFFCURVE",
"1522 -946 OFFCURVE",
"1563 -1015 CURVE SMOOTH",
"1604 -1084 OFFCURVE",
"1657 -1118 OFFCURVE",
"1724 -1118 CURVE SMOOTH",
"1951 -1118 OFFCURVE",
"2045 -961 OFFCURVE",
"2045 -616 CURVE SMOOTH",
"2045 1041 LINE",
"2206 1045 OFFCURVE",
"2326 1192 OFFCURVE",
"2343 1420 CURVE",
"2274 1463 LINE",
"2261 1307 OFFCURVE",
"2162 1212 OFFCURVE",
"2045 1212 CURVE",
"2038 1416 OFFCURVE",
"1945 1570 OFFCURVE",
"1817 1570 CURVE SMOOTH",
"1712 1570 OFFCURVE",
"1647 1499 OFFCURVE",
"1647 1386 CURVE SMOOTH",
"1647 1205 OFFCURVE",
"1773 1071 OFFCURVE",
"1965 1043 CURVE",
"1965 -616 LINE SMOOTH",
"1965 -843 OFFCURVE",
"1908 -948 OFFCURVE",
"1704 -948 CURVE SMOOTH",
"1639 -948 OFFCURVE",
"1586 -912 OFFCURVE",
"1547 -840 CURVE SMOOTH",
"1507 -769 OFFCURVE",
"1463 -733 OFFCURVE",
"1414 -733 CURVE SMOOTH",
"1376 -733 OFFCURVE",
"1344 -756 OFFCURVE",
"1319 -802 CURVE SMOOTH",
"1267 -895 OFFCURVE",
"1217 -948 OFFCURVE",
"1125 -948 CURVE SMOOTH",
"945 -948 OFFCURVE",
"841 -852 OFFCURVE",
"841 -683 CURVE SMOOTH",
"841 -543 OFFCURVE",
"910 -418 OFFCURVE",
"1191 -210 CURVE SMOOTH",
"1332 -107 OFFCURVE",
"1446 -9 OFFCURVE",
"1535 84 CURVE SMOOTH",
"1712 268 OFFCURVE",
"1793 475 OFFCURVE",
"1793 714 CURVE SMOOTH",
"1793 971 OFFCURVE",
"1674 1118 OFFCURVE",
"1470 1118 CURVE SMOOTH",
"1348 1118 OFFCURVE",
"1265 1049 OFFCURVE",
"1220 912 CURVE",
"1176 1049 OFFCURVE",
"1093 1118 OFFCURVE",
"971 1118 CURVE SMOOTH",
"748 1118 OFFCURVE",
"660 981 OFFCURVE",
"660 616 CURVE SMOOTH",
"660 170 LINE",
"634 170 LINE SMOOTH",
"542 170 OFFCURVE",
"488 256 OFFCURVE",
"488 417 CURVE SMOOTH",
"488 653 LINE SMOOTH",
"488 838 OFFCURVE",
"471 961 OFFCURVE",
"438 1024 CURVE SMOOTH",
"404 1087 OFFCURVE",
"353 1118 OFFCURVE",
"286 1118 CURVE SMOOTH",
"219 1118 OFFCURVE",
"168 1085 OFFCURVE",
"133 1019 CURVE SMOOTH",
"98 953 OFFCURVE",
"80 842 OFFCURVE",
"80 686 CURVE",
"116 680 LINE",
"126 680 OFFCURVE",
"141 683 OFFCURVE",
"160 688 CURVE",
"161 773 OFFCURVE",
"166 830 OFFCURVE",
"173 859 CURVE SMOOTH",
"188 917 OFFCURVE",
"222 948 OFFCURVE",
"289 948 CURVE SMOOTH",
"333 948 OFFCURVE",
"364 928 OFFCURVE",
"382 887 CURVE SMOOTH",
"399 846 OFFCURVE",
"408 770 OFFCURVE",
"408 660 CURVE SMOOTH",
"408 465 LINE SMOOTH",
"408 330 OFFCURVE",
"417 234 OFFCURVE",
"435 175 CURVE SMOOTH",
"470 57 OFFCURVE",
"556 0 OFFCURVE",
"693 0 CURVE SMOOTH",
"740 0 LINE",
"740 616 LINE SMOOTH",
"740 845 OFFCURVE",
"803 948 OFFCURVE",
"971 948 CURVE SMOOTH",
"1086 948 OFFCURVE",
"1186 845 OFFCURVE",
"1186 733 CURVE",
"1255 733 LINE",
"1267 865 OFFCURVE",
"1357 948 OFFCURVE",
"1470 948 CURVE SMOOTH",
"1609 948 OFFCURVE",
"1693 862 OFFCURVE",
"1693 721 CURVE SMOOTH",
"1693 497 OFFCURVE",
"1591 321 OFFCURVE",
"1217 23 CURVE SMOOTH",
"843 -275 OFFCURVE",
"741 -454 OFFCURVE",
"741 -678 CURVE SMOOTH",
"741 -945 OFFCURVE",
"881 -1118 OFFCURVE",
"1105 -1118 CURVE SMOOTH"
);
},
{
closed = 1;
nodes = (
"1820 1224 OFFCURVE",
"1737 1286 OFFCURVE",
"1737 1387 CURVE SMOOTH",
"1737 1442 OFFCURVE",
"1765 1470 OFFCURVE",
"1821 1470 CURVE SMOOTH",
"1894 1470 OFFCURVE",
"1960 1361 OFFCURVE",
"1965 1212 CURVE"
);
}
);
width = 2343;
}
);
note = uni1B10;
unicode = 1B10;
},
{
glyphname = uni1B11;
lastChange = "2016-11-10 14:12:45 +0000";
layers = (
{
layerId = "BB284FF0-04DD-4FE7-B9B3-843DE156013A";
paths = (
{
closed = 1;
nodes = (
"1154 -1118 LINE",
"1154 -822 LINE SMOOTH",
"1154 -595 OFFCURVE",
"1269 -488 OFFCURVE",
"1544 -488 CURVE SMOOTH",
"1817 -488 OFFCURVE",
"1934 -590 OFFCURVE",
"1934 -826 CURVE SMOOTH",
"1934 -1118 LINE",
"2014 -1118 LINE",
"2014 -823 LINE SMOOTH",
"2014 -482 OFFCURVE",
"1844 -318 OFFCURVE",
"1543 -318 CURVE SMOOTH",
"1236 -318 OFFCURVE",
"1074 -495 OFFCURVE",
"1074 -822 CURVE SMOOTH",
"1074 -948 LINE",
"1048 -948 LINE SMOOTH",
"933 -948 OFFCURVE",
"841 -815 OFFCURVE",
"841 -683 CURVE SMOOTH",
"841 -543 OFFCURVE",
"910 -418 OFFCURVE",
"1191 -210 CURVE SMOOTH",
"1332 -107 OFFCURVE",
"1446 -9 OFFCURVE",
"1535 84 CURVE SMOOTH",
"1712 268 OFFCURVE",
"1793 475 OFFCURVE",
"1793 714 CURVE SMOOTH",
"1793 971 OFFCURVE",
"1674 1118 OFFCURVE",
"1470 1118 CURVE SMOOTH",
"1348 1118 OFFCURVE",
"1265 1049 OFFCURVE",
"1220 912 CURVE",
"1176 1049 OFFCURVE",
"1093 1118 OFFCURVE",
"971 1118 CURVE SMOOTH",
"748 1118 OFFCURVE",
"660 981 OFFCURVE",
"660 616 CURVE SMOOTH",
"660 170 LINE",
"634 170 LINE SMOOTH",
"542 170 OFFCURVE",
"488 256 OFFCURVE",
"488 417 CURVE SMOOTH",
"488 653 LINE SMOOTH",
"488 838 OFFCURVE",
"471 961 OFFCURVE",
"438 1024 CURVE SMOOTH",
"404 1087 OFFCURVE",
"353 1118 OFFCURVE",
"286 1118 CURVE SMOOTH",
"219 1118 OFFCURVE",
"168 1085 OFFCURVE",
"133 1019 CURVE SMOOTH",
"98 953 OFFCURVE",
"80 842 OFFCURVE",
"80 686 CURVE",
"116 680 LINE",
"126 680 OFFCURVE",
"141 683 OFFCURVE",
"160 688 CURVE",
"161 773 OFFCURVE",
"166 830 OFFCURVE",
"173 859 CURVE SMOOTH",
"188 917 OFFCURVE",
"222 948 OFFCURVE",
"289 948 CURVE SMOOTH",
"333 948 OFFCURVE",
"364 928 OFFCURVE",
"382 887 CURVE SMOOTH",
"399 846 OFFCURVE",
"408 770 OFFCURVE",
"408 660 CURVE SMOOTH",
"408 465 LINE SMOOTH",
"408 330 OFFCURVE",
"417 234 OFFCURVE",
"435 175 CURVE SMOOTH",
"470 57 OFFCURVE",
"556 0 OFFCURVE",
"693 0 CURVE SMOOTH",
"740 0 LINE",
"740 616 LINE SMOOTH",
"740 845 OFFCURVE",
"803 948 OFFCURVE",
"971 948 CURVE SMOOTH",
"1086 948 OFFCURVE",
"1186 845 OFFCURVE",
"1186 733 CURVE",
"1255 733 LINE",
"1267 865 OFFCURVE",
"1357 948 OFFCURVE",
"1470 948 CURVE SMOOTH",
"1609 948 OFFCURVE",
"1693 862 OFFCURVE",
"1693 721 CURVE SMOOTH",
"1693 496 OFFCURVE",
"1588 319 OFFCURVE",
"1217 23 CURVE SMOOTH",
"845 -274 OFFCURVE",
"741 -451 OFFCURVE",
"741 -676 CURVE SMOOTH",
"741 -956 OFFCURVE",
"879 -1118 OFFCURVE",
"1107 -1118 CURVE SMOOTH"
);
}
);
width = 2014;
}
);
note = uni1B11;
unicode = 1B11;
},
{
glyphname = uni1B13;
lastChange = "2016-11-10 14:12:45 +0000";
layers = (
{
layerId = "BB284FF0-04DD-4FE7-B9B3-843DE156013A";
paths = (
{
closed = 1;
nodes = (
"462 -20 OFFCURVE",
"537 100 OFFCURVE",
"537 372 CURVE SMOOTH",
"537 435 LINE",
"649 440 LINE",
"649 413 LINE SMOOTH",
"649 158 OFFCURVE",
"865 -20 OFFCURVE",
"1069 -20 CURVE SMOOTH",
"1236 -20 OFFCURVE",
"1341 66 OFFCURVE",
"1341 203 CURVE SMOOTH",
"1341 444 OFFCURVE",
"1113 588 OFFCURVE",
"729 608 CURVE",
"729 612 LINE SMOOTH",
"729 831 OFFCURVE",
"866 948 OFFCURVE",
"1141 948 CURVE SMOOTH",
"1413 948 OFFCURVE",
"1540 849 OFFCURVE",
"1540 612 CURVE SMOOTH",
"1540 372 LINE SMOOTH",
"1540 221 OFFCURVE",
"1555 118 OFFCURVE",
"1586 63 CURVE SMOOTH",
"1616 8 OFFCURVE",
"1663 -20 OFFCURVE",
"1726 -20 CURVE SMOOTH",
"1827 -20 OFFCURVE",
"1890 73 OFFCURVE",
"1890 221 CURVE SMOOTH",
"1890 930 LINE",
"1916 930 LINE SMOOTH",
"2015 930 OFFCURVE",
"2065 829 OFFCURVE",
"2065 626 CURVE SMOOTH",
"2065 0 LINE",
"2145 0 LINE",
"2145 635 LINE SMOOTH",
"2145 768 OFFCURVE",
"2136 865 OFFCURVE",
"2118 925 CURVE SMOOTH",
"2081 1044 OFFCURVE",
"1997 1100 OFFCURVE",
"1857 1100 CURVE SMOOTH",
"1810 1100 LINE",
"1810 283 LINE SMOOTH",
"1810 196 OFFCURVE",
"1780 130 OFFCURVE",
"1729 130 CURVE SMOOTH",
"1686 130 OFFCURVE",
"1658 147 OFFCURVE",
"1643 181 CURVE SMOOTH",
"1628 214 OFFCURVE",
"1620 276 OFFCURVE",
"1620 365 CURVE SMOOTH",
"1620 615 LINE SMOOTH",
"1620 942 OFFCURVE",
"1454 1118 OFFCURVE",
"1138 1118 CURVE SMOOTH",
"834 1118 OFFCURVE",
"649 946 OFFCURVE",
"649 654 CURVE SMOOTH",
"649 610 LINE",
"593 608 OFFCURVE",
"556 606 OFFCURVE",
"537 603 CURVE",
"537 653 LINE SMOOTH",
"537 834 OFFCURVE",
"518 956 OFFCURVE",
"481 1021 CURVE SMOOTH",
"444 1086 OFFCURVE",
"390 1118 OFFCURVE",
"320 1118 CURVE SMOOTH",
"159 1118 OFFCURVE",
"80 993 OFFCURVE",
"80 686 CURVE",
"116 680 LINE",
"126 680 OFFCURVE",
"141 683 OFFCURVE",
"160 688 CURVE",
"162 795 OFFCURVE",
"175 866 OFFCURVE",
"200 899 CURVE SMOOTH",
"224 932 OFFCURVE",
"260 948 OFFCURVE",
"309 948 CURVE SMOOTH",
"412 948 OFFCURVE",
"457 853 OFFCURVE",
"457 660 CURVE SMOOTH",
"457 586 LINE",
"258 529 OFFCURVE",
"139 381 OFFCURVE",
"139 189 CURVE SMOOTH",
"139 72 OFFCURVE",
"211 -20 OFFCURVE",
"314 -20 CURVE SMOOTH"
);
},
{
closed = 1;
nodes = (
"259 80 OFFCURVE",
"229 120 OFFCURVE",
"229 200 CURVE SMOOTH",
"229 305 OFFCURVE",
"308 385 OFFCURVE",
"457 421 CURVE",
"457 365 LINE SMOOTH",
"457 175 OFFCURVE",
"411 80 OFFCURVE",
"318 80 CURVE SMOOTH"
);
},
{
closed = 1;
nodes = (
"908 80 OFFCURVE",
"729 199 OFFCURVE",
"729 407 CURVE SMOOTH",
"729 437 LINE",
"1034 417 OFFCURVE",
"1241 315 OFFCURVE",
"1241 174 CURVE SMOOTH",
"1241 115 OFFCURVE",
"1172 80 OFFCURVE",
"1080 80 CURVE SMOOTH"
);
}
);
width = 2275;
}
);
note = uni1B13;
unicode = 1B13;
},
{
glyphname = uni1B14;
lastChange = "2016-11-10 14:12:45 +0000";
layers = (
{
layerId = "BB284FF0-04DD-4FE7-B9B3-843DE156013A";
paths = (
{
closed = 1;
nodes = (
"2366 -180 LINE",
"2339 41 OFFCURVE",
"2191 156 OFFCURVE",
"1954 160 CURVE SMOOTH",
"1717 163 OFFCURVE",
"1620 241 OFFCURVE",
"1620 416 CURVE SMOOTH",
"1620 615 LINE SMOOTH",
"1620 942 OFFCURVE",
"1454 1118 OFFCURVE",
"1138 1118 CURVE SMOOTH",
"834 1118 OFFCURVE",
"649 946 OFFCURVE",
"649 654 CURVE SMOOTH",
"649 610 LINE",
"601 610 OFFCURVE",
"564 608 OFFCURVE",
"537 603 CURVE",
"537 653 LINE SMOOTH",
"537 834 OFFCURVE",
"518 956 OFFCURVE",
"481 1021 CURVE SMOOTH",
"444 1086 OFFCURVE",
"390 1118 OFFCURVE",
"320 1118 CURVE SMOOTH",
"159 1118 OFFCURVE",
"80 993 OFFCURVE",
"80 686 CURVE",
"116 680 LINE",
"126 680 OFFCURVE",
"141 683 OFFCURVE",
"160 688 CURVE",
"162 795 OFFCURVE",
"175 866 OFFCURVE",
"200 899 CURVE SMOOTH",
"224 932 OFFCURVE",
"260 948 OFFCURVE",
"309 948 CURVE SMOOTH",
"412 948 OFFCURVE",
"457 853 OFFCURVE",
"457 660 CURVE SMOOTH",
"457 586 LINE",
"258 529 OFFCURVE",
"139 381 OFFCURVE",
"139 189 CURVE SMOOTH",
"139 72 OFFCURVE",
"211 -20 OFFCURVE",
"314 -20 CURVE SMOOTH",
"462 -20 OFFCURVE",
"537 100 OFFCURVE",
"537 372 CURVE SMOOTH",
"537 435 LINE",
"564 438 OFFCURVE",
"601 439 OFFCURVE",
"649 439 CURVE",
"649 413 LINE SMOOTH",
"649 158 OFFCURVE",
"865 -20 OFFCURVE",
"1069 -20 CURVE SMOOTH",
"1236 -20 OFFCURVE",
"1341 66 OFFCURVE",
"1341 203 CURVE SMOOTH",
"1341 444 OFFCURVE",
"1113 588 OFFCURVE",
"729 608 CURVE",
"729 637 LINE SMOOTH",
"729 849 OFFCURVE",
"849 948 OFFCURVE",
"1141 948 CURVE SMOOTH",
"1413 948 OFFCURVE",
"1540 849 OFFCURVE",
"1540 612 CURVE SMOOTH",
"1540 405 LINE SMOOTH",
"1540 124 OFFCURVE",
"1670 -10 OFFCURVE",
"1934 -10 CURVE SMOOTH",
"2194 -10 OFFCURVE",
"2284 -75 OFFCURVE",
"2300 -200 CURVE"
);
},
{
closed = 1;
nodes = (
"259 80 OFFCURVE",
"229 120 OFFCURVE",
"229 200 CURVE SMOOTH",
"229 305 OFFCURVE",
"308 385 OFFCURVE",
"457 421 CURVE",
"457 365 LINE SMOOTH",
"457 175 OFFCURVE",
"411 80 OFFCURVE",
"318 80 CURVE SMOOTH"
);
},
{
closed = 1;
nodes = (
"908 80 OFFCURVE",
"729 199 OFFCURVE",
"729 407 CURVE SMOOTH",
"729 437 LINE",
"1034 417 OFFCURVE",
"1241 315 OFFCURVE",
"1241 174 CURVE SMOOTH",
"1241 115 OFFCURVE",
"1172 80 OFFCURVE",
"1080 80 CURVE SMOOTH"
);
}
);
width = 2316;
}
);
note = uni1B14;
unicode = 1B14;
},
{
glyphname = uni1B15;
lastChange = "2016-11-10 14:12:45 +0000";
layers = (
{
layerId = "BB284FF0-04DD-4FE7-B9B3-843DE156013A";
paths = (
{
closed = 1;
nodes = (
"740 0 LINE",
"740 616 LINE SMOOTH",
"740 841 OFFCURVE",
"854 948 OFFCURVE",
"1130 948 CURVE SMOOTH",
"1399 948 OFFCURVE",
"1520 851 OFFCURVE",
"1520 612 CURVE SMOOTH",
"1520 0 LINE",
"1567 0 LINE SMOOTH",
"1706 0 OFFCURVE",
"1791 58 OFFCURVE",
"1826 175 CURVE SMOOTH",
"1843 233 OFFCURVE",
"1852 330 OFFCURVE",
"1852 465 CURVE SMOOTH",
"1852 930 LINE",
"1878 930 LINE SMOOTH",
"1977 930 OFFCURVE",
"2027 829 OFFCURVE",
"2027 626 CURVE SMOOTH",
"2027 0 LINE",
"2107 0 LINE",
"2107 635 LINE SMOOTH",
"2107 768 OFFCURVE",
"2098 865 OFFCURVE",
"2080 925 CURVE SMOOTH",
"2043 1044 OFFCURVE",
"1959 1100 OFFCURVE",
"1819 1100 CURVE SMOOTH",
"1772 1100 LINE",
"1772 417 LINE SMOOTH",
"1772 256 OFFCURVE",
"1719 170 OFFCURVE",
"1626 170 CURVE SMOOTH",
"1600 170 LINE",
"1600 615 LINE SMOOTH",
"1600 956 OFFCURVE",
"1430 1118 OFFCURVE",
"1129 1118 CURVE SMOOTH",
"821 1118 OFFCURVE",
"660 941 OFFCURVE",
"660 616 CURVE SMOOTH",
"660 170 LINE",
"634 170 LINE SMOOTH",
"542 170 OFFCURVE",
"488 256 OFFCURVE",
"488 417 CURVE SMOOTH",
"488 653 LINE SMOOTH",
"488 838 OFFCURVE",
"471 961 OFFCURVE",
"438 1024 CURVE SMOOTH",
"404 1087 OFFCURVE",
"353 1118 OFFCURVE",
"286 1118 CURVE SMOOTH",
"219 1118 OFFCURVE",
"168 1085 OFFCURVE",
"133 1019 CURVE SMOOTH",
"98 953 OFFCURVE",
"80 842 OFFCURVE",
"80 686 CURVE",
"116 680 LINE",
"126 680 OFFCURVE",
"141 683 OFFCURVE",
"160 688 CURVE",
"161 773 OFFCURVE",
"166 830 OFFCURVE",
"173 859 CURVE SMOOTH",
"188 917 OFFCURVE",
"222 948 OFFCURVE",
"289 948 CURVE SMOOTH",
"333 948 OFFCURVE",
"364 928 OFFCURVE",
"382 887 CURVE SMOOTH",
"399 846 OFFCURVE",
"408 770 OFFCURVE",
"408 660 CURVE SMOOTH",
"408 465 LINE SMOOTH",
"408 330 OFFCURVE",
"417 234 OFFCURVE",
"435 175 CURVE SMOOTH",
"470 57 OFFCURVE",
"556 0 OFFCURVE",
"693 0 CURVE SMOOTH"
);
}
);
width = 2237;
}
);
note = uni1B15;
unicode = 1B15;
},
{
glyphname = uni1B16;
lastChange = "2016-11-10 14:12:45 +0000";
layers = (
{
layerId = "BB284FF0-04DD-4FE7-B9B3-843DE156013A";
paths = (
{
closed = 1;
nodes = (
"1233 -20 OFFCURVE",
"1287 14 OFFCURVE",
"1328 83 CURVE SMOOTH",
"1368 152 OFFCURVE",
"1417 186 OFFCURVE",
"1475 186 CURVE SMOOTH",
"1533 186 OFFCURVE",
"1583 152 OFFCURVE",
"1624 83 CURVE SMOOTH",
"1665 14 OFFCURVE",
"1718 -20 OFFCURVE",
"1785 -20 CURVE SMOOTH",
"1874 -20 OFFCURVE",
"1938 18 OFFCURVE",
"1977 95 CURVE SMOOTH",
"2016 172 OFFCURVE",
"2035 301 OFFCURVE",
"2035 482 CURVE SMOOTH",
"2035 559 LINE SMOOTH",
"2035 742 OFFCURVE",
"1986 849 OFFCURVE",
"1882 934 CURVE",
"1904 943 OFFCURVE",
"1930 948 OFFCURVE",
"1961 948 CURVE SMOOTH",
"2106 948 OFFCURVE",
"2182 827 OFFCURVE",
"2182 626 CURVE SMOOTH",
"2182 0 LINE",
"2262 0 LINE",
"2262 635 LINE SMOOTH",
"2262 952 OFFCURVE",
"2147 1118 OFFCURVE",
"1924 1118 CURVE SMOOTH",
"1797 1118 OFFCURVE",
"1705 1055 OFFCURVE",
"1647 930 CURVE",
"1840 930 OFFCURVE",
"1955 758 OFFCURVE",
"1955 535 CURVE SMOOTH",
"1955 482 LINE SMOOTH",
"1955 243 OFFCURVE",
"1904 150 OFFCURVE",
"1765 150 CURVE SMOOTH",
"1700 150 OFFCURVE",
"1647 186 OFFCURVE",
"1608 258 CURVE SMOOTH",
"1568 329 OFFCURVE",
"1524 365 OFFCURVE",
"1475 365 CURVE SMOOTH",
"1437 365 OFFCURVE",
"1405 342 OFFCURVE",
"1380 296 CURVE SMOOTH",
"1328 203 OFFCURVE",
"1278 150 OFFCURVE",
"1186 150 CURVE SMOOTH",
"1047 150 OFFCURVE",
"995 243 OFFCURVE",
"995 482 CURVE SMOOTH",
"995 1100 LINE",
"948 1100 LINE SMOOTH",
"811 1100 OFFCURVE",
"724 1045 OFFCURVE",
"688 926 CURVE SMOOTH",
"669 867 OFFCURVE",
"660 770 OFFCURVE",
"660 635 CURVE SMOOTH",
"660 170 LINE",
"634 170 LINE SMOOTH",
"542 170 OFFCURVE",
"488 256 OFFCURVE",
"488 417 CURVE SMOOTH",
"488 653 LINE SMOOTH",
"488 838 OFFCURVE",
"471 961 OFFCURVE",
"438 1024 CURVE SMOOTH",
"404 1087 OFFCURVE",
"353 1118 OFFCURVE",
"286 1118 CURVE SMOOTH",
"219 1118 OFFCURVE",
"168 1085 OFFCURVE",
"133 1019 CURVE SMOOTH",
"98 953 OFFCURVE",
"80 842 OFFCURVE",
"80 686 CURVE",
"116 680 LINE",
"126 680 OFFCURVE",
"141 683 OFFCURVE",
"160 688 CURVE",
"161 773 OFFCURVE",
"166 830 OFFCURVE",
"173 859 CURVE SMOOTH",
"188 917 OFFCURVE",
"222 948 OFFCURVE",
"289 948 CURVE SMOOTH",
"333 948 OFFCURVE",
"364 928 OFFCURVE",
"382 887 CURVE SMOOTH",
"399 846 OFFCURVE",
"408 770 OFFCURVE",
"408 660 CURVE SMOOTH",
"408 465 LINE SMOOTH",
"408 330 OFFCURVE",
"417 234 OFFCURVE",
"435 175 CURVE SMOOTH",
"470 57 OFFCURVE",
"556 0 OFFCURVE",
"693 0 CURVE SMOOTH",
"740 0 LINE",
"740 626 LINE SMOOTH",
"740 829 OFFCURVE",
"790 930 OFFCURVE",
"889 930 CURVE SMOOTH",
"915 930 LINE",
"915 482 LINE SMOOTH",
"915 127 OFFCURVE",
"986 -20 OFFCURVE",
"1166 -20 CURVE SMOOTH"
);
}
);
width = 2392;
}
);
note = uni1B16;
unicode = 1B16;
},
{
glyphname = uni1B17;
lastChange = "2016-11-10 14:12:45 +0000";
layers = (
{
layerId = "BB284FF0-04DD-4FE7-B9B3-843DE156013A";
paths = (
{
closed = 1;
nodes = (
"740 0 LINE",
"740 616 LINE SMOOTH",
"740 845 OFFCURVE",
"803 948 OFFCURVE",
"971 948 CURVE SMOOTH",
"1086 948 OFFCURVE",
"1186 845 OFFCURVE",
"1186 733 CURVE",
"1255 733 LINE",
"1267 865 OFFCURVE",
"1357 948 OFFCURVE",
"1470 948 CURVE SMOOTH",
"1638 948 OFFCURVE",
"1700 845 OFFCURVE",
"1700 616 CURVE SMOOTH",
"1700 0 LINE",
"1780 0 LINE",
"1780 616 LINE SMOOTH",
"1780 981 OFFCURVE",
"1694 1118 OFFCURVE",
"1470 1118 CURVE SMOOTH",
"1348 1118 OFFCURVE",
"1265 1049 OFFCURVE",
"1220 912 CURVE",
"1176 1049 OFFCURVE",
"1093 1118 OFFCURVE",
"971 1118 CURVE SMOOTH",
"748 1118 OFFCURVE",
"660 981 OFFCURVE",
"660 616 CURVE SMOOTH",
"660 170 LINE",
"634 170 LINE SMOOTH",
"542 170 OFFCURVE",
"488 256 OFFCURVE",
"488 417 CURVE SMOOTH",
"488 653 LINE SMOOTH",
"488 838 OFFCURVE",
"471 961 OFFCURVE",
"438 1024 CURVE SMOOTH",
"404 1087 OFFCURVE",
"353 1118 OFFCURVE",
"286 1118 CURVE SMOOTH",
"219 1118 OFFCURVE",
"168 1085 OFFCURVE",
"133 1019 CURVE SMOOTH",
"98 953 OFFCURVE",
"80 842 OFFCURVE",
"80 686 CURVE",
"116 680 LINE",
"126 680 OFFCURVE",
"141 683 OFFCURVE",
"160 688 CURVE",
"161 773 OFFCURVE",
"166 830 OFFCURVE",
"173 859 CURVE SMOOTH",
"188 917 OFFCURVE",
"222 948 OFFCURVE",
"289 948 CURVE SMOOTH",
"333 948 OFFCURVE",
"364 928 OFFCURVE",
"382 887 CURVE SMOOTH",
"399 846 OFFCURVE",
"408 770 OFFCURVE",
"408 660 CURVE SMOOTH",
"408 465 LINE SMOOTH",
"408 330 OFFCURVE",
"417 234 OFFCURVE",
"435 175 CURVE SMOOTH",
"470 57 OFFCURVE",
"556 0 OFFCURVE",
"693 0 CURVE SMOOTH"
);
}
);
width = 1910;
}
);
note = uni1B17;
unicode = 1B17;
},
{
glyphname = uni1B18;
lastChange = "2016-11-10 14:12:45 +0000";
layers = (
{
layerId = "BB284FF0-04DD-4FE7-B9B3-843DE156013A";
paths = (
{
closed = 1;
nodes = (
"462 -20 OFFCURVE",
"537 100 OFFCURVE",
"537 372 CURVE SMOOTH",
"537 386 LINE",
"599 361 OFFCURVE",
"674 288 OFFCURVE",
"761 165 CURVE SMOOTH",
"848 42 OFFCURVE",
"937 -20 OFFCURVE",
"1026 -20 CURVE SMOOTH",
"1183 -20 OFFCURVE",
"1266 115 OFFCURVE",
"1270 420 CURVE SMOOTH",
"1270 559 LINE SMOOTH",
"1270 742 OFFCURVE",
"1221 849 OFFCURVE",
"1117 934 CURVE",
"1139 943 OFFCURVE",
"1165 948 OFFCURVE",
"1196 948 CURVE SMOOTH",
"1341 948 OFFCURVE",
"1417 827 OFFCURVE",
"1417 626 CURVE SMOOTH",
"1417 0 LINE",
"1497 0 LINE",
"1497 635 LINE SMOOTH",
"1497 952 OFFCURVE",
"1382 1118 OFFCURVE",
"1159 1118 CURVE SMOOTH",
"1032 1118 OFFCURVE",
"940 1055 OFFCURVE",
"882 930 CURVE",
"1075 930 OFFCURVE",
"1190 758 OFFCURVE",
"1190 535 CURVE SMOOTH",
"1190 450 LINE SMOOTH",
"1186 227 OFFCURVE",
"1132 150 OFFCURVE",
"1023 150 CURVE SMOOTH",
"986 150 OFFCURVE",
"935 194 OFFCURVE",
"870 282 CURVE SMOOTH",
"738 458 OFFCURVE",
"644 539 OFFCURVE",
"537 563 CURVE",
"537 653 LINE SMOOTH",
"537 834 OFFCURVE",
"518 956 OFFCURVE",
"481 1021 CURVE SMOOTH",
"444 1086 OFFCURVE",
"390 1118 OFFCURVE",
"320 1118 CURVE SMOOTH",
"159 1118 OFFCURVE",
"80 993 OFFCURVE",
"80 686 CURVE",
"116 680 LINE",
"126 680 OFFCURVE",
"141 683 OFFCURVE",
"160 688 CURVE",
"162 795 OFFCURVE",
"175 866 OFFCURVE",
"200 899 CURVE SMOOTH",
"224 932 OFFCURVE",
"260 948 OFFCURVE",
"309 948 CURVE SMOOTH",
"412 948 OFFCURVE",
"457 853 OFFCURVE",
"457 660 CURVE SMOOTH",
"457 569 LINE",
"270 558 OFFCURVE",
"139 406 OFFCURVE",
"139 189 CURVE SMOOTH",
"139 72 OFFCURVE",
"211 -20 OFFCURVE",
"314 -20 CURVE SMOOTH"
);
},
{
closed = 1;
nodes = (
"259 80 OFFCURVE",
"229 120 OFFCURVE",
"229 200 CURVE SMOOTH",
"229 329 OFFCURVE",
"305 396 OFFCURVE",
"457 399 CURVE",
"457 365 LINE SMOOTH",
"457 175 OFFCURVE",
"411 80 OFFCURVE",
"318 80 CURVE SMOOTH"
);
}
);
width = 1627;
}
);
note = uni1B18;
unicode = 1B18;
},
{
glyphname = uni1B19;
lastChange = "2016-11-10 14:12:45 +0000";
layers = (
{
layerId = "BB284FF0-04DD-4FE7-B9B3-843DE156013A";
paths = (
{
closed = 1;
nodes = (
"399 -20 OFFCURVE",
"450 16 OFFCURVE",
"485 89 CURVE SMOOTH",
"520 161 OFFCURVE",
"538 279 OFFCURVE",
"538 442 CURVE",
"502 448 LINE",
"492 448 OFFCURVE",
"477 445 OFFCURVE",
"458 440 CURVE",
"457 361 OFFCURVE",
"453 304 OFFCURVE",
"447 269 CURVE SMOOTH",
"435 198 OFFCURVE",
"401 150 OFFCURVE",
"329 150 CURVE SMOOTH",
"285 150 OFFCURVE",
"254 171 OFFCURVE",
"237 212 CURVE SMOOTH",
"219 253 OFFCURVE",
"210 328 OFFCURVE",
"210 438 CURVE SMOOTH",
"210 616 LINE SMOOTH",
"210 843 OFFCURVE",
"311 948 OFFCURVE",
"560 948 CURVE SMOOTH",
"808 948 OFFCURVE",
"910 852 OFFCURVE",
"910 612 CURVE SMOOTH",
"910 464 LINE SMOOTH",
"910 148 OFFCURVE",
"1054 -20 OFFCURVE",
"1341 -20 CURVE SMOOTH",
"1626 -20 OFFCURVE",
"1770 155 OFFCURVE",
"1770 482 CURVE SMOOTH",
"1770 930 LINE",
"1796 930 LINE SMOOTH",
"1895 930 OFFCURVE",
"1945 829 OFFCURVE",
"1945 626 CURVE SMOOTH",
"1945 0 LINE",
"2025 0 LINE",
"2025 635 LINE SMOOTH",
"2025 768 OFFCURVE",
"2016 865 OFFCURVE",
"1998 925 CURVE SMOOTH",
"1961 1044 OFFCURVE",
"1877 1100 OFFCURVE",
"1737 1100 CURVE SMOOTH",
"1690 1100 LINE",
"1690 482 LINE SMOOTH",
"1690 255 OFFCURVE",
"1589 150 OFFCURVE",
"1340 150 CURVE SMOOTH",
"1092 150 OFFCURVE",
"990 246 OFFCURVE",
"990 486 CURVE SMOOTH",
"990 615 LINE SMOOTH",
"990 950 OFFCURVE",
"846 1118 OFFCURVE",
"559 1118 CURVE SMOOTH",
"274 1118 OFFCURVE",
"130 943 OFFCURVE",
"130 616 CURVE SMOOTH",
"130 445 LINE SMOOTH",
"130 260 OFFCURVE",
"147 137 OFFCURVE",
"181 74 CURVE SMOOTH",
"214 11 OFFCURVE",
"265 -20 OFFCURVE",
"332 -20 CURVE SMOOTH"
);
}
);
width = 2155;
}
);
note = uni1B19;
unicode = 1B19;
},
{
glyphname = uni1B1A;
lastChange = "2016-11-10 14:12:45 +0000";
layers = (
{
layerId = "BB284FF0-04DD-4FE7-B9B3-843DE156013A";
paths = (
{
closed = 1;
nodes = (
"740 0 LINE",
"740 616 LINE SMOOTH",
"740 841 OFFCURVE",
"858 948 OFFCURVE",
"1153 948 CURVE SMOOTH",
"1412 948 OFFCURVE",
"1570 853 OFFCURVE",
"1570 704 CURVE SMOOTH",
"1570 560 OFFCURVE",
"1439 475 OFFCURVE",
"1218 475 CURVE SMOOTH",
"1119 475 LINE",
"1109 395 LINE",
"1201 395 LINE SMOOTH",
"1454 395 OFFCURVE",
"1590 298 OFFCURVE",
"1590 118 CURVE SMOOTH",
"1590 0 LINE",
"1670 0 LINE",
"1670 112 LINE SMOOTH",
"1670 270 OFFCURVE",
"1598 377 OFFCURVE",
"1455 434 CURVE",
"1591 487 OFFCURVE",
"1670 598 OFFCURVE",
"1670 718 CURVE SMOOTH",
"1670 973 OFFCURVE",
"1478 1118 OFFCURVE",
"1153 1118 CURVE SMOOTH",
"834 1118 OFFCURVE",
"660 943 OFFCURVE",
"660 616 CURVE SMOOTH",
"660 170 LINE",
"634 170 LINE SMOOTH",
"542 170 OFFCURVE",
"488 256 OFFCURVE",
"488 417 CURVE SMOOTH",
"488 653 LINE SMOOTH",
"488 838 OFFCURVE",
"471 961 OFFCURVE",
"438 1024 CURVE SMOOTH",
"404 1087 OFFCURVE",
"353 1118 OFFCURVE",
"286 1118 CURVE SMOOTH",
"219 1118 OFFCURVE",
"168 1085 OFFCURVE",
"133 1019 CURVE SMOOTH",
"98 953 OFFCURVE",
"80 842 OFFCURVE",
"80 686 CURVE",
"116 680 LINE",
"126 680 OFFCURVE",
"141 683 OFFCURVE",
"160 688 CURVE",
"161 773 OFFCURVE",
"166 830 OFFCURVE",
"173 859 CURVE SMOOTH",
"188 917 OFFCURVE",
"222 948 OFFCURVE",
"289 948 CURVE SMOOTH",
"333 948 OFFCURVE",
"364 928 OFFCURVE",
"382 887 CURVE SMOOTH",
"399 846 OFFCURVE",
"408 770 OFFCURVE",
"408 660 CURVE SMOOTH",
"408 465 LINE SMOOTH",
"408 330 OFFCURVE",
"417 234 OFFCURVE",
"435 175 CURVE SMOOTH",
"470 57 OFFCURVE",
"556 0 OFFCURVE",
"693 0 CURVE SMOOTH"
);
}
);
width = 1800;
}
);
note = uni1B1A;
unicode = 1B1A;
},
{
glyphname = uni1B1B;
lastChange = "2016-11-10 14:12:45 +0000";
layers = (
{
layerId = "BB284FF0-04DD-4FE7-B9B3-843DE156013A";
paths = (
{
closed = 1;
nodes = (
"1172 -1118 OFFCURVE",
"1226 -1084 OFFCURVE",
"1267 -1015 CURVE SMOOTH",
"1307 -946 OFFCURVE",
"1356 -912 OFFCURVE",
"1414 -912 CURVE SMOOTH",
"1472 -912 OFFCURVE",
"1522 -946 OFFCURVE",
"1563 -1015 CURVE SMOOTH",
"1604 -1084 OFFCURVE",
"1657 -1118 OFFCURVE",
"1724 -1118 CURVE SMOOTH",
"1951 -1118 OFFCURVE",
"2045 -961 OFFCURVE",
"2045 -616 CURVE SMOOTH",
"2045 992 LINE",
"2102 983 LINE SMOOTH",
"2161 973 OFFCURVE",
"2201 962 OFFCURVE",
"2224 950 CURVE SMOOTH",
"2269 925 OFFCURVE",
"2313 868 OFFCURVE",
"2313 744 CURVE SMOOTH",
"2313 706 LINE",
"2393 706 LINE",
"2393 753 LINE SMOOTH",
"2393 1021 OFFCURVE",
"2296 1127 OFFCURVE",
"2045 1154 CURVE",
"2045 1193 LINE SMOOTH",
"2045 1458 OFFCURVE",
"1971 1570 OFFCURVE",
"1822 1570 CURVE SMOOTH",
"1715 1570 OFFCURVE",
"1647 1487 OFFCURVE",
"1647 1376 CURVE SMOOTH",
"1647 1204 OFFCURVE",
"1766 1065 OFFCURVE",
"1965 1008 CURVE",
"1965 -616 LINE SMOOTH",
"1965 -843 OFFCURVE",
"1908 -948 OFFCURVE",
"1704 -948 CURVE SMOOTH",
"1639 -948 OFFCURVE",
"1586 -912 OFFCURVE",
"1547 -840 CURVE SMOOTH",
"1507 -769 OFFCURVE",
"1463 -733 OFFCURVE",
"1414 -733 CURVE SMOOTH",
"1376 -733 OFFCURVE",
"1344 -756 OFFCURVE",
"1319 -802 CURVE SMOOTH",
"1267 -895 OFFCURVE",
"1217 -948 OFFCURVE",
"1125 -948 CURVE SMOOTH",
"945 -948 OFFCURVE",
"841 -852 OFFCURVE",
"841 -683 CURVE SMOOTH",
"841 -543 OFFCURVE",
"910 -418 OFFCURVE",
"1191 -210 CURVE SMOOTH",
"1332 -107 OFFCURVE",
"1446 -9 OFFCURVE",
"1535 84 CURVE SMOOTH",
"1712 268 OFFCURVE",
"1793 475 OFFCURVE",
"1793 714 CURVE SMOOTH",
"1793 971 OFFCURVE",
"1674 1118 OFFCURVE",
"1470 1118 CURVE SMOOTH",
"1348 1118 OFFCURVE",
"1265 1049 OFFCURVE",
"1220 912 CURVE",
"1176 1049 OFFCURVE",
"1093 1118 OFFCURVE",
"971 1118 CURVE SMOOTH",
"748 1118 OFFCURVE",
"660 981 OFFCURVE",
"660 616 CURVE SMOOTH",
"660 170 LINE",
"634 170 LINE SMOOTH",
"542 170 OFFCURVE",
"488 256 OFFCURVE",
"488 417 CURVE SMOOTH",
"488 653 LINE SMOOTH",
"488 838 OFFCURVE",
"471 961 OFFCURVE",
"438 1024 CURVE SMOOTH",
"404 1087 OFFCURVE",
"353 1118 OFFCURVE",
"286 1118 CURVE SMOOTH",
"219 1118 OFFCURVE",
"168 1085 OFFCURVE",
"133 1019 CURVE SMOOTH",
"98 953 OFFCURVE",
"80 842 OFFCURVE",
"80 686 CURVE",
"116 680 LINE",
"126 680 OFFCURVE",
"141 683 OFFCURVE",
"160 688 CURVE",
"161 773 OFFCURVE",
"166 830 OFFCURVE",
"173 859 CURVE SMOOTH",
"188 917 OFFCURVE",
"222 948 OFFCURVE",
"289 948 CURVE SMOOTH",
"333 948 OFFCURVE",
"364 928 OFFCURVE",
"382 887 CURVE SMOOTH",
"399 846 OFFCURVE",
"408 770 OFFCURVE",
"408 660 CURVE SMOOTH",
"408 465 LINE SMOOTH",
"408 330 OFFCURVE",
"417 234 OFFCURVE",
"435 175 CURVE SMOOTH",
"470 57 OFFCURVE",
"556 0 OFFCURVE",
"693 0 CURVE SMOOTH",
"740 0 LINE",
"740 616 LINE SMOOTH",
"740 845 OFFCURVE",
"803 948 OFFCURVE",
"971 948 CURVE SMOOTH",
"1086 948 OFFCURVE",
"1186 845 OFFCURVE",
"1186 733 CURVE",
"1255 733 LINE",
"1267 865 OFFCURVE",
"1357 948 OFFCURVE",
"1470 948 CURVE SMOOTH",
"1609 948 OFFCURVE",
"1693 862 OFFCURVE",
"1693 721 CURVE SMOOTH",
"1693 497 OFFCURVE",
"1591 321 OFFCURVE",
"1217 23 CURVE SMOOTH",
"843 -275 OFFCURVE",
"741 -454 OFFCURVE",
"741 -678 CURVE SMOOTH",
"741 -945 OFFCURVE",
"881 -1118 OFFCURVE",
"1105 -1118 CURVE SMOOTH"
);
},
{
closed = 1;
nodes = (
"1813 1200 OFFCURVE",
"1737 1273 OFFCURVE",
"1737 1365 CURVE SMOOTH",
"1737 1437 OFFCURVE",
"1762 1470 OFFCURVE",
"1826 1470 CURVE SMOOTH",
"1922 1470 OFFCURVE",
"1965 1381 OFFCURVE",
"1965 1200 CURVE SMOOTH",
"1965 1167 LINE"
);
}
);
width = 2473;
}
);
note = uni1B1B;
unicode = 1B1B;
},
{
glyphname = uni1B1C;
lastChange = "2016-11-10 14:12:45 +0000";
layers = (
{
layerId = "BB284FF0-04DD-4FE7-B9B3-843DE156013A";
paths = (
{
closed = 1;
nodes = (
"2792 -20 OFFCURVE",
"2990 193 OFFCURVE",
"2990 562 CURVE SMOOTH",
"2990 883 OFFCURVE",
"2771 1118 OFFCURVE",
"2458 1118 CURVE SMOOTH",
"2169 1118 OFFCURVE",
"1952 880 OFFCURVE",
"1952 545 CURVE SMOOTH",
"1952 417 LINE SMOOTH",
"1952 256 OFFCURVE",
"1899 170 OFFCURVE",
"1806 170 CURVE SMOOTH",
"1780 170 LINE",
"1780 616 LINE SMOOTH",
"1780 981 OFFCURVE",
"1694 1118 OFFCURVE",
"1470 1118 CURVE SMOOTH",
"1348 1118 OFFCURVE",
"1265 1049 OFFCURVE",
"1220 912 CURVE",
"1176 1049 OFFCURVE",
"1093 1118 OFFCURVE",
"971 1118 CURVE SMOOTH",
"748 1118 OFFCURVE",
"660 981 OFFCURVE",
"660 616 CURVE SMOOTH",
"660 170 LINE",
"634 170 LINE SMOOTH",
"542 170 OFFCURVE",
"488 256 OFFCURVE",
"488 417 CURVE SMOOTH",
"488 653 LINE SMOOTH",
"488 838 OFFCURVE",
"471 961 OFFCURVE",
"438 1024 CURVE SMOOTH",
"404 1087 OFFCURVE",
"353 1118 OFFCURVE",
"286 1118 CURVE SMOOTH",
"219 1118 OFFCURVE",
"168 1085 OFFCURVE",
"133 1019 CURVE SMOOTH",
"98 953 OFFCURVE",
"80 842 OFFCURVE",
"80 686 CURVE",
"116 680 LINE",
"126 680 OFFCURVE",
"141 683 OFFCURVE",
"160 688 CURVE",
"161 773 OFFCURVE",
"166 830 OFFCURVE",
"173 859 CURVE SMOOTH",
"188 917 OFFCURVE",
"222 948 OFFCURVE",
"289 948 CURVE SMOOTH",
"333 948 OFFCURVE",
"364 928 OFFCURVE",
"382 887 CURVE SMOOTH",
"399 846 OFFCURVE",
"408 770 OFFCURVE",
"408 660 CURVE SMOOTH",
"408 465 LINE SMOOTH",
"408 330 OFFCURVE",
"417 234 OFFCURVE",
"435 175 CURVE SMOOTH",
"470 57 OFFCURVE",
"556 0 OFFCURVE",
"693 0 CURVE SMOOTH",
"740 0 LINE",
"740 616 LINE SMOOTH",
"740 845 OFFCURVE",
"803 948 OFFCURVE",
"971 948 CURVE SMOOTH",
"1086 948 OFFCURVE",
"1186 845 OFFCURVE",
"1186 733 CURVE",
"1255 733 LINE",
"1267 865 OFFCURVE",
"1357 948 OFFCURVE",
"1470 948 CURVE SMOOTH",
"1638 948 OFFCURVE",
"1700 845 OFFCURVE",
"1700 616 CURVE SMOOTH",
"1700 0 LINE",
"1747 0 LINE SMOOTH",
"1886 0 OFFCURVE",
"1971 58 OFFCURVE",
"2006 175 CURVE SMOOTH",
"2023 233 OFFCURVE",
"2032 330 OFFCURVE",
"2032 465 CURVE SMOOTH",
"2032 542 LINE SMOOTH",
"2032 787 OFFCURVE",
"2196 948 OFFCURVE",
"2461 948 CURVE SMOOTH",
"2721 948 OFFCURVE",
"2890 795 OFFCURVE",
"2890 554 CURVE SMOOTH",
"2890 267 OFFCURVE",
"2743 80 OFFCURVE",
"2562 80 CURVE SMOOTH",
"2517 80 OFFCURVE",
"2452 88 OFFCURVE",
"2421 103 CURVE",
"2370 23 LINE",
"2417 -6 OFFCURVE",
"2478 -20 OFFCURVE",
"2551 -20 CURVE SMOOTH"
);
}
);
width = 3090;
}
);
note = uni1B1C;
unicode = 1B1C;
},
{
glyphname = uni1B1D;
lastChange = "2016-11-10 14:12:45 +0000";
layers = (
{
layerId = "BB284FF0-04DD-4FE7-B9B3-843DE156013A";
paths = (
{
closed = 1;
nodes = (
"1352 -600 OFFCURVE",
"1495 -462 OFFCURVE",
"1524 -210 CURVE",
"1458 -190 LINE",
"1435 -345 OFFCURVE",
"1317 -430 OFFCURVE",
"1124 -430 CURVE SMOOTH",
"931 -430 OFFCURVE",
"805 -291 OFFCURVE",
"805 -84 CURVE SMOOTH",
"805 -17 LINE",
"994 8 OFFCURVE",
"1123 143 OFFCURVE",
"1123 326 CURVE SMOOTH",
"1123 439 OFFCURVE",
"1058 510 OFFCURVE",
"953 510 CURVE SMOOTH",
"824 510 OFFCURVE",
"732 355 OFFCURVE",
"725 152 CURVE",
"601 152 OFFCURVE",
"495 263 OFFCURVE",
"495 439 CURVE SMOOTH",
"495 652 LINE SMOOTH",
"495 819 OFFCURVE",
"480 939 OFFCURVE",
"449 1011 CURVE SMOOTH",
"418 1082 OFFCURVE",
"371 1118 OFFCURVE",
"309 1118 CURVE SMOOTH",
"238 1118 OFFCURVE",
"182 1088 OFFCURVE",
"141 1028 CURVE SMOOTH",
"100 967 OFFCURVE",
"80 853 OFFCURVE",
"80 686 CURVE",
"116 680 LINE",
"126 680 OFFCURVE",
"141 683 OFFCURVE",
"160 688 CURVE",
"162 800 OFFCURVE",
"174 871 OFFCURVE",
"196 902 CURVE SMOOTH",
"217 933 OFFCURVE",
"251 948 OFFCURVE",
"298 948 CURVE SMOOTH",
"338 948 OFFCURVE",
"368 926 OFFCURVE",
"387 881 CURVE SMOOTH",
"406 836 OFFCURVE",
"415 762 OFFCURVE",
"415 659 CURVE SMOOTH",
"415 410 LINE SMOOTH",
"415 143 OFFCURVE",
"544 -14 OFFCURVE",
"725 -19 CURVE",
"725 -95 LINE SMOOTH",
"725 -406 OFFCURVE",
"877 -600 OFFCURVE",
"1124 -600 CURVE SMOOTH"
);
},
{
closed = 1;
nodes = (
"810 300 OFFCURVE",
"876 410 OFFCURVE",
"949 410 CURVE SMOOTH",
"1005 410 OFFCURVE",
"1033 382 OFFCURVE",
"1033 327 CURVE SMOOTH",
"1033 227 OFFCURVE",
"952 164 OFFCURVE",
"805 152 CURVE"
);
},
{
closed = 1;
nodes = (
"2020 0 LINE",
"2020 616 LINE SMOOTH",
"2020 981 OFFCURVE",
"1934 1118 OFFCURVE",
"1710 1118 CURVE SMOOTH",
"1588 1118 OFFCURVE",
"1505 1049 OFFCURVE",
"1460 912 CURVE",
"1416 1049 OFFCURVE",
"1333 1118 OFFCURVE",
"1211 1118 CURVE SMOOTH",
"1007 1118 OFFCURVE",
"900 1001 OFFCURVE",
"875 756 CURVE",
"945 737 LINE",
"966 882 OFFCURVE",
"1026 948 OFFCURVE",
"1211 948 CURVE SMOOTH",
"1326 948 OFFCURVE",
"1426 845 OFFCURVE",
"1426 733 CURVE",
"1495 733 LINE",
"1507 865 OFFCURVE",
"1597 948 OFFCURVE",
"1710 948 CURVE SMOOTH",
"1878 948 OFFCURVE",
"1940 845 OFFCURVE",
"1940 616 CURVE SMOOTH",
"1940 0 LINE"
);
}
);
width = 2150;
}
);
note = uni1B1D;
unicode = 1B1D;
},
{
glyphname = uni1B1E;
lastChange = "2016-11-10 14:12:45 +0000";
layers = (
{
layerId = "BB284FF0-04DD-4FE7-B9B3-843DE156013A";
paths = (
{
closed = 1;
nodes = (
"1042 -140 OFFCURVE",
"1185 -2 OFFCURVE",
"1214 250 CURVE",
"1148 270 LINE",
"1125 115 OFFCURVE",
"1007 30 OFFCURVE",
"814 30 CURVE SMOOTH",
"621 30 OFFCURVE",
"495 169 OFFCURVE",
"495 376 CURVE SMOOTH",
"495 652 LINE SMOOTH",
"495 819 OFFCURVE",
"480 939 OFFCURVE",
"449 1011 CURVE SMOOTH",
"418 1082 OFFCURVE",
"371 1118 OFFCURVE",
"309 1118 CURVE SMOOTH",
"238 1118 OFFCURVE",
"182 1088 OFFCURVE",
"141 1028 CURVE SMOOTH",
"100 967 OFFCURVE",
"80 853 OFFCURVE",
"80 686 CURVE",
"116 680 LINE",
"126 680 OFFCURVE",
"141 683 OFFCURVE",
"160 688 CURVE",
"162 800 OFFCURVE",
"174 871 OFFCURVE",
"196 902 CURVE SMOOTH",
"217 933 OFFCURVE",
"251 948 OFFCURVE",
"298 948 CURVE SMOOTH",
"338 948 OFFCURVE",
"368 926 OFFCURVE",
"387 881 CURVE SMOOTH",
"406 836 OFFCURVE",
"415 762 OFFCURVE",
"415 659 CURVE SMOOTH",
"415 365 LINE SMOOTH",
"415 54 OFFCURVE",
"567 -140 OFFCURVE",
"814 -140 CURVE SMOOTH"
);
},
{
closed = 1;
nodes = (
"1940 0 LINE",
"1940 616 LINE SMOOTH",
"1940 981 OFFCURVE",
"1854 1118 OFFCURVE",
"1630 1118 CURVE SMOOTH",
"1508 1118 OFFCURVE",
"1425 1049 OFFCURVE",
"1380 912 CURVE",
"1336 1049 OFFCURVE",
"1253 1118 OFFCURVE",
"1131 1118 CURVE SMOOTH",
"927 1118 OFFCURVE",
"820 1001 OFFCURVE",
"795 756 CURVE",
"865 737 LINE",
"886 882 OFFCURVE",
"946 948 OFFCURVE",
"1131 948 CURVE SMOOTH",
"1246 948 OFFCURVE",
"1346 845 OFFCURVE",
"1346 733 CURVE",
"1415 733 LINE",
"1427 865 OFFCURVE",
"1517 948 OFFCURVE",
"1630 948 CURVE SMOOTH",
"1798 948 OFFCURVE",
"1860 845 OFFCURVE",
"1860 616 CURVE SMOOTH",
"1860 0 LINE"
);
}
);
width = 2070;
}
);
note = uni1B1E;
unicode = 1B1E;
},
{
glyphname = uni1B1F;
lastChange = "2016-11-10 14:12:45 +0000";
layers = (
{
layerId = "BB284FF0-04DD-4FE7-B9B3-843DE156013A";
paths = (
{
closed = 1;
nodes = (
"726 -20 OFFCURVE",
"780 14 OFFCURVE",
"821 83 CURVE SMOOTH",
"861 152 OFFCURVE",
"910 186 OFFCURVE",
"968 186 CURVE SMOOTH",
"1025 186 OFFCURVE",
"1075 152 OFFCURVE",
"1116 83 CURVE SMOOTH",
"1157 14 OFFCURVE",
"1211 -20 OFFCURVE",
"1278 -20 CURVE SMOOTH",
"1367 -20 OFFCURVE",
"1431 18 OFFCURVE",
"1470 95 CURVE SMOOTH",
"1509 172 OFFCURVE",
"1528 301 OFFCURVE",
"1528 482 CURVE SMOOTH",
"1528 930 LINE",
"1554 930 LINE SMOOTH",
"1653 930 OFFCURVE",
"1703 829 OFFCURVE",
"1703 626 CURVE SMOOTH",
"1703 0 LINE",
"1783 0 LINE",
"1783 635 LINE SMOOTH",
"1783 768 OFFCURVE",
"1774 865 OFFCURVE",
"1756 925 CURVE SMOOTH",
"1719 1044 OFFCURVE",
"1635 1100 OFFCURVE",
"1495 1100 CURVE SMOOTH",
"1448 1100 LINE",
"1448 482 LINE SMOOTH",
"1448 243 OFFCURVE",
"1397 150 OFFCURVE",
"1258 150 CURVE SMOOTH",
"1193 150 OFFCURVE",
"1140 186 OFFCURVE",
"1101 258 CURVE SMOOTH",
"1061 329 OFFCURVE",
"1017 365 OFFCURVE",
"968 365 CURVE SMOOTH",
"930 365 OFFCURVE",
"898 342 OFFCURVE",
"873 296 CURVE SMOOTH",
"821 203 OFFCURVE",
"771 150 OFFCURVE",
"679 150 CURVE SMOOTH",
"540 150 OFFCURVE",
"488 243 OFFCURVE",
"488 482 CURVE SMOOTH",
"488 653 LINE SMOOTH",
"488 838 OFFCURVE",
"471 961 OFFCURVE",
"438 1024 CURVE SMOOTH",
"404 1087 OFFCURVE",
"353 1118 OFFCURVE",
"286 1118 CURVE SMOOTH",
"219 1118 OFFCURVE",
"168 1085 OFFCURVE",
"133 1019 CURVE SMOOTH",
"98 953 OFFCURVE",
"80 842 OFFCURVE",
"80 686 CURVE",
"116 680 LINE",
"126 680 OFFCURVE",
"141 683 OFFCURVE",
"160 688 CURVE",
"161 773 OFFCURVE",
"166 830 OFFCURVE",
"173 859 CURVE SMOOTH",
"188 917 OFFCURVE",
"222 948 OFFCURVE",
"289 948 CURVE SMOOTH",
"333 948 OFFCURVE",
"364 928 OFFCURVE",
"382 887 CURVE SMOOTH",
"399 846 OFFCURVE",
"408 770 OFFCURVE",
"408 660 CURVE SMOOTH",
"408 482 LINE SMOOTH",
"408 127 OFFCURVE",
"479 -20 OFFCURVE",
"659 -20 CURVE SMOOTH"
);
}
);
width = 1913;
}
);
note = uni1B1F;
unicode = 1B1F;
},
{
glyphname = uni1B20;
lastChange = "2016-11-10 14:12:45 +0000";
layers = (
{
layerId = "BB284FF0-04DD-4FE7-B9B3-843DE156013A";
paths = (
{
closed = 1;
nodes = (
"726 -20 OFFCURVE",
"780 14 OFFCURVE",
"821 83 CURVE SMOOTH",
"861 152 OFFCURVE",
"910 186 OFFCURVE",
"968 186 CURVE SMOOTH",
"1025 186 OFFCURVE",
"1075 152 OFFCURVE",
"1116 83 CURVE SMOOTH",
"1157 14 OFFCURVE",
"1211 -20 OFFCURVE",
"1278 -20 CURVE SMOOTH",
"1367 -20 OFFCURVE",
"1431 18 OFFCURVE",
"1470 95 CURVE SMOOTH",
"1509 172 OFFCURVE",
"1528 301 OFFCURVE",
"1528 482 CURVE SMOOTH",
"1528 1100 LINE",
"1448 1100 LINE",
"1448 482 LINE SMOOTH",
"1448 243 OFFCURVE",
"1397 150 OFFCURVE",
"1258 150 CURVE SMOOTH",
"1193 150 OFFCURVE",
"1140 186 OFFCURVE",
"1101 258 CURVE SMOOTH",
"1061 329 OFFCURVE",
"1017 365 OFFCURVE",
"968 365 CURVE SMOOTH",
"930 365 OFFCURVE",
"898 342 OFFCURVE",
"873 296 CURVE SMOOTH",
"821 203 OFFCURVE",
"771 150 OFFCURVE",
"679 150 CURVE SMOOTH",
"540 150 OFFCURVE",
"488 243 OFFCURVE",
"488 482 CURVE SMOOTH",
"488 653 LINE SMOOTH",
"488 838 OFFCURVE",
"471 961 OFFCURVE",
"438 1024 CURVE SMOOTH",
"404 1087 OFFCURVE",
"353 1118 OFFCURVE",
"286 1118 CURVE SMOOTH",
"219 1118 OFFCURVE",
"168 1085 OFFCURVE",
"133 1019 CURVE SMOOTH",
"98 953 OFFCURVE",
"80 842 OFFCURVE",
"80 686 CURVE",
"116 680 LINE",
"126 680 OFFCURVE",
"141 683 OFFCURVE",
"160 688 CURVE",
"161 773 OFFCURVE",
"166 830 OFFCURVE",
"173 859 CURVE SMOOTH",
"188 917 OFFCURVE",
"222 948 OFFCURVE",
"289 948 CURVE SMOOTH",
"333 948 OFFCURVE",
"364 928 OFFCURVE",
"382 887 CURVE SMOOTH",
"399 846 OFFCURVE",
"408 770 OFFCURVE",
"408 660 CURVE SMOOTH",
"408 482 LINE SMOOTH",
"408 127 OFFCURVE",
"479 -20 OFFCURVE",
"659 -20 CURVE SMOOTH"
);
}
);
width = 1658;
}
);
note = uni1B20;
unicode = 1B20;
},
{
glyphname = uni1B21;
lastChange = "2016-11-10 14:12:45 +0000";
layers = (
{
layerId = "BB284FF0-04DD-4FE7-B9B3-843DE156013A";
paths = (
{
closed = 1;
nodes = (
"2053 -20 OFFCURVE",
"2116 73 OFFCURVE",
"2116 221 CURVE SMOOTH",
"2116 930 LINE",
"2142 930 LINE SMOOTH",
"2241 930 OFFCURVE",
"2291 829 OFFCURVE",
"2291 626 CURVE SMOOTH",
"2291 0 LINE",
"2371 0 LINE",
"2371 635 LINE SMOOTH",
"2371 768 OFFCURVE",
"2362 865 OFFCURVE",
"2344 925 CURVE SMOOTH",
"2307 1044 OFFCURVE",
"2223 1100 OFFCURVE",
"2083 1100 CURVE SMOOTH",
"2036 1100 LINE",
"2036 283 LINE SMOOTH",
"2036 196 OFFCURVE",
"2006 130 OFFCURVE",
"1955 130 CURVE SMOOTH",
"1912 130 OFFCURVE",
"1884 147 OFFCURVE",
"1869 181 CURVE SMOOTH",
"1854 214 OFFCURVE",
"1846 276 OFFCURVE",
"1846 365 CURVE SMOOTH",
"1846 664 LINE SMOOTH",
"1846 956 OFFCURVE",
"1746 1118 OFFCURVE",
"1554 1118 CURVE SMOOTH",
"1461 1118 OFFCURVE",
"1386 1067 OFFCURVE",
"1331 964 CURVE SMOOTH",
"1275 861 OFFCURVE",
"1215 810 OFFCURVE",
"1150 810 CURVE SMOOTH",
"1065 810 OFFCURVE",
"1008 896 OFFCURVE",
"961 979 CURVE SMOOTH",
"914 1062 OFFCURVE",
"838 1118 OFFCURVE",
"747 1118 CURVE SMOOTH",
"698 1118 OFFCURVE",
"658 1110 OFFCURVE",
"627 1095 CURVE SMOOTH",
"564 1064 OFFCURVE",
"530 1023 OFFCURVE",
"495 891 CURVE SMOOTH",
"473 807 LINE SMOOTH",
"449 715 OFFCURVE",
"400 663 OFFCURVE",
"308 663 CURVE SMOOTH",
"232 663 OFFCURVE",
"194 693 OFFCURVE",
"176 751 CURVE SMOOTH",
"167 780 OFFCURVE",
"161 837 OFFCURVE",
"160 923 CURVE",
"141 928 OFFCURVE",
"126 931 OFFCURVE",
"116 931 CURVE",
"80 925 LINE",
"80 612 OFFCURVE",
"153 493 OFFCURVE",
"306 493 CURVE SMOOTH",
"413 493 OFFCURVE",
"471 538 OFFCURVE",
"527 718 CURVE SMOOTH",
"583 898 OFFCURVE",
"646 948 OFFCURVE",
"755 948 CURVE SMOOTH",
"843 948 OFFCURVE",
"919 894 OFFCURVE",
"968 811 CURVE SMOOTH",
"1017 727 OFFCURVE",
"1072 640 OFFCURVE",
"1151 640 CURVE SMOOTH",
"1228 640 OFFCURVE",
"1285 726 OFFCURVE",
"1334 810 CURVE SMOOTH",
"1383 894 OFFCURVE",
"1458 948 OFFCURVE",
"1546 948 CURVE SMOOTH",
"1693 948 OFFCURVE",
"1766 852 OFFCURVE",
"1766 661 CURVE SMOOTH",
"1766 372 LINE SMOOTH",
"1766 221 OFFCURVE",
"1781 118 OFFCURVE",
"1812 63 CURVE SMOOTH",
"1842 8 OFFCURVE",
"1889 -20 OFFCURVE",
"1952 -20 CURVE SMOOTH"
);
}
);
width = 2501;
}
);
note = uni1B21;
unicode = 1B21;
},
{
glyphname = uni1B22;
lastChange = "2016-11-10 14:12:45 +0000";
layers = (
{
layerId = "BB284FF0-04DD-4FE7-B9B3-843DE156013A";
paths = (
{
closed = 1;
nodes = (
"1149 -20 OFFCURVE",
"1354 141 OFFCURVE",
"1354 365 CURVE SMOOTH",
"1354 434 OFFCURVE",
"1342 489 OFFCURVE",
"1317 530 CURVE SMOOTH",
"1267 612 OFFCURVE",
"1197 635 OFFCURVE",
"1037 660 CURVE SMOOTH",
"957 672 OFFCURVE",
"917 705 OFFCURVE",
"917 759 CURVE SMOOTH",
"917 885 OFFCURVE",
"1043 948 OFFCURVE",
"1296 948 CURVE SMOOTH",
"1600 948 OFFCURVE",
"1730 836 OFFCURVE",
"1730 616 CURVE SMOOTH",
"1730 372 LINE SMOOTH",
"1730 221 OFFCURVE",
"1745 118 OFFCURVE",
"1776 63 CURVE SMOOTH",
"1806 8 OFFCURVE",
"1853 -20 OFFCURVE",
"1916 -20 CURVE SMOOTH",
"2017 -20 OFFCURVE",
"2080 73 OFFCURVE",
"2080 221 CURVE SMOOTH",
"2080 930 LINE",
"2106 930 LINE SMOOTH",
"2205 930 OFFCURVE",
"2255 829 OFFCURVE",
"2255 626 CURVE SMOOTH",
"2255 0 LINE",
"2335 0 LINE",
"2335 635 LINE SMOOTH",
"2335 768 OFFCURVE",
"2326 865 OFFCURVE",
"2308 925 CURVE SMOOTH",
"2271 1044 OFFCURVE",
"2187 1100 OFFCURVE",
"2047 1100 CURVE SMOOTH",
"2000 1100 LINE",
"2000 283 LINE SMOOTH",
"2000 196 OFFCURVE",
"1970 130 OFFCURVE",
"1919 130 CURVE SMOOTH",
"1876 130 OFFCURVE",
"1848 147 OFFCURVE",
"1833 181 CURVE SMOOTH",
"1818 214 OFFCURVE",
"1810 276 OFFCURVE",
"1810 365 CURVE SMOOTH",
"1810 616 LINE SMOOTH",
"1810 936 OFFCURVE",
"1623 1118 OFFCURVE",
"1296 1118 CURVE SMOOTH",
"1009 1118 OFFCURVE",
"817 966 OFFCURVE",
"817 765 CURVE SMOOTH",
"817 710 OFFCURVE",
"826 663 OFFCURVE",
"845 622 CURVE SMOOTH",
"881 541 OFFCURVE",
"955 509 OFFCURVE",
"1082 494 CURVE SMOOTH",
"1209 478 OFFCURVE",
"1254 442 OFFCURVE",
"1254 366 CURVE SMOOTH",
"1254 229 OFFCURVE",
"1101 150 OFFCURVE",
"857 150 CURVE SMOOTH",
"617 150 OFFCURVE",
"495 240 OFFCURVE",
"495 439 CURVE SMOOTH",
"495 652 LINE SMOOTH",
"495 819 OFFCURVE",
"480 939 OFFCURVE",
"449 1011 CURVE SMOOTH",
"418 1082 OFFCURVE",
"371 1118 OFFCURVE",
"309 1118 CURVE SMOOTH",
"238 1118 OFFCURVE",
"182 1088 OFFCURVE",
"141 1028 CURVE SMOOTH",
"100 967 OFFCURVE",
"80 853 OFFCURVE",
"80 686 CURVE",
"116 680 LINE",
"126 680 OFFCURVE",
"141 683 OFFCURVE",
"160 688 CURVE",
"162 800 OFFCURVE",
"174 871 OFFCURVE",
"196 902 CURVE SMOOTH",
"217 933 OFFCURVE",
"251 948 OFFCURVE",
"298 948 CURVE SMOOTH",
"338 948 OFFCURVE",
"368 926 OFFCURVE",
"387 881 CURVE SMOOTH",
"406 836 OFFCURVE",
"415 762 OFFCURVE",
"415 659 CURVE SMOOTH",
"415 410 LINE SMOOTH",
"415 117 OFFCURVE",
"549 -20 OFFCURVE",
"857 -20 CURVE SMOOTH"
);
}
);
width = 2465;
}
);
note = uni1B22;
unicode = 1B22;
},
{
glyphname = uni1B23;
lastChange = "2016-11-10 14:12:45 +0000";
layers = (
{
layerId = "BB284FF0-04DD-4FE7-B9B3-843DE156013A";
paths = (
{
closed = 1;
nodes = (
"1202 -92 LINE",
"1132 79 LINE",
"1223 162 OFFCURVE",
"1268 296 OFFCURVE",
"1268 482 CURVE SMOOTH",
"1268 559 LINE SMOOTH",
"1268 742 OFFCURVE",
"1219 849 OFFCURVE",
"1115 934 CURVE",
"1137 943 OFFCURVE",
"1163 948 OFFCURVE",
"1194 948 CURVE SMOOTH",
"1339 948 OFFCURVE",
"1415 827 OFFCURVE",
"1415 626 CURVE SMOOTH",
"1415 0 LINE",
"1495 0 LINE",
"1495 635 LINE SMOOTH",
"1495 952 OFFCURVE",
"1380 1118 OFFCURVE",
"1157 1118 CURVE SMOOTH",
"1030 1118 OFFCURVE",
"938 1055 OFFCURVE",
"880 930 CURVE",
"1073 930 OFFCURVE",
"1188 758 OFFCURVE",
"1188 535 CURVE SMOOTH",
"1188 482 LINE SMOOTH",
"1188 352 OFFCURVE",
"1152 261 OFFCURVE",
"1080 209 CURVE",
"1010 382 LINE SMOOTH",
"963 501 OFFCURVE",
"919 586 OFFCURVE",
"879 637 CURVE SMOOTH",
"839 688 OFFCURVE",
"799 713 OFFCURVE",
"760 713 CURVE SMOOTH",
"672 713 OFFCURVE",
"620 577 OFFCURVE",
"620 434 CURVE",
"686 429 LINE",
"689 497 OFFCURVE",
"720 542 OFFCURVE",
"775 542 CURVE SMOOTH",
"806 542 OFFCURVE",
"836 523 OFFCURVE",
"864 486 CURVE SMOOTH",
"892 448 OFFCURVE",
"924 384 OFFCURVE",
"960 293 CURVE SMOOTH",
"1008 173 LINE",
"965 158 OFFCURVE",
"908 150 OFFCURVE",
"838 150 CURVE SMOOTH",
"590 150 OFFCURVE",
"488 246 OFFCURVE",
"488 486 CURVE SMOOTH",
"488 653 LINE SMOOTH",
"488 838 OFFCURVE",
"471 961 OFFCURVE",
"438 1024 CURVE SMOOTH",
"404 1087 OFFCURVE",
"353 1118 OFFCURVE",
"286 1118 CURVE SMOOTH",
"219 1118 OFFCURVE",
"168 1085 OFFCURVE",
"133 1019 CURVE SMOOTH",
"98 953 OFFCURVE",
"80 842 OFFCURVE",
"80 686 CURVE",
"116 680 LINE",
"126 680 OFFCURVE",
"141 683 OFFCURVE",
"160 688 CURVE",
"161 773 OFFCURVE",
"166 830 OFFCURVE",
"173 859 CURVE SMOOTH",
"188 917 OFFCURVE",
"222 948 OFFCURVE",
"289 948 CURVE SMOOTH",
"333 948 OFFCURVE",
"364 928 OFFCURVE",
"382 887 CURVE SMOOTH",
"399 846 OFFCURVE",
"408 770 OFFCURVE",
"408 660 CURVE SMOOTH",
"408 464 LINE SMOOTH",
"408 148 OFFCURVE",
"552 -20 OFFCURVE",
"839 -20 CURVE SMOOTH",
"926 -20 OFFCURVE",
"1002 -3 OFFCURVE",
"1065 31 CURVE",
"1130 -130 LINE"
);
}
);
width = 1625;
}
);
note = uni1B23;
unicode = 1B23;
},
{
glyphname = uni1B24;
lastChange = "2016-11-10 14:12:45 +0000";
layers = (
{
layerId = "BB284FF0-04DD-4FE7-B9B3-843DE156013A";
paths = (
{
closed = 1;
nodes = (
"773 -20 OFFCURVE",
"858 25 OFFCURVE",
"946 116 CURVE SMOOTH",
"1033 206 OFFCURVE",
"1094 263 OFFCURVE",
"1128 286 CURVE",
"1147 89 OFFCURVE",
"1241 -20 OFFCURVE",
"1386 -20 CURVE SMOOTH",
"1489 -20 OFFCURVE",
"1561 72 OFFCURVE",
"1561 189 CURVE SMOOTH",
"1561 384 OFFCURVE",
"1441 510 OFFCURVE",
"1262 510 CURVE SMOOTH",
"1246 510 OFFCURVE",
"1227 508 OFFCURVE",
"1205 503 CURVE",
"1205 616 LINE SMOOTH",
"1205 841 OFFCURVE",
"1319 948 OFFCURVE",
"1595 948 CURVE SMOOTH",
"1864 948 OFFCURVE",
"1985 851 OFFCURVE",
"1985 612 CURVE SMOOTH",
"1985 0 LINE",
"2065 0 LINE",
"2065 615 LINE SMOOTH",
"2065 956 OFFCURVE",
"1895 1118 OFFCURVE",
"1594 1118 CURVE SMOOTH",
"1286 1118 OFFCURVE",
"1125 941 OFFCURVE",
"1125 616 CURVE SMOOTH",
"1125 473 LINE",
"1060 440 OFFCURVE",
"984 378 OFFCURVE",
"895 287 CURVE SMOOTH",
"806 196 OFFCURVE",
"740 150 OFFCURVE",
"696 150 CURVE SMOOTH",
"641 150 OFFCURVE",
"600 175 OFFCURVE",
"572 224 CURVE SMOOTH",
"544 273 OFFCURVE",
"530 356 OFFCURVE",
"530 475 CURVE SMOOTH",
"530 653 LINE SMOOTH",
"530 838 OFFCURVE",
"512 961 OFFCURVE",
"477 1024 CURVE SMOOTH",
"442 1087 OFFCURVE",
"389 1118 OFFCURVE",
"320 1118 CURVE SMOOTH",
"159 1118 OFFCURVE",
"80 993 OFFCURVE",
"80 686 CURVE",
"116 680 LINE",
"126 680 OFFCURVE",
"141 683 OFFCURVE",
"160 688 CURVE",
"162 795 OFFCURVE",
"175 866 OFFCURVE",
"200 899 CURVE SMOOTH",
"224 932 OFFCURVE",
"260 948 OFFCURVE",
"309 948 CURVE SMOOTH",
"358 948 OFFCURVE",
"394 926 OFFCURVE",
"417 881 CURVE SMOOTH",
"439 836 OFFCURVE",
"450 762 OFFCURVE",
"450 660 CURVE SMOOTH",
"450 445 LINE SMOOTH",
"450 135 OFFCURVE",
"530 -20 OFFCURVE",
"690 -20 CURVE SMOOTH"
);
},
{
closed = 1;
nodes = (
"1273 80 OFFCURVE",
"1209 169 OFFCURVE",
"1205 326 CURVE",
"1230 335 OFFCURVE",
"1254 339 OFFCURVE",
"1277 339 CURVE SMOOTH",
"1398 339 OFFCURVE",
"1471 279 OFFCURVE",
"1471 174 CURVE SMOOTH",
"1471 125 OFFCURVE",
"1429 80 OFFCURVE",
"1382 80 CURVE SMOOTH"
);
}
);
width = 2195;
}
);
note = uni1B24;
unicode = 1B24;
},
{
glyphname = uni1B25;
lastChange = "2016-11-10 14:12:45 +0000";
layers = (
{
layerId = "BB284FF0-04DD-4FE7-B9B3-843DE156013A";
paths = (
{
closed = 1;
nodes = (
"726 -20 OFFCURVE",
"780 14 OFFCURVE",
"821 83 CURVE SMOOTH",
"861 152 OFFCURVE",
"910 186 OFFCURVE",
"968 186 CURVE SMOOTH",
"1025 186 OFFCURVE",
"1075 152 OFFCURVE",
"1116 83 CURVE SMOOTH",
"1157 14 OFFCURVE",
"1211 -20 OFFCURVE",
"1278 -20 CURVE SMOOTH",
"1367 -20 OFFCURVE",
"1431 18 OFFCURVE",
"1470 95 CURVE SMOOTH",
"1509 172 OFFCURVE",
"1528 301 OFFCURVE",
"1528 482 CURVE SMOOTH",
"1528 559 LINE SMOOTH",
"1528 742 OFFCURVE",
"1479 849 OFFCURVE",
"1375 934 CURVE",
"1397 943 OFFCURVE",
"1423 948 OFFCURVE",
"1454 948 CURVE SMOOTH",
"1599 948 OFFCURVE",
"1675 827 OFFCURVE",
"1675 626 CURVE SMOOTH",
"1675 0 LINE",
"1755 0 LINE",
"1755 635 LINE SMOOTH",
"1755 952 OFFCURVE",
"1640 1118 OFFCURVE",
"1417 1118 CURVE SMOOTH",
"1290 1118 OFFCURVE",
"1198 1055 OFFCURVE",
"1140 930 CURVE",
"1333 930 OFFCURVE",
"1448 758 OFFCURVE",
"1448 535 CURVE SMOOTH",
"1448 482 LINE SMOOTH",
"1448 243 OFFCURVE",
"1397 150 OFFCURVE",
"1258 150 CURVE SMOOTH",
"1193 150 OFFCURVE",
"1140 186 OFFCURVE",
"1101 258 CURVE SMOOTH",
"1061 329 OFFCURVE",
"1017 365 OFFCURVE",
"968 365 CURVE SMOOTH",
"930 365 OFFCURVE",
"898 342 OFFCURVE",
"873 296 CURVE SMOOTH",
"821 203 OFFCURVE",
"771 150 OFFCURVE",
"679 150 CURVE SMOOTH",
"540 150 OFFCURVE",
"488 243 OFFCURVE",
"488 482 CURVE SMOOTH",
"488 653 LINE SMOOTH",
"488 838 OFFCURVE",
"471 961 OFFCURVE",
"438 1024 CURVE SMOOTH",
"404 1087 OFFCURVE",
"353 1118 OFFCURVE",
"286 1118 CURVE SMOOTH",
"219 1118 OFFCURVE",
"168 1085 OFFCURVE",
"133 1019 CURVE SMOOTH",
"98 953 OFFCURVE",
"80 842 OFFCURVE",
"80 686 CURVE",
"116 680 LINE",
"126 680 OFFCURVE",
"141 683 OFFCURVE",
"160 688 CURVE",
"161 773 OFFCURVE",
"166 830 OFFCURVE",
"173 859 CURVE SMOOTH",
"188 917 OFFCURVE",
"222 948 OFFCURVE",
"289 948 CURVE SMOOTH",
"333 948 OFFCURVE",
"364 928 OFFCURVE",
"382 887 CURVE SMOOTH",
"399 846 OFFCURVE",
"408 770 OFFCURVE",
"408 660 CURVE SMOOTH",
"408 482 LINE SMOOTH",
"408 127 OFFCURVE",
"479 -20 OFFCURVE",
"659 -20 CURVE SMOOTH"
);
}
);
width = 1885;
}
);
note = uni1B25;
unicode = 1B25;
},
{
glyphname = uni1B26;
lastChange = "2016-11-10 14:12:45 +0000";
layers = (
{
layerId = "BB284FF0-04DD-4FE7-B9B3-843DE156013A";
paths = (
{
closed = 1;
nodes = (
"462 -20 OFFCURVE",
"537 100 OFFCURVE",
"537 372 CURVE SMOOTH",
"537 435 LINE",
"564 438 OFFCURVE",
"601 439 OFFCURVE",
"649 439 CURVE",
"649 413 LINE SMOOTH",
"649 158 OFFCURVE",
"865 -20 OFFCURVE",
"1069 -20 CURVE SMOOTH",
"1236 -20 OFFCURVE",
"1341 66 OFFCURVE",
"1341 203 CURVE SMOOTH",
"1341 444 OFFCURVE",
"1113 588 OFFCURVE",
"729 608 CURVE",
"729 637 LINE SMOOTH",
"729 849 OFFCURVE",
"849 948 OFFCURVE",
"1141 948 CURVE SMOOTH",
"1413 948 OFFCURVE",
"1540 849 OFFCURVE",
"1540 612 CURVE SMOOTH",
"1540 0 LINE",
"1620 0 LINE",
"1620 615 LINE SMOOTH",
"1620 942 OFFCURVE",
"1454 1118 OFFCURVE",
"1138 1118 CURVE SMOOTH",
"834 1118 OFFCURVE",
"649 946 OFFCURVE",
"649 654 CURVE SMOOTH",
"649 610 LINE",
"601 610 OFFCURVE",
"564 608 OFFCURVE",
"537 603 CURVE",
"537 653 LINE SMOOTH",
"537 834 OFFCURVE",
"518 956 OFFCURVE",
"481 1021 CURVE SMOOTH",
"444 1086 OFFCURVE",
"390 1118 OFFCURVE",
"320 1118 CURVE SMOOTH",
"159 1118 OFFCURVE",
"80 993 OFFCURVE",
"80 686 CURVE",
"116 680 LINE",
"126 680 OFFCURVE",
"141 683 OFFCURVE",
"160 688 CURVE",
"162 795 OFFCURVE",
"175 866 OFFCURVE",
"200 899 CURVE SMOOTH",
"224 932 OFFCURVE",
"260 948 OFFCURVE",
"309 948 CURVE SMOOTH",
"412 948 OFFCURVE",
"457 853 OFFCURVE",
"457 660 CURVE SMOOTH",
"457 586 LINE",
"258 529 OFFCURVE",
"139 381 OFFCURVE",
"139 189 CURVE SMOOTH",
"139 72 OFFCURVE",
"211 -20 OFFCURVE",
"314 -20 CURVE SMOOTH"
);
},
{
closed = 1;
nodes = (
"259 80 OFFCURVE",
"229 120 OFFCURVE",
"229 200 CURVE SMOOTH",
"229 305 OFFCURVE",
"308 385 OFFCURVE",
"457 421 CURVE",
"457 365 LINE SMOOTH",
"457 175 OFFCURVE",
"411 80 OFFCURVE",
"318 80 CURVE SMOOTH"
);
},
{
closed = 1;
nodes = (
"908 80 OFFCURVE",
"729 199 OFFCURVE",
"729 407 CURVE SMOOTH",
"729 437 LINE",
"1034 417 OFFCURVE",
"1241 315 OFFCURVE",
"1241 174 CURVE SMOOTH",
"1241 115 OFFCURVE",
"1172 80 OFFCURVE",
"1080 80 CURVE SMOOTH"
);
}
);
width = 1750;
}
);
note = uni1B26;
unicode = 1B26;
},
{
glyphname = uni1B27;
lastChange = "2016-11-10 14:12:45 +0000";
layers = (
{
layerId = "BB284FF0-04DD-4FE7-B9B3-843DE156013A";
paths = (
{
closed = 1;
nodes = (
"1124 -20 OFFCURVE",
"1268 155 OFFCURVE",
"1268 482 CURVE SMOOTH",
"1268 930 LINE",
"1294 930 LINE SMOOTH",
"1393 930 OFFCURVE",
"1443 829 OFFCURVE",
"1443 626 CURVE SMOOTH",
"1443 0 LINE",
"1523 0 LINE",
"1523 635 LINE SMOOTH",
"1523 768 OFFCURVE",
"1514 865 OFFCURVE",
"1496 925 CURVE SMOOTH",
"1459 1044 OFFCURVE",
"1375 1100 OFFCURVE",
"1235 1100 CURVE SMOOTH",
"1188 1100 LINE",
"1188 482 LINE SMOOTH",
"1188 255 OFFCURVE",
"1087 150 OFFCURVE",
"838 150 CURVE SMOOTH",
"590 150 OFFCURVE",
"488 246 OFFCURVE",
"488 486 CURVE SMOOTH",
"488 653 LINE SMOOTH",
"488 838 OFFCURVE",
"471 961 OFFCURVE",
"438 1024 CURVE SMOOTH",
"404 1087 OFFCURVE",
"353 1118 OFFCURVE",
"286 1118 CURVE SMOOTH",
"219 1118 OFFCURVE",
"168 1085 OFFCURVE",
"133 1019 CURVE SMOOTH",
"98 953 OFFCURVE",
"80 842 OFFCURVE",
"80 686 CURVE",
"116 680 LINE",
"126 680 OFFCURVE",
"141 683 OFFCURVE",
"160 688 CURVE",
"161 773 OFFCURVE",
"166 830 OFFCURVE",
"173 859 CURVE SMOOTH",
"188 917 OFFCURVE",
"222 948 OFFCURVE",
"289 948 CURVE SMOOTH",
"333 948 OFFCURVE",
"364 928 OFFCURVE",
"382 887 CURVE SMOOTH",
"399 846 OFFCURVE",
"408 770 OFFCURVE",
"408 660 CURVE SMOOTH",
"408 464 LINE SMOOTH",
"408 148 OFFCURVE",
"552 -20 OFFCURVE",
"839 -20 CURVE SMOOTH"
);
}
);
width = 1653;
}
);
note = uni1B27;
unicode = 1B27;
},
{
glyphname = uni1B28;
lastChange = "2016-11-10 14:12:45 +0000";
layers = (
{
layerId = "BB284FF0-04DD-4FE7-B9B3-843DE156013A";
paths = (
{
closed = 1;
nodes = (
"1124 -20 OFFCURVE",
"1268 155 OFFCURVE",
"1268 482 CURVE SMOOTH",
"1268 901 LINE",
"1429 905 OFFCURVE",
"1549 1052 OFFCURVE",
"1566 1280 CURVE",
"1497 1323 LINE",
"1484 1167 OFFCURVE",
"1385 1072 OFFCURVE",
"1268 1072 CURVE",
"1261 1276 OFFCURVE",
"1168 1430 OFFCURVE",
"1040 1430 CURVE SMOOTH",
"935 1430 OFFCURVE",
"870 1359 OFFCURVE",
"870 1246 CURVE SMOOTH",
"870 1065 OFFCURVE",
"996 931 OFFCURVE",
"1188 903 CURVE",
"1188 482 LINE SMOOTH",
"1188 255 OFFCURVE",
"1087 150 OFFCURVE",
"838 150 CURVE SMOOTH",
"590 150 OFFCURVE",
"488 246 OFFCURVE",
"488 486 CURVE SMOOTH",
"488 653 LINE SMOOTH",
"488 838 OFFCURVE",
"471 961 OFFCURVE",
"438 1024 CURVE SMOOTH",
"404 1087 OFFCURVE",
"353 1118 OFFCURVE",
"286 1118 CURVE SMOOTH",
"219 1118 OFFCURVE",
"168 1085 OFFCURVE",
"133 1019 CURVE SMOOTH",
"98 953 OFFCURVE",
"80 842 OFFCURVE",
"80 686 CURVE",
"116 680 LINE",
"126 680 OFFCURVE",
"141 683 OFFCURVE",
"160 688 CURVE",
"161 773 OFFCURVE",
"166 830 OFFCURVE",
"173 859 CURVE SMOOTH",
"188 917 OFFCURVE",
"222 948 OFFCURVE",
"289 948 CURVE SMOOTH",
"333 948 OFFCURVE",
"364 928 OFFCURVE",
"382 887 CURVE SMOOTH",
"399 846 OFFCURVE",
"408 770 OFFCURVE",
"408 660 CURVE SMOOTH",
"408 464 LINE SMOOTH",
"408 148 OFFCURVE",
"552 -20 OFFCURVE",
"839 -20 CURVE SMOOTH"
);
},
{
closed = 1;
nodes = (
"1043 1084 OFFCURVE",
"960 1146 OFFCURVE",
"960 1247 CURVE SMOOTH",
"960 1302 OFFCURVE",
"988 1330 OFFCURVE",
"1044 1330 CURVE SMOOTH",
"1117 1330 OFFCURVE",
"1183 1221 OFFCURVE",
"1188 1072 CURVE"
);
}
);
width = 1566;
}
);
note = uni1B28;
unicode = 1B28;
},
{
glyphname = uni1B29;
lastChange = "2016-11-10 14:12:45 +0000";
layers = (
{
layerId = "BB284FF0-04DD-4FE7-B9B3-843DE156013A";
paths = (
{
closed = 1;
nodes = (
"740 0 LINE",
"740 616 LINE SMOOTH",
"740 845 OFFCURVE",
"803 948 OFFCURVE",
"971 948 CURVE SMOOTH",
"1086 948 OFFCURVE",
"1186 845 OFFCURVE",
"1186 733 CURVE",
"1255 733 LINE",
"1267 865 OFFCURVE",
"1357 948 OFFCURVE",
"1470 948 CURVE SMOOTH",
"1638 948 OFFCURVE",
"1700 845 OFFCURVE",
"1700 616 CURVE SMOOTH",
"1700 0 LINE",
"1747 0 LINE SMOOTH",
"1886 0 OFFCURVE",
"1971 58 OFFCURVE",
"2006 175 CURVE SMOOTH",
"2023 233 OFFCURVE",
"2032 330 OFFCURVE",
"2032 465 CURVE SMOOTH",
"2032 930 LINE",
"2058 930 LINE SMOOTH",
"2157 930 OFFCURVE",
"2207 829 OFFCURVE",
"2207 626 CURVE SMOOTH",
"2207 0 LINE",
"2287 0 LINE",
"2287 635 LINE SMOOTH",
"2287 768 OFFCURVE",
"2278 865 OFFCURVE",
"2260 925 CURVE SMOOTH",
"2223 1044 OFFCURVE",
"2139 1100 OFFCURVE",
"1999 1100 CURVE SMOOTH",
"1952 1100 LINE",
"1952 417 LINE SMOOTH",
"1952 256 OFFCURVE",
"1899 170 OFFCURVE",
"1806 170 CURVE SMOOTH",
"1780 170 LINE",
"1780 616 LINE SMOOTH",
"1780 981 OFFCURVE",
"1694 1118 OFFCURVE",
"1470 1118 CURVE SMOOTH",
"1348 1118 OFFCURVE",
"1265 1049 OFFCURVE",
"1220 912 CURVE",
"1176 1049 OFFCURVE",
"1093 1118 OFFCURVE",
"971 1118 CURVE SMOOTH",
"748 1118 OFFCURVE",
"660 981 OFFCURVE",
"660 616 CURVE SMOOTH",
"660 170 LINE",
"634 170 LINE SMOOTH",
"542 170 OFFCURVE",
"488 256 OFFCURVE",
"488 417 CURVE SMOOTH",
"488 653 LINE SMOOTH",
"488 838 OFFCURVE",
"471 961 OFFCURVE",
"438 1024 CURVE SMOOTH",
"404 1087 OFFCURVE",
"353 1118 OFFCURVE",
"286 1118 CURVE SMOOTH",
"219 1118 OFFCURVE",
"168 1085 OFFCURVE",
"133 1019 CURVE SMOOTH",
"98 953 OFFCURVE",
"80 842 OFFCURVE",
"80 686 CURVE",
"116 680 LINE",
"126 680 OFFCURVE",
"141 683 OFFCURVE",
"160 688 CURVE",
"161 773 OFFCURVE",
"166 830 OFFCURVE",
"173 859 CURVE SMOOTH",
"188 917 OFFCURVE",
"222 948 OFFCURVE",
"289 948 CURVE SMOOTH",
"333 948 OFFCURVE",
"364 928 OFFCURVE",
"382 887 CURVE SMOOTH",
"399 846 OFFCURVE",
"408 770 OFFCURVE",
"408 660 CURVE SMOOTH",
"408 465 LINE SMOOTH",
"408 330 OFFCURVE",
"417 234 OFFCURVE",
"435 175 CURVE SMOOTH",
"470 57 OFFCURVE",
"556 0 OFFCURVE",
"693 0 CURVE SMOOTH"
);
}
);
width = 2417;
}
);
note = uni1B29;
unicode = 1B29;
},
{
glyphname = uni1B2A;
lastChange = "2016-11-10 14:12:45 +0000";
layers = (
{
layerId = "BB284FF0-04DD-4FE7-B9B3-843DE156013A";
paths = (
{
closed = 1;
nodes = (
"439 -20 OFFCURVE",
"528 26 OFFCURVE",
"630 117 CURVE SMOOTH",
"731 208 OFFCURVE",
"797 264 OFFCURVE",
"828 286 CURVE",
"847 89 OFFCURVE",
"941 -20 OFFCURVE",
"1086 -20 CURVE SMOOTH",
"1189 -20 OFFCURVE",
"1261 72 OFFCURVE",
"1261 189 CURVE SMOOTH",
"1261 384 OFFCURVE",
"1141 510 OFFCURVE",
"962 510 CURVE SMOOTH",
"946 510 OFFCURVE",
"927 508 OFFCURVE",
"905 503 CURVE",
"905 616 LINE SMOOTH",
"905 841 OFFCURVE",
"1019 948 OFFCURVE",
"1295 948 CURVE SMOOTH",
"1564 948 OFFCURVE",
"1685 851 OFFCURVE",
"1685 612 CURVE SMOOTH",
"1685 0 LINE",
"1765 0 LINE",
"1765 615 LINE SMOOTH",
"1765 956 OFFCURVE",
"1595 1118 OFFCURVE",
"1294 1118 CURVE SMOOTH",
"986 1118 OFFCURVE",
"825 941 OFFCURVE",
"825 616 CURVE SMOOTH",
"825 473 LINE",
"764 440 OFFCURVE",
"688 378 OFFCURVE",
"595 287 CURVE SMOOTH",
"502 196 OFFCURVE",
"414 150 OFFCURVE",
"331 150 CURVE SMOOTH",
"252 150 OFFCURVE",
"210 192 OFFCURVE",
"210 256 CURVE SMOOTH",
"210 284 OFFCURVE",
"225 319 OFFCURVE",
"256 361 CURVE",
"194 405 LINE",
"145 346 OFFCURVE",
"120 286 OFFCURVE",
"120 225 CURVE SMOOTH",
"120 85 OFFCURVE",
"228 -20 OFFCURVE",
"364 -20 CURVE SMOOTH"
);
},
{
closed = 1;
nodes = (
"503 565 LINE",
"486 759 LINE SMOOTH",
"477 894 OFFCURVE",
"458 987 OFFCURVE",
"430 1040 CURVE SMOOTH",
"402 1092 OFFCURVE",
"362 1118 OFFCURVE",
"309 1118 CURVE SMOOTH",
"238 1118 OFFCURVE",
"182 1088 OFFCURVE",
"141 1028 CURVE SMOOTH",
"100 967 OFFCURVE",
"80 853 OFFCURVE",
"80 686 CURVE",
"116 680 LINE",
"126 680 OFFCURVE",
"141 683 OFFCURVE",
"160 688 CURVE",
"162 800 OFFCURVE",
"174 871 OFFCURVE",
"196 902 CURVE SMOOTH",
"217 933 OFFCURVE",
"251 948 OFFCURVE",
"298 948 CURVE SMOOTH",
"333 948 OFFCURVE",
"360 929 OFFCURVE",
"377 890 CURVE SMOOTH",
"394 851 OFFCURVE",
"406 774 OFFCURVE",
"415 659 CURVE SMOOTH",
"423 560 LINE"
);
},
{
closed = 1;
nodes = (
"973 80 OFFCURVE",
"909 169 OFFCURVE",
"905 326 CURVE",
"930 335 OFFCURVE",
"954 339 OFFCURVE",
"977 339 CURVE SMOOTH",
"1098 339 OFFCURVE",
"1171 279 OFFCURVE",
"1171 174 CURVE SMOOTH",
"1171 125 OFFCURVE",
"1129 80 OFFCURVE",
"1082 80 CURVE SMOOTH"
);
}
);
width = 1895;
}
);
note = uni1B2A;
unicode = 1B2A;
},
{
glyphname = uni1B2B;
lastChange = "2016-11-10 14:12:45 +0000";
layers = (
{
layerId = "BB284FF0-04DD-4FE7-B9B3-843DE156013A";
paths = (
{
closed = 1;
nodes = (
"1188 -20 OFFCURVE",
"1364 147 OFFCURVE",
"1364 482 CURVE SMOOTH",
"1364 930 LINE",
"1390 930 LINE SMOOTH",
"1489 930 OFFCURVE",
"1539 829 OFFCURVE",
"1539 626 CURVE SMOOTH",
"1539 0 LINE",
"1619 0 LINE",
"1619 635 LINE SMOOTH",
"1619 768 OFFCURVE",
"1610 865 OFFCURVE",
"1592 925 CURVE SMOOTH",
"1555 1044 OFFCURVE",
"1471 1100 OFFCURVE",
"1331 1100 CURVE SMOOTH",
"1284 1100 LINE",
"1284 482 LINE SMOOTH",
"1284 254 OFFCURVE",
"1183 150 OFFCURVE",
"832 150 CURVE SMOOTH",
"583 150 OFFCURVE",
"444 222 OFFCURVE",
"444 339 CURVE SMOOTH",
"444 450 OFFCURVE",
"584 527 OFFCURVE",
"775 527 CURVE SMOOTH",
"889 527 LINE",
"889 605 LINE",
"775 605 LINE SMOOTH",
"579 605 OFFCURVE",
"444 678 OFFCURVE",
"444 787 CURVE SMOOTH",
"444 838 OFFCURVE",
"475 877 OFFCURVE",
"538 906 CURVE SMOOTH",
"600 934 OFFCURVE",
"688 948 OFFCURVE",
"803 948 CURVE SMOOTH",
"903 948 OFFCURVE",
"981 943 OFFCURVE",
"1037 934 CURVE",
"1053 1088 LINE",
"985 1108 OFFCURVE",
"902 1118 OFFCURVE",
"803 1118 CURVE SMOOTH",
"358 1118 OFFCURVE",
"100 973 OFFCURVE",
"100 702 CURVE SMOOTH",
"100 626 OFFCURVE",
"112 549 OFFCURVE",
"137 471 CURVE",
"229 510 LINE",
"210 571 OFFCURVE",
"200 637 OFFCURVE",
"200 710 CURVE SMOOTH",
"200 831 OFFCURVE",
"276 925 OFFCURVE",
"416 980 CURVE",
"368 928 OFFCURVE",
"344 868 OFFCURVE",
"344 801 CURVE SMOOTH",
"344 690 OFFCURVE",
"402 612 OFFCURVE",
"518 567 CURVE",
"407 527 OFFCURVE",
"344 440 OFFCURVE",
"344 325 CURVE SMOOTH",
"344 112 OFFCURVE",
"527 -20 OFFCURVE",
"835 -20 CURVE SMOOTH"
);
}
);
width = 1749;
}
);
note = uni1B2B;
unicode = 1B2B;
},
{
glyphname = uni1B2C;
lastChange = "2016-11-10 14:12:45 +0000";
layers = (
{
layerId = "BB284FF0-04DD-4FE7-B9B3-843DE156013A";
paths = (
{
closed = 1;
nodes = (
"832 -20 OFFCURVE",
"932 116 OFFCURVE",
"982 388 CURVE",
"1032 116 OFFCURVE",
"1132 -20 OFFCURVE",
"1283 -20 CURVE SMOOTH",
"1455 -20 OFFCURVE",
"1549 133 OFFCURVE",
"1549 410 CURVE SMOOTH",
"1549 930 LINE",
"1595 930 LINE SMOOTH",
"1690 930 OFFCURVE",
"1754 835 OFFCURVE",
"1754 626 CURVE SMOOTH",
"1754 0 LINE",
"1834 0 LINE",
"1834 635 LINE SMOOTH",
"1834 1011 OFFCURVE",
"1736 1100 OFFCURVE",
"1536 1100 CURVE SMOOTH",
"1469 1100 LINE",
"1469 439 LINE SMOOTH",
"1469 252 OFFCURVE",
"1414 150 OFFCURVE",
"1277 150 CURVE SMOOTH",
"1196 150 OFFCURVE",
"1133 218 OFFCURVE",
"1090 353 CURVE SMOOTH",
"1046 488 OFFCURVE",
"1024 707 OFFCURVE",
"1024 1010 CURVE",
"940 1010 LINE",
"938 858 LINE SMOOTH",
"934 631 OFFCURVE",
"911 457 OFFCURVE",
"868 334 CURVE SMOOTH",
"825 211 OFFCURVE",
"765 150 OFFCURVE",
"687 150 CURVE SMOOTH",
"558 150 OFFCURVE",
"495 239 OFFCURVE",
"495 439 CURVE SMOOTH",
"495 652 LINE SMOOTH",
"495 819 OFFCURVE",
"480 939 OFFCURVE",
"449 1011 CURVE SMOOTH",
"418 1082 OFFCURVE",
"371 1118 OFFCURVE",
"309 1118 CURVE SMOOTH",
"238 1118 OFFCURVE",
"182 1088 OFFCURVE",
"141 1028 CURVE SMOOTH",
"100 967 OFFCURVE",
"80 853 OFFCURVE",
"80 686 CURVE",
"116 680 LINE",
"126 680 OFFCURVE",
"141 683 OFFCURVE",
"160 688 CURVE",
"162 800 OFFCURVE",
"174 871 OFFCURVE",
"196 902 CURVE SMOOTH",
"217 933 OFFCURVE",
"251 948 OFFCURVE",
"298 948 CURVE SMOOTH",
"338 948 OFFCURVE",
"368 926 OFFCURVE",
"387 881 CURVE SMOOTH",
"406 836 OFFCURVE",
"415 762 OFFCURVE",
"415 659 CURVE SMOOTH",
"415 410 LINE SMOOTH",
"415 134 OFFCURVE",
"508 -20 OFFCURVE",
"681 -20 CURVE SMOOTH"
);
}
);
width = 1964;
}
);
note = uni1B2C;
unicode = 1B2C;
},
{
glyphname = uni1B2D;
lastChange = "2016-11-10 14:12:45 +0000";
layers = (
{
layerId = "BB284FF0-04DD-4FE7-B9B3-843DE156013A";
paths = (
{
closed = 1;
nodes = (
"455 0 LINE SMOOTH",
"594 0 OFFCURVE",
"679 58 OFFCURVE",
"714 175 CURVE SMOOTH",
"731 233 OFFCURVE",
"740 330 OFFCURVE",
"740 465 CURVE SMOOTH",
"740 616 LINE SMOOTH",
"740 841 OFFCURVE",
"854 948 OFFCURVE",
"1130 948 CURVE SMOOTH",
"1399 948 OFFCURVE",
"1520 851 OFFCURVE",
"1520 612 CURVE SMOOTH",
"1520 0 LINE",
"1600 0 LINE",
"1600 615 LINE SMOOTH",
"1600 956 OFFCURVE",
"1430 1118 OFFCURVE",
"1129 1118 CURVE SMOOTH",
"821 1118 OFFCURVE",
"660 941 OFFCURVE",
"660 616 CURVE SMOOTH",
"660 417 LINE SMOOTH",
"660 256 OFFCURVE",
"607 170 OFFCURVE",
"514 170 CURVE SMOOTH",
"488 170 LINE",
"488 653 LINE SMOOTH",
"488 838 OFFCURVE",
"471 961 OFFCURVE",
"438 1024 CURVE SMOOTH",
"404 1087 OFFCURVE",
"353 1118 OFFCURVE",
"286 1118 CURVE SMOOTH",
"219 1118 OFFCURVE",
"168 1085 OFFCURVE",
"133 1019 CURVE SMOOTH",
"98 953 OFFCURVE",
"80 842 OFFCURVE",
"80 686 CURVE",
"116 680 LINE",
"126 680 OFFCURVE",
"141 683 OFFCURVE",
"160 688 CURVE",
"161 773 OFFCURVE",
"166 830 OFFCURVE",
"173 859 CURVE SMOOTH",
"188 917 OFFCURVE",
"222 948 OFFCURVE",
"289 948 CURVE SMOOTH",
"333 948 OFFCURVE",
"364 928 OFFCURVE",
"382 887 CURVE SMOOTH",
"399 846 OFFCURVE",
"408 770 OFFCURVE",
"408 660 CURVE SMOOTH",
"408 0 LINE"
);
}
);
width = 1730;
}
);
note = uni1B2D;
unicode = 1B2D;
},
{
glyphname = uni1B2E;
lastChange = "2016-11-10 14:12:45 +0000";
layers = (
{
layerId = "BB284FF0-04DD-4FE7-B9B3-843DE156013A";
paths = (
{
closed = 1;
nodes = (
"639 -20 OFFCURVE",
"679 7 OFFCURVE",
"704 61 CURVE SMOOTH",
"728 115 OFFCURVE",
"740 208 OFFCURVE",
"740 339 CURVE SMOOTH",
"740 616 LINE SMOOTH",
"740 709 OFFCURVE",
"748 778 OFFCURVE",
"763 823 CURVE SMOOTH",
"793 913 OFFCURVE",
"852 948 OFFCURVE",
"1000 948 CURVE SMOOTH",
"1192 948 OFFCURVE",
"1260 868 OFFCURVE",
"1260 612 CURVE SMOOTH",
"1260 464 LINE SMOOTH",
"1260 148 OFFCURVE",
"1404 -20 OFFCURVE",
"1691 -20 CURVE SMOOTH",
"1976 -20 OFFCURVE",
"2120 155 OFFCURVE",
"2120 482 CURVE SMOOTH",
"2120 930 LINE",
"2146 930 LINE SMOOTH",
"2245 930 OFFCURVE",
"2295 829 OFFCURVE",
"2295 626 CURVE SMOOTH",
"2295 0 LINE",
"2375 0 LINE",
"2375 635 LINE SMOOTH",
"2375 768 OFFCURVE",
"2366 865 OFFCURVE",
"2348 925 CURVE SMOOTH",
"2311 1044 OFFCURVE",
"2227 1100 OFFCURVE",
"2087 1100 CURVE SMOOTH",
"2040 1100 LINE",
"2040 482 LINE SMOOTH",
"2040 255 OFFCURVE",
"1939 150 OFFCURVE",
"1690 150 CURVE SMOOTH",
"1442 150 OFFCURVE",
"1340 246 OFFCURVE",
"1340 486 CURVE SMOOTH",
"1340 615 LINE SMOOTH",
"1340 980 OFFCURVE",
"1244 1118 OFFCURVE",
"999 1118 CURVE SMOOTH",
"755 1118 OFFCURVE",
"660 983 OFFCURVE",
"660 616 CURVE SMOOTH",
"660 341 LINE SMOOTH",
"660 200 OFFCURVE",
"636 130 OFFCURVE",
"587 130 CURVE SMOOTH",
"548 130 OFFCURVE",
"521 145 OFFCURVE",
"508 175 CURVE SMOOTH",
"495 205 OFFCURVE",
"488 268 OFFCURVE",
"488 365 CURVE SMOOTH",
"488 653 LINE SMOOTH",
"488 838 OFFCURVE",
"471 961 OFFCURVE",
"438 1024 CURVE SMOOTH",
"404 1087 OFFCURVE",
"353 1118 OFFCURVE",
"286 1118 CURVE SMOOTH",
"219 1118 OFFCURVE",
"168 1085 OFFCURVE",
"133 1019 CURVE SMOOTH",
"98 953 OFFCURVE",
"80 842 OFFCURVE",
"80 686 CURVE",
"116 680 LINE",
"126 680 OFFCURVE",
"141 683 OFFCURVE",
"160 688 CURVE",
"161 773 OFFCURVE",
"166 830 OFFCURVE",
"173 859 CURVE SMOOTH",
"188 917 OFFCURVE",
"222 948 OFFCURVE",
"289 948 CURVE SMOOTH",
"333 948 OFFCURVE",
"364 928 OFFCURVE",
"382 887 CURVE SMOOTH",
"399 846 OFFCURVE",
"408 770 OFFCURVE",
"408 660 CURVE SMOOTH",
"408 323 LINE SMOOTH",
"408 188 OFFCURVE",
"423 98 OFFCURVE",
"452 51 CURVE SMOOTH",
"481 4 OFFCURVE",
"525 -20 OFFCURVE",
"584 -20 CURVE SMOOTH"
);
}
);
width = 2505;
}
);
note = uni1B2E;
unicode = 1B2E;
},
{
glyphname = uni1B2F;
lastChange = "2016-11-10 14:12:45 +0000";
layers = (
{
layerId = "BB284FF0-04DD-4FE7-B9B3-843DE156013A";
paths = (
{
closed = 1;
nodes = (
"1124 -20 OFFCURVE",
"1268 155 OFFCURVE",
"1268 482 CURVE SMOOTH",
"1268 559 LINE SMOOTH",
"1268 742 OFFCURVE",
"1219 849 OFFCURVE",
"1115 934 CURVE",
"1137 943 OFFCURVE",
"1163 948 OFFCURVE",
"1194 948 CURVE SMOOTH",
"1339 948 OFFCURVE",
"1415 827 OFFCURVE",
"1415 626 CURVE SMOOTH",
"1415 0 LINE",
"1495 0 LINE",
"1495 635 LINE SMOOTH",
"1495 952 OFFCURVE",
"1380 1118 OFFCURVE",
"1157 1118 CURVE SMOOTH",
"1030 1118 OFFCURVE",
"938 1055 OFFCURVE",
"880 930 CURVE",
"1073 930 OFFCURVE",
"1188 758 OFFCURVE",
"1188 535 CURVE SMOOTH",
"1188 482 LINE SMOOTH",
"1188 255 OFFCURVE",
"1087 150 OFFCURVE",
"838 150 CURVE SMOOTH",
"590 150 OFFCURVE",
"488 246 OFFCURVE",
"488 486 CURVE SMOOTH",
"488 653 LINE SMOOTH",
"488 838 OFFCURVE",
"471 961 OFFCURVE",
"438 1024 CURVE SMOOTH",
"404 1087 OFFCURVE",
"353 1118 OFFCURVE",
"286 1118 CURVE SMOOTH",
"219 1118 OFFCURVE",
"168 1085 OFFCURVE",
"133 1019 CURVE SMOOTH",
"98 953 OFFCURVE",
"80 842 OFFCURVE",
"80 686 CURVE",
"116 680 LINE",
"126 680 OFFCURVE",
"141 683 OFFCURVE",
"160 688 CURVE",
"161 773 OFFCURVE",
"166 830 OFFCURVE",
"173 859 CURVE SMOOTH",
"188 917 OFFCURVE",
"222 948 OFFCURVE",
"289 948 CURVE SMOOTH",
"333 948 OFFCURVE",
"364 928 OFFCURVE",
"382 887 CURVE SMOOTH",
"399 846 OFFCURVE",
"408 770 OFFCURVE",
"408 660 CURVE SMOOTH",
"408 464 LINE SMOOTH",
"408 148 OFFCURVE",
"552 -20 OFFCURVE",
"839 -20 CURVE SMOOTH"
);
}
);
width = 1625;
}
);
note = uni1B2F;
unicode = 1B2F;
},
{
glyphname = uni1B30;
lastChange = "2016-11-10 14:12:45 +0000";
layers = (
{
layerId = "BB284FF0-04DD-4FE7-B9B3-843DE156013A";
paths = (
{
closed = 1;
nodes = (
"740 0 LINE",
"740 616 LINE SMOOTH",
"740 841 OFFCURVE",
"854 948 OFFCURVE",
"1130 948 CURVE SMOOTH",
"1399 948 OFFCURVE",
"1520 851 OFFCURVE",
"1520 612 CURVE SMOOTH",
"1520 0 LINE",
"1567 0 LINE SMOOTH",
"1706 0 OFFCURVE",
"1791 58 OFFCURVE",
"1826 175 CURVE SMOOTH",
"1843 233 OFFCURVE",
"1852 330 OFFCURVE",
"1852 465 CURVE SMOOTH",
"1852 930 LINE",
"1878 930 LINE SMOOTH",
"1977 930 OFFCURVE",
"2027 829 OFFCURVE",
"2027 626 CURVE SMOOTH",
"2027 0 LINE",
"2107 0 LINE",
"2107 635 LINE SMOOTH",
"2107 768 OFFCURVE",
"2098 865 OFFCURVE",
"2080 925 CURVE SMOOTH",
"2043 1044 OFFCURVE",
"1959 1100 OFFCURVE",
"1819 1100 CURVE SMOOTH",
"1772 1100 LINE",
"1772 417 LINE SMOOTH",
"1772 256 OFFCURVE",
"1719 170 OFFCURVE",
"1626 170 CURVE SMOOTH",
"1600 170 LINE",
"1600 615 LINE SMOOTH",
"1600 956 OFFCURVE",
"1430 1118 OFFCURVE",
"1129 1118 CURVE SMOOTH",
"821 1118 OFFCURVE",
"660 941 OFFCURVE",
"660 616 CURVE SMOOTH",
"660 170 LINE",
"634 170 LINE SMOOTH",
"542 170 OFFCURVE",
"488 256 OFFCURVE",
"488 417 CURVE SMOOTH",
"488 653 LINE SMOOTH",
"488 838 OFFCURVE",
"471 961 OFFCURVE",
"438 1024 CURVE SMOOTH",
"404 1087 OFFCURVE",
"353 1118 OFFCURVE",
"286 1118 CURVE SMOOTH",
"219 1118 OFFCURVE",
"168 1085 OFFCURVE",
"133 1019 CURVE SMOOTH",
"98 953 OFFCURVE",
"80 842 OFFCURVE",
"80 686 CURVE",
"116 680 LINE",
"126 680 OFFCURVE",
"141 683 OFFCURVE",
"160 688 CURVE",
"161 773 OFFCURVE",
"166 830 OFFCURVE",
"173 859 CURVE SMOOTH",
"188 917 OFFCURVE",
"222 948 OFFCURVE",
"289 948 CURVE SMOOTH",
"333 948 OFFCURVE",
"364 928 OFFCURVE",
"382 887 CURVE SMOOTH",
"399 846 OFFCURVE",
"408 770 OFFCURVE",
"408 660 CURVE SMOOTH",
"408 465 LINE SMOOTH",
"408 330 OFFCURVE",
"417 234 OFFCURVE",
"435 175 CURVE SMOOTH",
"470 57 OFFCURVE",
"556 0 OFFCURVE",
"693 0 CURVE SMOOTH"
);
},
{
closed = 1;
nodes = (
"1314 -31 LINE",
"1262 297 LINE SMOOTH",
"1241 438 OFFCURVE",
"1215 538 OFFCURVE",
"1185 595 CURVE SMOOTH",
"1155 652 OFFCURVE",
"1117 680 OFFCURVE",
"1071 680 CURVE SMOOTH",
"990 680 OFFCURVE",
"915 573 OFFCURVE",
"895 438 CURVE",
"958 418 LINE",
"973 477 OFFCURVE",
"1005 510 OFFCURVE",
"1048 510 CURVE SMOOTH",
"1085 510 OFFCURVE",
"1114 490 OFFCURVE",
"1136 449 CURVE SMOOTH",
"1157 408 OFFCURVE",
"1176 332 OFFCURVE",
"1193 222 CURVE SMOOTH",
"1235 -51 LINE"
);
}
);
width = 2237;
}
);
note = uni1B30;
unicode = 1B30;
},
{
glyphname = uni1B31;
lastChange = "2016-11-10 14:12:45 +0000";
layers = (
{
layerId = "BB284FF0-04DD-4FE7-B9B3-843DE156013A";
paths = (
{
closed = 1;
nodes = (
"1202 -92 LINE",
"1132 79 LINE",
"1223 162 OFFCURVE",
"1268 296 OFFCURVE",
"1268 482 CURVE SMOOTH",
"1268 930 LINE",
"1294 930 LINE SMOOTH",
"1393 930 OFFCURVE",
"1443 829 OFFCURVE",
"1443 626 CURVE SMOOTH",
"1443 0 LINE",
"1523 0 LINE",
"1523 635 LINE SMOOTH",
"1523 768 OFFCURVE",
"1514 865 OFFCURVE",
"1496 925 CURVE SMOOTH",
"1459 1044 OFFCURVE",
"1375 1100 OFFCURVE",
"1235 1100 CURVE SMOOTH",
"1188 1100 LINE",
"1188 482 LINE SMOOTH",
"1188 352 OFFCURVE",
"1152 261 OFFCURVE",
"1080 209 CURVE",
"1010 382 LINE SMOOTH",
"963 501 OFFCURVE",
"919 586 OFFCURVE",
"879 637 CURVE SMOOTH",
"839 688 OFFCURVE",
"799 713 OFFCURVE",
"760 713 CURVE SMOOTH",
"672 713 OFFCURVE",
"620 577 OFFCURVE",
"620 434 CURVE",
"686 429 LINE",
"689 497 OFFCURVE",
"720 542 OFFCURVE",
"775 542 CURVE SMOOTH",
"806 542 OFFCURVE",
"836 523 OFFCURVE",
"864 486 CURVE SMOOTH",
"892 448 OFFCURVE",
"924 384 OFFCURVE",
"960 293 CURVE SMOOTH",
"1008 173 LINE",
"965 158 OFFCURVE",
"908 150 OFFCURVE",
"838 150 CURVE SMOOTH",
"590 150 OFFCURVE",
"488 246 OFFCURVE",
"488 486 CURVE SMOOTH",
"488 653 LINE SMOOTH",
"488 838 OFFCURVE",
"471 961 OFFCURVE",
"438 1024 CURVE SMOOTH",
"404 1087 OFFCURVE",
"353 1118 OFFCURVE",
"286 1118 CURVE SMOOTH",
"219 1118 OFFCURVE",
"168 1085 OFFCURVE",
"133 1019 CURVE SMOOTH",
"98 953 OFFCURVE",
"80 842 OFFCURVE",
"80 686 CURVE",
"116 680 LINE",
"126 680 OFFCURVE",
"141 683 OFFCURVE",
"160 688 CURVE",
"161 773 OFFCURVE",
"166 830 OFFCURVE",
"173 859 CURVE SMOOTH",
"188 917 OFFCURVE",
"222 948 OFFCURVE",
"289 948 CURVE SMOOTH",
"333 948 OFFCURVE",
"364 928 OFFCURVE",
"382 887 CURVE SMOOTH",
"399 846 OFFCURVE",
"408 770 OFFCURVE",
"408 660 CURVE SMOOTH",
"408 464 LINE SMOOTH",
"408 148 OFFCURVE",
"552 -20 OFFCURVE",
"839 -20 CURVE SMOOTH",
"926 -20 OFFCURVE",
"1002 -3 OFFCURVE",
"1065 31 CURVE",
"1130 -130 LINE"
);
}
);
width = 1653;
}
);
note = uni1B31;
unicode = 1B31;
},
{
glyphname = uni1B32;
lastChange = "2016-11-10 14:12:45 +0000";
layers = (
{
layerId = "BB284FF0-04DD-4FE7-B9B3-843DE156013A";
paths = (
{
closed = 1;
nodes = (
"462 -20 OFFCURVE",
"537 100 OFFCURVE",
"537 372 CURVE SMOOTH",
"537 386 LINE",
"599 361 OFFCURVE",
"674 288 OFFCURVE",
"761 165 CURVE SMOOTH",
"848 42 OFFCURVE",
"937 -20 OFFCURVE",
"1026 -20 CURVE SMOOTH",
"1185 -20 OFFCURVE",
"1266 112 OFFCURVE",
"1270 427 CURVE SMOOTH",
"1270 930 LINE",
"1296 930 LINE SMOOTH",
"1395 930 OFFCURVE",
"1445 829 OFFCURVE",
"1445 626 CURVE SMOOTH",
"1445 0 LINE",
"1525 0 LINE",
"1525 635 LINE SMOOTH",
"1525 768 OFFCURVE",
"1516 865 OFFCURVE",
"1498 925 CURVE SMOOTH",
"1461 1044 OFFCURVE",
"1377 1100 OFFCURVE",
"1237 1100 CURVE SMOOTH",
"1190 1100 LINE",
"1190 475 LINE SMOOTH",
"1190 350 OFFCURVE",
"1176 264 OFFCURVE",
"1148 219 CURVE SMOOTH",
"1119 173 OFFCURVE",
"1078 150 OFFCURVE",
"1023 150 CURVE SMOOTH",
"986 150 OFFCURVE",
"935 194 OFFCURVE",
"870 282 CURVE SMOOTH",
"738 458 OFFCURVE",
"644 539 OFFCURVE",
"537 563 CURVE",
"537 653 LINE SMOOTH",
"537 834 OFFCURVE",
"518 956 OFFCURVE",
"481 1021 CURVE SMOOTH",
"444 1086 OFFCURVE",
"390 1118 OFFCURVE",
"320 1118 CURVE SMOOTH",
"159 1118 OFFCURVE",
"80 993 OFFCURVE",
"80 686 CURVE",
"116 680 LINE",
"126 680 OFFCURVE",
"141 683 OFFCURVE",
"160 688 CURVE",
"162 795 OFFCURVE",
"175 866 OFFCURVE",
"200 899 CURVE SMOOTH",
"224 932 OFFCURVE",
"260 948 OFFCURVE",
"309 948 CURVE SMOOTH",
"412 948 OFFCURVE",
"457 853 OFFCURVE",
"457 660 CURVE SMOOTH",
"457 569 LINE",
"270 558 OFFCURVE",
"139 406 OFFCURVE",
"139 189 CURVE SMOOTH",
"139 72 OFFCURVE",
"211 -20 OFFCURVE",
"314 -20 CURVE SMOOTH"
);
},
{
closed = 1;
nodes = (
"259 80 OFFCURVE",
"229 120 OFFCURVE",
"229 200 CURVE SMOOTH",
"229 329 OFFCURVE",
"305 396 OFFCURVE",
"457 399 CURVE",
"457 365 LINE SMOOTH",
"457 175 OFFCURVE",
"411 80 OFFCURVE",
"318 80 CURVE SMOOTH"
);
}
);
width = 1655;
}
);
note = uni1B32;
unicode = 1B32;
},
{
glyphname = uni1B33;
lastChange = "2016-11-10 14:12:45 +0000";
layers = (
{
layerId = "BB284FF0-04DD-4FE7-B9B3-843DE156013A";
paths = (
{
closed = 1;
nodes = (
"1124 -20 OFFCURVE",
"1268 147 OFFCURVE",
"1268 464 CURVE SMOOTH",
"1268 612 LINE SMOOTH",
"1268 867 OFFCURVE",
"1337 948 OFFCURVE",
"1528 948 CURVE SMOOTH",
"1740 948 OFFCURVE",
"1788 879 OFFCURVE",
"1788 616 CURVE SMOOTH",
"1788 323 LINE SMOOTH",
"1788 188 OFFCURVE",
"1803 98 OFFCURVE",
"1832 51 CURVE SMOOTH",
"1861 4 OFFCURVE",
"1905 -20 OFFCURVE",
"1964 -20 CURVE SMOOTH",
"2019 -20 OFFCURVE",
"2059 7 OFFCURVE",
"2084 61 CURVE SMOOTH",
"2108 115 OFFCURVE",
"2120 208 OFFCURVE",
"2120 339 CURVE SMOOTH",
"2120 930 LINE",
"2146 930 LINE SMOOTH",
"2245 930 OFFCURVE",
"2295 829 OFFCURVE",
"2295 626 CURVE SMOOTH",
"2295 0 LINE",
"2375 0 LINE",
"2375 635 LINE SMOOTH",
"2375 768 OFFCURVE",
"2366 865 OFFCURVE",
"2348 925 CURVE SMOOTH",
"2311 1044 OFFCURVE",
"2227 1100 OFFCURVE",
"2087 1100 CURVE SMOOTH",
"2040 1100 LINE",
"2040 341 LINE SMOOTH",
"2040 200 OFFCURVE",
"2016 130 OFFCURVE",
"1967 130 CURVE SMOOTH",
"1928 130 OFFCURVE",
"1901 145 OFFCURVE",
"1888 175 CURVE SMOOTH",
"1875 205 OFFCURVE",
"1868 268 OFFCURVE",
"1868 365 CURVE SMOOTH",
"1868 616 LINE SMOOTH",
"1868 980 OFFCURVE",
"1774 1118 OFFCURVE",
"1529 1118 CURVE SMOOTH",
"1285 1118 OFFCURVE",
"1188 982 OFFCURVE",
"1188 615 CURVE SMOOTH",
"1188 486 LINE SMOOTH",
"1188 245 OFFCURVE",
"1086 150 OFFCURVE",
"838 150 CURVE SMOOTH",
"589 150 OFFCURVE",
"488 254 OFFCURVE",
"488 482 CURVE SMOOTH",
"488 653 LINE SMOOTH",
"488 838 OFFCURVE",
"471 961 OFFCURVE",
"438 1024 CURVE SMOOTH",
"404 1087 OFFCURVE",
"353 1118 OFFCURVE",
"286 1118 CURVE SMOOTH",
"219 1118 OFFCURVE",
"168 1085 OFFCURVE",
"133 1019 CURVE SMOOTH",
"98 953 OFFCURVE",
"80 842 OFFCURVE",
"80 686 CURVE",
"116 680 LINE",
"126 680 OFFCURVE",
"141 683 OFFCURVE",
"160 688 CURVE",
"161 773 OFFCURVE",
"166 830 OFFCURVE",
"173 859 CURVE SMOOTH",
"188 917 OFFCURVE",
"222 948 OFFCURVE",
"289 948 CURVE SMOOTH",
"333 948 OFFCURVE",
"364 928 OFFCURVE",
"382 887 CURVE SMOOTH",
"399 846 OFFCURVE",
"408 770 OFFCURVE",
"408 660 CURVE SMOOTH",
"408 482 LINE SMOOTH",
"408 155 OFFCURVE",
"552 -20 OFFCURVE",
"837 -20 CURVE SMOOTH"
);
}
);
width = 2505;
}
);
note = uni1B33;
unicode = 1B33;
},
{
glyphname = uni1B34;
lastChange = "2016-11-10 14:12:45 +0000";
layers = (
{
layerId = "BB284FF0-04DD-4FE7-B9B3-843DE156013A";
paths = (
{
closed = 1;
nodes = (
"-634 1270 OFFCURVE",
"-577 1327 OFFCURVE",
"-577 1398 CURVE SMOOTH",
"-577 1467 OFFCURVE",
"-634 1525 OFFCURVE",
"-705 1525 CURVE SMOOTH",
"-777 1525 OFFCURVE",
"-832 1466 OFFCURVE",
"-832 1398 CURVE SMOOTH",
"-832 1329 OFFCURVE",
"-777 1270 OFFCURVE",
"-705 1270 CURVE SMOOTH"
);
},
{
closed = 1;
nodes = (
"-157 1270 OFFCURVE",
"-100 1327 OFFCURVE",
"-100 1398 CURVE SMOOTH",
"-100 1467 OFFCURVE",
"-157 1525 OFFCURVE",
"-228 1525 CURVE SMOOTH",
"-299 1525 OFFCURVE",
"-354 1466 OFFCURVE",
"-354 1398 CURVE SMOOTH",
"-354 1329 OFFCURVE",
"-299 1270 OFFCURVE",
"-228 1270 CURVE SMOOTH"
);
},
{
closed = 1;
nodes = (
"-397 1598 OFFCURVE",
"-339 1656 OFFCURVE",
"-339 1725 CURVE SMOOTH",
"-339 1796 OFFCURVE",
"-397 1853 OFFCURVE",
"-466 1853 CURVE SMOOTH",
"-538 1853 OFFCURVE",
"-593 1794 OFFCURVE",
"-593 1725 CURVE SMOOTH",
"-593 1657 OFFCURVE",
"-538 1598 OFFCURVE",
"-466 1598 CURVE SMOOTH"
);
}
);
width = 0;
}
);
note = uni1B34;
unicode = 1B34;
},
{
glyphname = uni1B35;
lastChange = "2016-11-10 14:12:45 +0000";
layers = (
{
layerId = "BB284FF0-04DD-4FE7-B9B3-843DE156013A";
paths = (
{
closed = 1;
nodes = (
"668 178 OFFCURVE",
"816 366 OFFCURVE",
"816 658 CURVE SMOOTH",
"816 925 OFFCURVE",
"648 1118 OFFCURVE",
"388 1118 CURVE SMOOTH",
"229 1118 OFFCURVE",
"79 1017 OFFCURVE",
"0 850 CURVE",
"74 804 LINE",
"127 903 OFFCURVE",
"243 958 OFFCURVE",
"391 958 CURVE SMOOTH",
"592 958 OFFCURVE",
"716 836 OFFCURVE",
"716 651 CURVE SMOOTH",
"716 448 OFFCURVE",
"617 291 OFFCURVE",
"493 291 CURVE SMOOTH",
"440 291 OFFCURVE",
"401 320 OFFCURVE",
"401 377 CURVE SMOOTH",
"401 412 OFFCURVE",
"415 443 OFFCURVE",
"444 472 CURVE",
"377 523 LINE",
"304 462 OFFCURVE",
"268 390 OFFCURVE",
"268 307 CURVE SMOOTH",
"268 234 OFFCURVE",
"350 178 OFFCURVE",
"437 178 CURVE SMOOTH"
);
}
);
width = 916;
}
);
note = uni1B35;
unicode = 1B35;
},
{
glyphname = uni1B36;
lastChange = "2016-11-10 14:12:45 +0000";
layers = (
{
layerId = "BB284FF0-04DD-4FE7-B9B3-843DE156013A";
paths = (
{
closed = 1;
nodes = (
"-777 1320 LINE",
"-865 1445 OFFCURVE",
"-877 1492 OFFCURVE",
"-877 1593 CURVE SMOOTH",
"-877 1750 OFFCURVE",
"-757 1840 OFFCURVE",
"-553 1840 CURVE SMOOTH",
"-362 1840 OFFCURVE",
"-250 1753 OFFCURVE",
"-250 1593 CURVE SMOOTH",
"-250 1494 OFFCURVE",
"-262 1447 OFFCURVE",
"-350 1320 CURVE",
"-300 1270 LINE",
"-213 1378 OFFCURVE",
"-170 1489 OFFCURVE",
"-170 1602 CURVE SMOOTH",
"-170 1850 OFFCURVE",
"-311 1990 OFFCURVE",
"-560 1990 CURVE SMOOTH",
"-815 1990 OFFCURVE",
"-957 1853 OFFCURVE",
"-957 1602 CURVE SMOOTH",
"-957 1487 OFFCURVE",
"-914 1377 OFFCURVE",
"-827 1270 CURVE"
);
}
);
width = 0;
}
);
note = uni1B36;
unicode = 1B36;
},
{
glyphname = uni1B37;
lastChange = "2016-11-10 14:12:45 +0000";
layers = (
{
layerId = "BB284FF0-04DD-4FE7-B9B3-843DE156013A";
paths = (
{
closed = 1;
nodes = (
"-777 1320 LINE",
"-865 1445 OFFCURVE",
"-877 1492 OFFCURVE",
"-877 1593 CURVE SMOOTH",
"-877 1750 OFFCURVE",
"-757 1840 OFFCURVE",
"-553 1840 CURVE SMOOTH",
"-362 1840 OFFCURVE",
"-250 1753 OFFCURVE",
"-250 1593 CURVE SMOOTH",
"-250 1494 OFFCURVE",
"-262 1447 OFFCURVE",
"-350 1320 CURVE",
"-300 1270 LINE",
"-213 1378 OFFCURVE",
"-170 1489 OFFCURVE",
"-170 1602 CURVE SMOOTH",
"-170 1850 OFFCURVE",
"-311 1990 OFFCURVE",
"-560 1990 CURVE SMOOTH",
"-815 1990 OFFCURVE",
"-957 1853 OFFCURVE",
"-957 1602 CURVE SMOOTH",
"-957 1487 OFFCURVE",
"-914 1377 OFFCURVE",
"-827 1270 CURVE"
);
},
{
closed = 1;
nodes = (
"-400 1345 LINE",
"-456 1481 OFFCURVE",
"-543 1735 OFFCURVE",
"-632 1735 CURVE SMOOTH",
"-699 1735 OFFCURVE",
"-747 1627 OFFCURVE",
"-751 1519 CURVE",
"-699 1512 LINE",
"-692 1570 OFFCURVE",
"-668 1599 OFFCURVE",
"-627 1599 CURVE SMOOTH",
"-605 1599 OFFCURVE",
"-588 1590 OFFCURVE",
"-575 1573 CURVE SMOOTH",
"-562 1556 OFFCURVE",
"-541 1505 OFFCURVE",
"-510 1420 CURVE",
"-462 1314 LINE"
);
}
);
width = 0;
}
);
note = uni1B37;
unicode = 1B37;
},
{
glyphname = uni1B38;
lastChange = "2016-11-10 14:12:45 +0000";
layers = (
{
layerId = "BB284FF0-04DD-4FE7-B9B3-843DE156013A";
paths = (
{
closed = 1;
nodes = (
"-302 -1118 OFFCURVE",
"-130 -768 OFFCURVE",
"-130 -224 CURVE SMOOTH",
"-130 30 LINE",
"-210 30 LINE",
"-210 -224 LINE SMOOTH",
"-210 -359 OFFCURVE",
"-227 -483 OFFCURVE",
"-260 -596 CURVE SMOOTH",
"-327 -821 OFFCURVE",
"-449 -958 OFFCURVE",
"-573 -958 CURVE SMOOTH",
"-651 -958 OFFCURVE",
"-690 -921 OFFCURVE",
"-690 -848 CURVE SMOOTH",
"-690 -791 OFFCURVE",
"-650 -718 OFFCURVE",
"-569 -629 CURVE SMOOTH",
"-409 -450 OFFCURVE",
"-336 -300 OFFCURVE",
"-316 -121 CURVE",
"-372 -95 LINE",
"-400 -256 OFFCURVE",
"-463 -399 OFFCURVE",
"-644 -598 CURVE SMOOTH",
"-735 -698 OFFCURVE",
"-780 -790 OFFCURVE",
"-780 -873 CURVE SMOOTH",
"-780 -1024 OFFCURVE",
"-694 -1118 OFFCURVE",
"-553 -1118 CURVE SMOOTH"
);
}
);
width = 0;
}
);
note = uni1B38;
unicode = 1B38;
},
{
glyphname = uni1B39;
lastChange = "2016-11-10 14:12:45 +0000";
layers = (
{
layerId = "BB284FF0-04DD-4FE7-B9B3-843DE156013A";
paths = (
{
closed = 1;
nodes = (
"-30 -923 OFFCURVE",
"78 -749 OFFCURVE",
"78 -569 CURVE SMOOTH",
"78 -488 OFFCURVE",
"36 -415 OFFCURVE",
"-35 -379 CURVE SMOOTH",
"-107 -343 OFFCURVE",
"-194 -306 OFFCURVE",
"-194 -226 CURVE SMOOTH",
"-194 -168 OFFCURVE",
"-174 -89 OFFCURVE",
"-135 10 CURVE",
"-204 29 LINE",
"-271 -131 OFFCURVE",
"-304 -252 OFFCURVE",
"-304 -335 CURVE SMOOTH",
"-304 -386 OFFCURVE",
"-270 -421 OFFCURVE",
"-176 -470 CURVE SMOOTH",
"-82 -519 OFFCURVE",
"-32 -574 OFFCURVE",
"-32 -646 CURVE SMOOTH",
"-32 -775 OFFCURVE",
"-133 -930 OFFCURVE",
"-313 -1073 CURVE",
"-277 -1118 LINE"
);
}
);
width = 0;
}
);
note = uni1B39;
unicode = 1B39;
},
{
glyphname = uni1B3A;
lastChange = "2016-11-10 14:12:45 +0000";
layers = (
{
layerId = "BB284FF0-04DD-4FE7-B9B3-843DE156013A";
paths = (
{
closed = 1;
nodes = (
"-243 -1080 LINE",
"-309 -921 LINE",
"-190 -834 OFFCURVE",
"-130 -695 OFFCURVE",
"-130 -506 CURVE SMOOTH",
"-130 -180 LINE",
"-210 -180 LINE",
"-210 -506 LINE SMOOTH",
"-210 -640 OFFCURVE",
"-261 -734 OFFCURVE",
"-364 -789 CURVE",
"-422 -650 LINE SMOOTH",
"-475 -522 OFFCURVE",
"-521 -435 OFFCURVE",
"-558 -388 CURVE SMOOTH",
"-596 -342 OFFCURVE",
"-634 -319 OFFCURVE",
"-672 -319 CURVE SMOOTH",
"-760 -319 OFFCURVE",
"-812 -455 OFFCURVE",
"-812 -598 CURVE",
"-746 -603 LINE",
"-743 -535 OFFCURVE",
"-712 -490 OFFCURVE",
"-657 -490 CURVE SMOOTH",
"-561 -490 OFFCURVE",
"-467 -751 OFFCURVE",
"-439 -818 CURVE",
"-488 -831 OFFCURVE",
"-545 -838 OFFCURVE",
"-610 -838 CURVE SMOOTH",
"-877 -838 OFFCURVE",
"-1010 -726 OFFCURVE",
"-1010 -502 CURVE SMOOTH",
"-1010 -180 LINE",
"-1090 -180 LINE",
"-1090 -524 LINE SMOOTH",
"-1090 -827 OFFCURVE",
"-910 -1008 OFFCURVE",
"-609 -1008 CURVE SMOOTH",
"-525 -1008 OFFCURVE",
"-448 -993 OFFCURVE",
"-379 -962 CURVE",
"-315 -1118 LINE"
);
}
);
width = 0;
}
);
note = uni1B3A;
unicode = 1B3A;
},
{
glyphname = uni1B3E;
lastChange = "2016-11-10 14:12:45 +0000";
layers = (
{
layerId = "BB284FF0-04DD-4FE7-B9B3-843DE156013A";
paths = (
{
closed = 1;
nodes = (
"620 -1079 LINE",
"611 -1047 LINE",
"588 -982 OFFCURVE",
"576 -904 OFFCURVE",
"576 -813 CURVE SMOOTH",
"576 -658 OFFCURVE",
"628 -457 OFFCURVE",
"733 -210 CURVE SMOOTH",
"838 37 OFFCURVE",
"890 284 OFFCURVE",
"890 533 CURVE SMOOTH",
"890 910 OFFCURVE",
"738 1118 OFFCURVE",
"463 1118 CURVE SMOOTH",
"211 1118 OFFCURVE",
"60 917 OFFCURVE",
"60 686 CURVE",
"96 680 LINE",
"106 680 OFFCURVE",
"121 683 OFFCURVE",
"140 688 CURVE",
"143 845 OFFCURVE",
"271 948 OFFCURVE",
"466 948 CURVE SMOOTH",
"682 948 OFFCURVE",
"790 812 OFFCURVE",
"790 540 CURVE SMOOTH",
"790 312 OFFCURVE",
"753 100 OFFCURVE",
"595 -292 CURVE SMOOTH",
"516 -488 OFFCURVE",
"476 -658 OFFCURVE",
"476 -803 CURVE SMOOTH",
"476 -888 OFFCURVE",
"513 -1063 OFFCURVE",
"553 -1118 CURVE"
);
}
);
width = 990;
}
);
note = uni1B3E;
unicode = 1B3E;
},
{
glyphname = uni1B3F;
lastChange = "2016-11-10 14:12:45 +0000";
layers = (
{
layerId = "BB284FF0-04DD-4FE7-B9B3-843DE156013A";
paths = (
{
closed = 1;
nodes = (
"620 -1079 LINE",
"611 -1047 LINE",
"588 -982 OFFCURVE",
"576 -904 OFFCURVE",
"576 -813 CURVE SMOOTH",
"576 -658 OFFCURVE",
"628 -457 OFFCURVE",
"733 -210 CURVE SMOOTH",
"838 37 OFFCURVE",
"890 284 OFFCURVE",
"890 533 CURVE SMOOTH",
"890 910 OFFCURVE",
"738 1118 OFFCURVE",
"463 1118 CURVE SMOOTH",
"211 1118 OFFCURVE",
"60 917 OFFCURVE",
"60 686 CURVE",
"96 680 LINE",
"106 680 OFFCURVE",
"121 683 OFFCURVE",
"140 688 CURVE",
"143 845 OFFCURVE",
"271 948 OFFCURVE",
"466 948 CURVE SMOOTH",
"682 948 OFFCURVE",
"790 812 OFFCURVE",
"790 540 CURVE SMOOTH",
"790 312 OFFCURVE",
"753 100 OFFCURVE",
"595 -292 CURVE SMOOTH",
"516 -488 OFFCURVE",
"476 -658 OFFCURVE",
"476 -803 CURVE SMOOTH",
"476 -888 OFFCURVE",
"513 -1063 OFFCURVE",
"553 -1118 CURVE"
);
},
{
closed = 1;
nodes = (
"551 1275 OFFCURVE",
"716 1391 OFFCURVE",
"716 1562 CURVE SMOOTH",
"716 1603 OFFCURVE",
"708 1638 OFFCURVE",
"693 1669 CURVE SMOOTH",
"662 1729 OFFCURVE",
"608 1756 OFFCURVE",
"505 1777 CURVE SMOOTH",
"402 1797 OFFCURVE",
"373 1820 OFFCURVE",
"373 1871 CURVE SMOOTH",
"373 1955 OFFCURVE",
"512 2044 OFFCURVE",
"656 2063 CURVE",
"663 2162 LINE",
"431 2135 OFFCURVE",
"273 2003 OFFCURVE",
"273 1844 CURVE SMOOTH",
"273 1794 OFFCURVE",
"284 1751 OFFCURVE",
"306 1714 CURVE SMOOTH",
"349 1641 OFFCURVE",
"438 1621 OFFCURVE",
"540 1601 CURVE SMOOTH",
"591 1591 OFFCURVE",
"616 1570 OFFCURVE",
"616 1539 CURVE SMOOTH",
"616 1438 OFFCURVE",
"487 1364 OFFCURVE",
"272 1352 CURVE",
"290 1254 LINE"
);
}
);
width = 990;
}
);
note = uni1B3F;
unicode = 1B3F;
},
{
glyphname = uni1B42;
lastChange = "2016-11-10 14:12:45 +0000";
layers = (
{
layerId = "BB284FF0-04DD-4FE7-B9B3-843DE156013A";
paths = (
{
closed = 1;
nodes = (
"-1014 1906 OFFCURVE",
"-814 2029 OFFCURVE",
"-587 2029 CURVE SMOOTH",
"-502 2029 OFFCURVE",
"-442 2012 OFFCURVE",
"-371 1952 CURVE",
"-980 1692 LINE",
"-944 1628 LINE",
"-150 1957 LINE",
"-247 2104 OFFCURVE",
"-395 2189 OFFCURVE",
"-544 2189 CURVE SMOOTH",
"-853 2189 OFFCURVE",
"-1052 2052 OFFCURVE",
"-1301 1656 CURVE",
"-1255 1623 LINE"
);
},
{
closed = 1;
nodes = (
"-1200 1323 LINE",
"-1356 1504 OFFCURVE",
"-1478 1651 OFFCURVE",
"-1566 1764 CURVE",
"-1655 1672 LINE",
"-1562 1556 OFFCURVE",
"-1425 1422 OFFCURVE",
"-1243 1270 CURVE"
);
}
);
width = 0;
}
);
note = uni1B42;
unicode = 1B42;
},
{
glyphname = uni1B44;
lastChange = "2016-11-10 14:12:45 +0000";
layers = (
{
layerId = "BB284FF0-04DD-4FE7-B9B3-843DE156013A";
paths = (
{
closed = 1;
nodes = (
"356 -1053 LINE",
"235 -780 OFFCURVE",
"212 -634 OFFCURVE",
"212 -474 CURVE SMOOTH",
"212 -206 OFFCURVE",
"243 23 OFFCURVE",
"384 440 CURVE SMOOTH",
"524 857 OFFCURVE",
"562 1104 OFFCURVE",
"562 1419 CURVE SMOOTH",
"562 1914 OFFCURVE",
"321 2189 OFFCURVE",
"-47 2189 CURVE SMOOTH",
"-396 2189 OFFCURVE",
"-628 1912 OFFCURVE",
"-640 1517 CURVE",
"-604 1511 LINE",
"-594 1511 OFFCURVE",
"-579 1514 OFFCURVE",
"-560 1519 CURVE",
"-504 1860 OFFCURVE",
"-355 2019 OFFCURVE",
"-44 2019 CURVE SMOOTH",
"251 2019 OFFCURVE",
"442 1798 OFFCURVE",
"442 1473 CURVE SMOOTH",
"442 1234 OFFCURVE",
"380 948 OFFCURVE",
"257 613 CURVE SMOOTH",
"134 278 OFFCURVE",
"72 -19 OFFCURVE",
"72 -280 CURVE SMOOTH",
"72 -584 OFFCURVE",
"141 -863 OFFCURVE",
"280 -1118 CURVE"
);
}
);
width = 712;
}
);
note = uni1B44;
unicode = 1B44;
},
{
glyphname = uni1B45;
lastChange = "2016-11-10 14:12:45 +0000";
layers = (
{
layerId = "BB284FF0-04DD-4FE7-B9B3-843DE156013A";
paths = (
{
closed = 1;
nodes = (
"1285 -520 OFFCURVE",
"1428 -382 OFFCURVE",
"1457 -130 CURVE",
"1391 -110 LINE",
"1368 -265 OFFCURVE",
"1250 -350 OFFCURVE",
"1057 -350 CURVE SMOOTH",
"864 -350 OFFCURVE",
"738 -211 OFFCURVE",
"738 -4 CURVE SMOOTH",
"738 445 LINE",
"793 445 OFFCURVE",
"833 444 OFFCURVE",
"859 442 CURVE",
"859 413 LINE SMOOTH",
"859 158 OFFCURVE",
"1075 -20 OFFCURVE",
"1279 -20 CURVE SMOOTH",
"1446 -20 OFFCURVE",
"1551 66 OFFCURVE",
"1551 203 CURVE SMOOTH",
"1551 439 OFFCURVE",
"1358 566 OFFCURVE",
"939 603 CURVE",
"939 828 OFFCURVE",
"1080 948 OFFCURVE",
"1351 948 CURVE SMOOTH",
"1623 948 OFFCURVE",
"1750 849 OFFCURVE",
"1750 612 CURVE SMOOTH",
"1750 372 LINE SMOOTH",
"1750 221 OFFCURVE",
"1765 118 OFFCURVE",
"1796 63 CURVE SMOOTH",
"1826 8 OFFCURVE",
"1873 -20 OFFCURVE",
"1936 -20 CURVE SMOOTH",
"2037 -20 OFFCURVE",
"2100 73 OFFCURVE",
"2100 221 CURVE SMOOTH",
"2100 930 LINE",
"2126 930 LINE SMOOTH",
"2225 930 OFFCURVE",
"2275 829 OFFCURVE",
"2275 626 CURVE SMOOTH",
"2275 0 LINE",
"2355 0 LINE",
"2355 635 LINE SMOOTH",
"2355 768 OFFCURVE",
"2346 865 OFFCURVE",
"2328 925 CURVE SMOOTH",
"2291 1044 OFFCURVE",
"2207 1100 OFFCURVE",
"2067 1100 CURVE SMOOTH",
"2020 1100 LINE",
"2020 283 LINE SMOOTH",
"2020 196 OFFCURVE",
"1990 130 OFFCURVE",
"1939 130 CURVE SMOOTH",
"1896 130 OFFCURVE",
"1868 147 OFFCURVE",
"1853 181 CURVE SMOOTH",
"1838 214 OFFCURVE",
"1830 276 OFFCURVE",
"1830 365 CURVE SMOOTH",
"1830 615 LINE SMOOTH",
"1830 942 OFFCURVE",
"1664 1118 OFFCURVE",
"1348 1118 CURVE SMOOTH",
"1044 1118 OFFCURVE",
"859 946 OFFCURVE",
"859 654 CURVE SMOOTH",
"859 610 LINE",
"738 615 LINE",
"738 770 LINE",
"658 770 LINE",
"658 613 LINE",
"537 602 LINE",
"537 653 LINE SMOOTH",
"537 834 OFFCURVE",
"518 956 OFFCURVE",
"481 1021 CURVE SMOOTH",
"444 1086 OFFCURVE",
"390 1118 OFFCURVE",
"320 1118 CURVE SMOOTH",
"159 1118 OFFCURVE",
"80 993 OFFCURVE",
"80 686 CURVE",
"116 680 LINE",
"126 680 OFFCURVE",
"141 683 OFFCURVE",
"160 688 CURVE",
"162 795 OFFCURVE",
"175 866 OFFCURVE",
"200 899 CURVE SMOOTH",
"224 932 OFFCURVE",
"260 948 OFFCURVE",
"309 948 CURVE SMOOTH",
"412 948 OFFCURVE",
"457 853 OFFCURVE",
"457 660 CURVE SMOOTH",
"457 586 LINE",
"258 529 OFFCURVE",
"139 381 OFFCURVE",
"139 189 CURVE SMOOTH",
"139 72 OFFCURVE",
"211 -20 OFFCURVE",
"314 -20 CURVE SMOOTH",
"462 -20 OFFCURVE",
"537 100 OFFCURVE",
"537 372 CURVE SMOOTH",
"537 435 LINE",
"658 443 LINE",
"658 -15 LINE SMOOTH",
"658 -326 OFFCURVE",
"810 -520 OFFCURVE",
"1057 -520 CURVE SMOOTH"
);
},
{
closed = 1;
nodes = (
"259 80 OFFCURVE",
"229 120 OFFCURVE",
"229 200 CURVE SMOOTH",
"229 305 OFFCURVE",
"308 385 OFFCURVE",
"457 421 CURVE",
"457 365 LINE SMOOTH",
"457 175 OFFCURVE",
"411 80 OFFCURVE",
"318 80 CURVE SMOOTH"
);
},
{
closed = 1;
nodes = (
"1118 80 OFFCURVE",
"939 199 OFFCURVE",
"939 407 CURVE SMOOTH",
"939 437 LINE",
"1244 417 OFFCURVE",
"1451 315 OFFCURVE",
"1451 174 CURVE SMOOTH",
"1451 115 OFFCURVE",
"1382 80 OFFCURVE",
"1290 80 CURVE SMOOTH"
);
}
);
width = 2485;
}
);
note = uni1B45;
unicode = 1B45;
},
{
glyphname = uni1B46;
lastChange = "2016-11-10 14:12:45 +0000";
layers = (
{
layerId = "BB284FF0-04DD-4FE7-B9B3-843DE156013A";
paths = (
{
closed = 1;
nodes = (
"462 -20 OFFCURVE",
"537 100 OFFCURVE",
"537 372 CURVE SMOOTH",
"537 435 LINE",
"564 438 OFFCURVE",
"601 439 OFFCURVE",
"649 439 CURVE",
"649 413 LINE SMOOTH",
"649 158 OFFCURVE",
"865 -20 OFFCURVE",
"1069 -20 CURVE SMOOTH",
"1236 -20 OFFCURVE",
"1341 66 OFFCURVE",
"1341 203 CURVE SMOOTH",
"1341 444 OFFCURVE",
"1113 588 OFFCURVE",
"729 608 CURVE",
"729 637 LINE SMOOTH",
"729 849 OFFCURVE",
"849 948 OFFCURVE",
"1141 948 CURVE SMOOTH",
"1427 948 OFFCURVE",
"1570 836 OFFCURVE",
"1570 612 CURVE SMOOTH",
"1570 482 LINE SMOOTH",
"1570 153 OFFCURVE",
"1723 -20 OFFCURVE",
"2027 -20 CURVE SMOOTH",
"2314 -20 OFFCURVE",
"2468 148 OFFCURVE",
"2468 464 CURVE SMOOTH",
"2468 612 LINE SMOOTH",
"2468 867 OFFCURVE",
"2537 948 OFFCURVE",
"2728 948 CURVE SMOOTH",
"2940 948 OFFCURVE",
"2988 879 OFFCURVE",
"2988 616 CURVE SMOOTH",
"2988 323 LINE SMOOTH",
"2988 188 OFFCURVE",
"3003 98 OFFCURVE",
"3032 51 CURVE SMOOTH",
"3061 4 OFFCURVE",
"3105 -20 OFFCURVE",
"3164 -20 CURVE SMOOTH",
"3219 -20 OFFCURVE",
"3259 7 OFFCURVE",
"3284 61 CURVE SMOOTH",
"3308 115 OFFCURVE",
"3320 208 OFFCURVE",
"3320 339 CURVE SMOOTH",
"3320 930 LINE",
"3346 930 LINE SMOOTH",
"3445 930 OFFCURVE",
"3495 829 OFFCURVE",
"3495 626 CURVE SMOOTH",
"3495 0 LINE",
"3575 0 LINE",
"3575 635 LINE SMOOTH",
"3575 768 OFFCURVE",
"3566 865 OFFCURVE",
"3548 925 CURVE SMOOTH",
"3511 1044 OFFCURVE",
"3427 1100 OFFCURVE",
"3287 1100 CURVE SMOOTH",
"3240 1100 LINE",
"3240 341 LINE SMOOTH",
"3240 200 OFFCURVE",
"3216 130 OFFCURVE",
"3167 130 CURVE SMOOTH",
"3128 130 OFFCURVE",
"3101 145 OFFCURVE",
"3088 175 CURVE SMOOTH",
"3075 205 OFFCURVE",
"3068 268 OFFCURVE",
"3068 365 CURVE SMOOTH",
"3068 616 LINE SMOOTH",
"3068 980 OFFCURVE",
"2974 1118 OFFCURVE",
"2729 1118 CURVE SMOOTH",
"2485 1118 OFFCURVE",
"2388 982 OFFCURVE",
"2388 615 CURVE SMOOTH",
"2388 486 LINE SMOOTH",
"2388 249 OFFCURVE",
"2279 150 OFFCURVE",
"2028 150 CURVE SMOOTH",
"1761 150 OFFCURVE",
"1650 258 OFFCURVE",
"1650 482 CURVE SMOOTH",
"1650 615 LINE SMOOTH",
"1650 935 OFFCURVE",
"1462 1118 OFFCURVE",
"1138 1118 CURVE SMOOTH",
"834 1118 OFFCURVE",
"649 946 OFFCURVE",
"649 654 CURVE SMOOTH",
"649 610 LINE",
"601 610 OFFCURVE",
"564 608 OFFCURVE",
"537 603 CURVE",
"537 653 LINE SMOOTH",
"537 834 OFFCURVE",
"518 956 OFFCURVE",
"481 1021 CURVE SMOOTH",
"444 1086 OFFCURVE",
"390 1118 OFFCURVE",
"320 1118 CURVE SMOOTH",
"159 1118 OFFCURVE",
"80 993 OFFCURVE",
"80 686 CURVE",
"116 680 LINE",
"126 680 OFFCURVE",
"141 683 OFFCURVE",
"160 688 CURVE",
"162 795 OFFCURVE",
"175 866 OFFCURVE",
"200 899 CURVE SMOOTH",
"224 932 OFFCURVE",
"260 948 OFFCURVE",
"309 948 CURVE SMOOTH",
"412 948 OFFCURVE",
"457 853 OFFCURVE",
"457 660 CURVE SMOOTH",
"457 586 LINE",
"258 529 OFFCURVE",
"139 381 OFFCURVE",
"139 189 CURVE SMOOTH",
"139 72 OFFCURVE",
"211 -20 OFFCURVE",
"314 -20 CURVE SMOOTH"
);
},
{
closed = 1;
nodes = (
"259 80 OFFCURVE",
"229 120 OFFCURVE",
"229 200 CURVE SMOOTH",
"229 305 OFFCURVE",
"308 385 OFFCURVE",
"457 421 CURVE",
"457 365 LINE SMOOTH",
"457 175 OFFCURVE",
"411 80 OFFCURVE",
"318 80 CURVE SMOOTH"
);
},
{
closed = 1;
nodes = (
"908 80 OFFCURVE",
"729 199 OFFCURVE",
"729 407 CURVE SMOOTH",
"729 437 LINE",
"1034 417 OFFCURVE",
"1241 315 OFFCURVE",
"1241 174 CURVE SMOOTH",
"1241 115 OFFCURVE",
"1172 80 OFFCURVE",
"1080 80 CURVE SMOOTH"
);
}
);
width = 3705;
}
);
note = uni1B46;
unicode = 1B46;
},
{
glyphname = uni1B47;
lastChange = "2016-11-10 14:12:45 +0000";
layers = (
{
layerId = "BB284FF0-04DD-4FE7-B9B3-843DE156013A";
paths = (
{
closed = 1;
nodes = (
"1255 -520 OFFCURVE",
"1398 -382 OFFCURVE",
"1427 -130 CURVE",
"1361 -110 LINE",
"1338 -265 OFFCURVE",
"1220 -350 OFFCURVE",
"1027 -350 CURVE SMOOTH",
"835 -350 OFFCURVE",
"708 -211 OFFCURVE",
"708 -7 CURVE",
"751 -16 OFFCURVE",
"801 -20 OFFCURVE",
"857 -20 CURVE SMOOTH",
"1149 -20 OFFCURVE",
"1354 141 OFFCURVE",
"1354 365 CURVE SMOOTH",
"1354 434 OFFCURVE",
"1342 489 OFFCURVE",
"1317 530 CURVE SMOOTH",
"1267 612 OFFCURVE",
"1197 635 OFFCURVE",
"1037 660 CURVE SMOOTH",
"957 672 OFFCURVE",
"917 705 OFFCURVE",
"917 759 CURVE SMOOTH",
"917 885 OFFCURVE",
"1043 948 OFFCURVE",
"1296 948 CURVE SMOOTH",
"1600 948 OFFCURVE",
"1730 836 OFFCURVE",
"1730 616 CURVE SMOOTH",
"1730 372 LINE SMOOTH",
"1730 221 OFFCURVE",
"1745 118 OFFCURVE",
"1776 63 CURVE SMOOTH",
"1806 8 OFFCURVE",
"1853 -20 OFFCURVE",
"1916 -20 CURVE SMOOTH",
"2017 -20 OFFCURVE",
"2080 73 OFFCURVE",
"2080 221 CURVE SMOOTH",
"2080 930 LINE",
"2106 930 LINE SMOOTH",
"2205 930 OFFCURVE",
"2255 829 OFFCURVE",
"2255 626 CURVE SMOOTH",
"2255 0 LINE",
"2335 0 LINE",
"2335 635 LINE SMOOTH",
"2335 768 OFFCURVE",
"2326 865 OFFCURVE",
"2308 925 CURVE SMOOTH",
"2271 1044 OFFCURVE",
"2187 1100 OFFCURVE",
"2047 1100 CURVE SMOOTH",
"2000 1100 LINE",
"2000 283 LINE SMOOTH",
"2000 196 OFFCURVE",
"1970 130 OFFCURVE",
"1919 130 CURVE SMOOTH",
"1876 130 OFFCURVE",
"1848 147 OFFCURVE",
"1833 181 CURVE SMOOTH",
"1818 214 OFFCURVE",
"1810 276 OFFCURVE",
"1810 365 CURVE SMOOTH",
"1810 616 LINE SMOOTH",
"1810 936 OFFCURVE",
"1623 1118 OFFCURVE",
"1296 1118 CURVE SMOOTH",
"1009 1118 OFFCURVE",
"817 966 OFFCURVE",
"817 765 CURVE SMOOTH",
"817 710 OFFCURVE",
"826 663 OFFCURVE",
"845 622 CURVE SMOOTH",
"881 541 OFFCURVE",
"955 509 OFFCURVE",
"1082 494 CURVE SMOOTH",
"1209 478 OFFCURVE",
"1254 442 OFFCURVE",
"1254 366 CURVE SMOOTH",
"1254 229 OFFCURVE",
"1101 150 OFFCURVE",
"857 150 CURVE SMOOTH",
"800 150 OFFCURVE",
"750 155 OFFCURVE",
"708 165 CURVE",
"708 770 LINE",
"628 770 LINE",
"628 193 LINE",
"539 238 OFFCURVE",
"495 320 OFFCURVE",
"495 439 CURVE SMOOTH",
"495 652 LINE SMOOTH",
"495 819 OFFCURVE",
"480 939 OFFCURVE",
"449 1011 CURVE SMOOTH",
"418 1082 OFFCURVE",
"371 1118 OFFCURVE",
"309 1118 CURVE SMOOTH",
"238 1118 OFFCURVE",
"182 1088 OFFCURVE",
"141 1028 CURVE SMOOTH",
"100 967 OFFCURVE",
"80 853 OFFCURVE",
"80 686 CURVE",
"116 680 LINE",
"126 680 OFFCURVE",
"141 683 OFFCURVE",
"160 688 CURVE",
"162 800 OFFCURVE",
"174 871 OFFCURVE",
"196 902 CURVE SMOOTH",
"217 933 OFFCURVE",
"251 948 OFFCURVE",
"298 948 CURVE SMOOTH",
"338 948 OFFCURVE",
"368 926 OFFCURVE",
"387 881 CURVE SMOOTH",
"406 836 OFFCURVE",
"415 762 OFFCURVE",
"415 659 CURVE SMOOTH",
"415 410 LINE SMOOTH",
"415 203 OFFCURVE",
"486 72 OFFCURVE",
"628 16 CURVE",
"628 -15 LINE SMOOTH",
"628 -326 OFFCURVE",
"780 -520 OFFCURVE",
"1027 -520 CURVE SMOOTH"
);
}
);
width = 2465;
}
);
note = uni1B47;
unicode = 1B47;
},
{
glyphname = uni1B48;
lastChange = "2016-11-10 14:12:45 +0000";
layers = (
{
layerId = "BB284FF0-04DD-4FE7-B9B3-843DE156013A";
paths = (
{
closed = 1;
nodes = (
"1315 -520 OFFCURVE",
"1458 -382 OFFCURVE",
"1487 -130 CURVE",
"1421 -110 LINE",
"1398 -265 OFFCURVE",
"1280 -350 OFFCURVE",
"1087 -350 CURVE SMOOTH",
"894 -350 OFFCURVE",
"772 -212 OFFCURVE",
"768 -16 CURVE",
"791 -19 OFFCURVE",
"814 -20 OFFCURVE",
"839 -20 CURVE SMOOTH",
"1124 -20 OFFCURVE",
"1268 155 OFFCURVE",
"1268 482 CURVE SMOOTH",
"1268 930 LINE",
"1294 930 LINE SMOOTH",
"1393 930 OFFCURVE",
"1443 829 OFFCURVE",
"1443 626 CURVE SMOOTH",
"1443 0 LINE",
"1523 0 LINE",
"1523 635 LINE SMOOTH",
"1523 768 OFFCURVE",
"1514 865 OFFCURVE",
"1496 925 CURVE SMOOTH",
"1459 1044 OFFCURVE",
"1375 1100 OFFCURVE",
"1235 1100 CURVE SMOOTH",
"1188 1100 LINE",
"1188 482 LINE SMOOTH",
"1188 255 OFFCURVE",
"1087 150 OFFCURVE",
"838 150 CURVE",
"768 153 LINE",
"768 770 LINE",
"688 770 LINE",
"688 166 LINE",
"549 202 OFFCURVE",
"488 297 OFFCURVE",
"488 486 CURVE SMOOTH",
"488 653 LINE SMOOTH",
"488 838 OFFCURVE",
"471 961 OFFCURVE",
"438 1024 CURVE SMOOTH",
"404 1087 OFFCURVE",
"353 1118 OFFCURVE",
"286 1118 CURVE SMOOTH",
"219 1118 OFFCURVE",
"168 1085 OFFCURVE",
"133 1019 CURVE SMOOTH",
"98 953 OFFCURVE",
"80 842 OFFCURVE",
"80 686 CURVE",
"116 680 LINE",
"126 680 OFFCURVE",
"141 683 OFFCURVE",
"160 688 CURVE",
"161 773 OFFCURVE",
"166 830 OFFCURVE",
"173 859 CURVE SMOOTH",
"188 917 OFFCURVE",
"222 948 OFFCURVE",
"289 948 CURVE SMOOTH",
"333 948 OFFCURVE",
"364 928 OFFCURVE",
"382 887 CURVE SMOOTH",
"399 846 OFFCURVE",
"408 770 OFFCURVE",
"408 660 CURVE SMOOTH",
"408 464 LINE SMOOTH",
"408 205 OFFCURVE",
"501 50 OFFCURVE",
"688 -1 CURVE",
"688 -15 LINE SMOOTH",
"688 -326 OFFCURVE",
"840 -520 OFFCURVE",
"1087 -520 CURVE SMOOTH"
);
}
);
width = 1653;
}
);
note = uni1B48;
unicode = 1B48;
},
{
glyphname = uni1B49;
lastChange = "2016-11-10 14:12:45 +0000";
layers = (
{
layerId = "BB284FF0-04DD-4FE7-B9B3-843DE156013A";
paths = (
{
closed = 1;
nodes = (
"1315 -520 OFFCURVE",
"1458 -382 OFFCURVE",
"1487 -130 CURVE",
"1421 -110 LINE",
"1398 -265 OFFCURVE",
"1280 -350 OFFCURVE",
"1087 -350 CURVE SMOOTH",
"894 -350 OFFCURVE",
"772 -212 OFFCURVE",
"768 -16 CURVE",
"791 -19 OFFCURVE",
"814 -20 OFFCURVE",
"839 -20 CURVE SMOOTH",
"1124 -20 OFFCURVE",
"1268 155 OFFCURVE",
"1268 482 CURVE SMOOTH",
"1268 559 LINE SMOOTH",
"1268 742 OFFCURVE",
"1219 849 OFFCURVE",
"1115 934 CURVE",
"1137 943 OFFCURVE",
"1163 948 OFFCURVE",
"1194 948 CURVE SMOOTH",
"1339 948 OFFCURVE",
"1415 827 OFFCURVE",
"1415 626 CURVE SMOOTH",
"1415 0 LINE",
"1495 0 LINE",
"1495 635 LINE SMOOTH",
"1495 952 OFFCURVE",
"1380 1118 OFFCURVE",
"1157 1118 CURVE SMOOTH",
"1030 1118 OFFCURVE",
"938 1055 OFFCURVE",
"880 930 CURVE",
"1073 930 OFFCURVE",
"1188 758 OFFCURVE",
"1188 535 CURVE SMOOTH",
"1188 482 LINE SMOOTH",
"1188 255 OFFCURVE",
"1087 150 OFFCURVE",
"838 150 CURVE",
"768 153 LINE",
"768 770 LINE",
"688 770 LINE",
"688 166 LINE",
"549 202 OFFCURVE",
"488 297 OFFCURVE",
"488 486 CURVE SMOOTH",
"488 653 LINE SMOOTH",
"488 838 OFFCURVE",
"471 961 OFFCURVE",
"438 1024 CURVE SMOOTH",
"404 1087 OFFCURVE",
"353 1118 OFFCURVE",
"286 1118 CURVE SMOOTH",
"219 1118 OFFCURVE",
"168 1085 OFFCURVE",
"133 1019 CURVE SMOOTH",
"98 953 OFFCURVE",
"80 842 OFFCURVE",
"80 686 CURVE",
"116 680 LINE",
"126 680 OFFCURVE",
"141 683 OFFCURVE",
"160 688 CURVE",
"161 773 OFFCURVE",
"166 830 OFFCURVE",
"173 859 CURVE SMOOTH",
"188 917 OFFCURVE",
"222 948 OFFCURVE",
"289 948 CURVE SMOOTH",
"333 948 OFFCURVE",
"364 928 OFFCURVE",
"382 887 CURVE SMOOTH",
"399 846 OFFCURVE",
"408 770 OFFCURVE",
"408 660 CURVE SMOOTH",
"408 464 LINE SMOOTH",
"408 205 OFFCURVE",
"501 50 OFFCURVE",
"688 -1 CURVE",
"688 -15 LINE SMOOTH",
"688 -326 OFFCURVE",
"840 -520 OFFCURVE",
"1087 -520 CURVE SMOOTH"
);
}
);
width = 1625;
}
);
note = uni1B49;
unicode = 1B49;
},
{
glyphname = uni1B4A;
lastChange = "2016-11-10 14:12:45 +0000";
layers = (
{
layerId = "BB284FF0-04DD-4FE7-B9B3-843DE156013A";
paths = (
{
closed = 1;
nodes = (
"1335 -520 OFFCURVE",
"1478 -382 OFFCURVE",
"1507 -130 CURVE",
"1441 -110 LINE",
"1418 -265 OFFCURVE",
"1300 -350 OFFCURVE",
"1107 -350 CURVE SMOOTH",
"914 -350 OFFCURVE",
"788 -211 OFFCURVE",
"788 -4 CURVE SMOOTH",
"788 129 LINE",
"884 13 OFFCURVE",
"950 -20 OFFCURVE",
"1026 -20 CURVE SMOOTH",
"1189 -20 OFFCURVE",
"1270 129 OFFCURVE",
"1270 427 CURVE SMOOTH",
"1270 930 LINE",
"1296 930 LINE SMOOTH",
"1395 930 OFFCURVE",
"1445 829 OFFCURVE",
"1445 626 CURVE SMOOTH",
"1445 0 LINE",
"1525 0 LINE",
"1525 635 LINE SMOOTH",
"1525 768 OFFCURVE",
"1516 865 OFFCURVE",
"1498 925 CURVE SMOOTH",
"1461 1044 OFFCURVE",
"1377 1100 OFFCURVE",
"1237 1100 CURVE SMOOTH",
"1190 1100 LINE",
"1190 475 LINE SMOOTH",
"1190 350 OFFCURVE",
"1176 264 OFFCURVE",
"1148 219 CURVE SMOOTH",
"1119 173 OFFCURVE",
"1078 150 OFFCURVE",
"1023 150 CURVE SMOOTH",
"1002 150 OFFCURVE",
"979 161 OFFCURVE",
"954 184 CURVE SMOOTH",
"929 207 OFFCURVE",
"896 245 OFFCURVE",
"856 300 CURVE",
"788 383 LINE",
"788 770 LINE",
"708 770 LINE",
"708 466 LINE",
"652 517 OFFCURVE",
"595 550 OFFCURVE",
"537 563 CURVE",
"537 653 LINE SMOOTH",
"537 834 OFFCURVE",
"518 956 OFFCURVE",
"481 1021 CURVE SMOOTH",
"444 1086 OFFCURVE",
"390 1118 OFFCURVE",
"320 1118 CURVE SMOOTH",
"159 1118 OFFCURVE",
"80 993 OFFCURVE",
"80 686 CURVE",
"116 680 LINE",
"126 680 OFFCURVE",
"141 683 OFFCURVE",
"160 688 CURVE",
"162 795 OFFCURVE",
"175 866 OFFCURVE",
"200 899 CURVE SMOOTH",
"224 932 OFFCURVE",
"260 948 OFFCURVE",
"309 948 CURVE SMOOTH",
"412 948 OFFCURVE",
"457 853 OFFCURVE",
"457 660 CURVE SMOOTH",
"457 569 LINE",
"270 558 OFFCURVE",
"139 406 OFFCURVE",
"139 189 CURVE SMOOTH",
"139 72 OFFCURVE",
"211 -20 OFFCURVE",
"314 -20 CURVE SMOOTH",
"462 -20 OFFCURVE",
"537 100 OFFCURVE",
"537 372 CURVE SMOOTH",
"537 386 LINE",
"588 365 OFFCURVE",
"645 313 OFFCURVE",
"708 232 CURVE",
"708 -15 LINE SMOOTH",
"708 -326 OFFCURVE",
"860 -520 OFFCURVE",
"1107 -520 CURVE SMOOTH"
);
},
{
closed = 1;
nodes = (
"259 80 OFFCURVE",
"229 120 OFFCURVE",
"229 200 CURVE SMOOTH",
"229 329 OFFCURVE",
"305 396 OFFCURVE",
"457 399 CURVE",
"457 365 LINE SMOOTH",
"457 175 OFFCURVE",
"411 80 OFFCURVE",
"318 80 CURVE SMOOTH"
);
}
);
width = 1655;
}
);
note = uni1B4A;
unicode = 1B4A;
},
{
glyphname = uni1B4B;
lastChange = "2016-11-10 14:12:45 +0000";
layers = (
{
layerId = "BB284FF0-04DD-4FE7-B9B3-843DE156013A";
paths = (
{
closed = 1;
nodes = (
"462 -20 OFFCURVE",
"537 100 OFFCURVE",
"537 372 CURVE SMOOTH",
"537 386 LINE",
"599 361 OFFCURVE",
"674 288 OFFCURVE",
"761 165 CURVE SMOOTH",
"848 42 OFFCURVE",
"937 -20 OFFCURVE",
"1026 -20 CURVE SMOOTH",
"1189 -20 OFFCURVE",
"1270 129 OFFCURVE",
"1270 427 CURVE SMOOTH",
"1270 930 LINE",
"1296 930 LINE SMOOTH",
"1395 930 OFFCURVE",
"1445 829 OFFCURVE",
"1445 626 CURVE SMOOTH",
"1445 410 LINE SMOOTH",
"1445 134 OFFCURVE",
"1538 -20 OFFCURVE",
"1711 -20 CURVE SMOOTH",
"1862 -20 OFFCURVE",
"1962 116 OFFCURVE",
"2012 388 CURVE",
"2062 116 OFFCURVE",
"2162 -20 OFFCURVE",
"2313 -20 CURVE SMOOTH",
"2485 -20 OFFCURVE",
"2579 133 OFFCURVE",
"2579 410 CURVE SMOOTH",
"2579 930 LINE",
"2625 930 LINE SMOOTH",
"2720 930 OFFCURVE",
"2784 835 OFFCURVE",
"2784 626 CURVE SMOOTH",
"2784 0 LINE",
"2864 0 LINE",
"2864 635 LINE SMOOTH",
"2864 1011 OFFCURVE",
"2766 1100 OFFCURVE",
"2566 1100 CURVE SMOOTH",
"2499 1100 LINE",
"2499 439 LINE SMOOTH",
"2499 252 OFFCURVE",
"2444 150 OFFCURVE",
"2307 150 CURVE SMOOTH",
"2202 150 OFFCURVE",
"2134 258 OFFCURVE",
"2091 466 CURVE SMOOTH",
"2070 570 OFFCURVE",
"2057 751 OFFCURVE",
"2054 1010 CURVE",
"1970 1010 LINE",
"1968 858 LINE SMOOTH",
"1964 631 OFFCURVE",
"1941 457 OFFCURVE",
"1898 334 CURVE SMOOTH",
"1855 211 OFFCURVE",
"1795 150 OFFCURVE",
"1717 150 CURVE SMOOTH",
"1588 150 OFFCURVE",
"1525 239 OFFCURVE",
"1525 439 CURVE SMOOTH",
"1525 635 LINE SMOOTH",
"1525 768 OFFCURVE",
"1516 865 OFFCURVE",
"1498 925 CURVE SMOOTH",
"1461 1044 OFFCURVE",
"1377 1100 OFFCURVE",
"1237 1100 CURVE SMOOTH",
"1190 1100 LINE",
"1190 475 LINE SMOOTH",
"1190 350 OFFCURVE",
"1176 264 OFFCURVE",
"1148 219 CURVE SMOOTH",
"1119 173 OFFCURVE",
"1078 150 OFFCURVE",
"1023 150 CURVE SMOOTH",
"986 150 OFFCURVE",
"935 194 OFFCURVE",
"870 282 CURVE SMOOTH",
"738 458 OFFCURVE",
"644 539 OFFCURVE",
"537 563 CURVE",
"537 653 LINE SMOOTH",
"537 834 OFFCURVE",
"518 956 OFFCURVE",
"481 1021 CURVE SMOOTH",
"444 1086 OFFCURVE",
"390 1118 OFFCURVE",
"320 1118 CURVE SMOOTH",
"159 1118 OFFCURVE",
"80 993 OFFCURVE",
"80 686 CURVE",
"116 680 LINE",
"126 680 OFFCURVE",
"141 683 OFFCURVE",
"160 688 CURVE",
"162 795 OFFCURVE",
"175 866 OFFCURVE",
"200 899 CURVE SMOOTH",
"224 932 OFFCURVE",
"260 948 OFFCURVE",
"309 948 CURVE SMOOTH",
"412 948 OFFCURVE",
"457 853 OFFCURVE",
"457 660 CURVE SMOOTH",
"457 569 LINE",
"270 558 OFFCURVE",
"139 406 OFFCURVE",
"139 189 CURVE SMOOTH",
"139 72 OFFCURVE",
"211 -20 OFFCURVE",
"314 -20 CURVE SMOOTH"
);
},
{
closed = 1;
nodes = (
"259 80 OFFCURVE",
"229 120 OFFCURVE",
"229 200 CURVE SMOOTH",
"229 329 OFFCURVE",
"305 396 OFFCURVE",
"457 399 CURVE",
"457 365 LINE SMOOTH",
"457 175 OFFCURVE",
"411 80 OFFCURVE",
"318 80 CURVE SMOOTH"
);
}
);
width = 2994;
}
);
note = uni1B4B;
unicode = 1B4B;
},
{
glyphname = uni1B50;
lastChange = "2016-11-10 14:12:45 +0000";
layers = (
{
layerId = "BB284FF0-04DD-4FE7-B9B3-843DE156013A";
paths = (
{
closed = 1;
nodes = (
"703 55 OFFCURVE",
"846 232 OFFCURVE",
"846 503 CURVE SMOOTH",
"846 775 OFFCURVE",
"703 960 OFFCURVE",
"487 960 CURVE SMOOTH",
"270 960 OFFCURVE",
"120 771 OFFCURVE",
"120 503 CURVE SMOOTH",
"120 236 OFFCURVE",
"270 55 OFFCURVE",
"487 55 CURVE SMOOTH"
);
},
{
closed = 1;
nodes = (
"324 225 OFFCURVE",
"220 331 OFFCURVE",
"220 508 CURVE SMOOTH",
"220 685 OFFCURVE",
"323 790 OFFCURVE",
"483 790 CURVE SMOOTH",
"644 790 OFFCURVE",
"746 684 OFFCURVE",
"746 508 CURVE SMOOTH",
"746 332 OFFCURVE",
"642 225 OFFCURVE",
"483 225 CURVE SMOOTH"
);
}
);
width = 966;
}
);
note = uni1B50;
unicode = 1B50;
},
{
glyphname = uni1B51;
lastChange = "2016-11-10 14:12:45 +0000";
layers = (
{
layerId = "BB284FF0-04DD-4FE7-B9B3-843DE156013A";
paths = (
{
closed = 1;
nodes = (
"740 0 LINE",
"740 616 LINE SMOOTH",
"740 845 OFFCURVE",
"803 948 OFFCURVE",
"971 948 CURVE SMOOTH",
"1086 948 OFFCURVE",
"1186 845 OFFCURVE",
"1186 733 CURVE",
"1255 733 LINE",
"1267 865 OFFCURVE",
"1357 948 OFFCURVE",
"1470 948 CURVE SMOOTH",
"1638 948 OFFCURVE",
"1700 845 OFFCURVE",
"1700 616 CURVE SMOOTH",
"1700 0 LINE",
"1837 0 LINE SMOOTH",
"1976 0 OFFCURVE",
"2061 58 OFFCURVE",
"2096 175 CURVE SMOOTH",
"2113 233 OFFCURVE",
"2122 330 OFFCURVE",
"2122 465 CURVE SMOOTH",
"2122 901 LINE",
"2283 905 OFFCURVE",
"2403 1052 OFFCURVE",
"2420 1280 CURVE",
"2351 1323 LINE",
"2338 1167 OFFCURVE",
"2239 1072 OFFCURVE",
"2122 1072 CURVE",
"2115 1276 OFFCURVE",
"2022 1430 OFFCURVE",
"1894 1430 CURVE SMOOTH",
"1789 1430 OFFCURVE",
"1724 1359 OFFCURVE",
"1724 1246 CURVE SMOOTH",
"1724 1065 OFFCURVE",
"1850 931 OFFCURVE",
"2042 903 CURVE",
"2042 417 LINE SMOOTH",
"2042 256 OFFCURVE",
"1989 170 OFFCURVE",
"1896 170 CURVE SMOOTH",
"1780 170 LINE",
"1780 616 LINE SMOOTH",
"1780 981 OFFCURVE",
"1694 1118 OFFCURVE",
"1470 1118 CURVE SMOOTH",
"1348 1118 OFFCURVE",
"1265 1049 OFFCURVE",
"1220 912 CURVE",
"1176 1049 OFFCURVE",
"1093 1118 OFFCURVE",
"971 1118 CURVE SMOOTH",
"748 1118 OFFCURVE",
"660 981 OFFCURVE",
"660 616 CURVE SMOOTH",
"660 170 LINE",
"634 170 LINE SMOOTH",
"542 170 OFFCURVE",
"488 256 OFFCURVE",
"488 417 CURVE SMOOTH",
"488 653 LINE SMOOTH",
"488 838 OFFCURVE",
"471 961 OFFCURVE",
"438 1024 CURVE SMOOTH",
"404 1087 OFFCURVE",
"353 1118 OFFCURVE",
"286 1118 CURVE SMOOTH",
"219 1118 OFFCURVE",
"168 1085 OFFCURVE",
"133 1019 CURVE SMOOTH",
"98 953 OFFCURVE",
"80 842 OFFCURVE",
"80 686 CURVE",
"116 680 LINE",
"126 680 OFFCURVE",
"141 683 OFFCURVE",
"160 688 CURVE",
"161 773 OFFCURVE",
"166 830 OFFCURVE",
"173 859 CURVE SMOOTH",
"188 917 OFFCURVE",
"222 948 OFFCURVE",
"289 948 CURVE SMOOTH",
"333 948 OFFCURVE",
"364 928 OFFCURVE",
"382 887 CURVE SMOOTH",
"399 846 OFFCURVE",
"408 770 OFFCURVE",
"408 660 CURVE SMOOTH",
"408 465 LINE SMOOTH",
"408 330 OFFCURVE",
"417 234 OFFCURVE",
"435 175 CURVE SMOOTH",
"470 57 OFFCURVE",
"556 0 OFFCURVE",
"693 0 CURVE SMOOTH"
);
},
{
closed = 1;
nodes = (
"1897 1084 OFFCURVE",
"1814 1146 OFFCURVE",
"1814 1247 CURVE SMOOTH",
"1814 1302 OFFCURVE",
"1842 1330 OFFCURVE",
"1898 1330 CURVE SMOOTH",
"1971 1330 OFFCURVE",
"2037 1221 OFFCURVE",
"2042 1072 CURVE"
);
}
);
width = 2420;
}
);
note = uni1B51;
unicode = 1B51;
},
{
glyphname = uni1B52;
lastChange = "2016-11-10 14:12:45 +0000";
layers = (
{
layerId = "BB284FF0-04DD-4FE7-B9B3-843DE156013A";
paths = (
{
closed = 1;
nodes = (
"1655 -918 OFFCURVE",
"1714 -714 OFFCURVE",
"1757 -507 CURVE",
"1808 -508 LINE SMOOTH",
"1905 -508 OFFCURVE",
"2017 -481 OFFCURVE",
"2090 -432 CURVE",
"2057 -361 LINE",
"2000 -392 OFFCURVE",
"1914 -408 OFFCURVE",
"1798 -408 CURVE",
"1777 -407 LINE",
"1819 -181 OFFCURVE",
"1840 44 OFFCURVE",
"1840 268 CURVE SMOOTH",
"1840 545 OFFCURVE",
"1808 756 OFFCURVE",
"1745 901 CURVE SMOOTH",
"1681 1046 OFFCURVE",
"1589 1118 OFFCURVE",
"1470 1118 CURVE SMOOTH",
"1348 1118 OFFCURVE",
"1265 1049 OFFCURVE",
"1220 912 CURVE",
"1176 1049 OFFCURVE",
"1093 1118 OFFCURVE",
"971 1118 CURVE SMOOTH",
"748 1118 OFFCURVE",
"660 981 OFFCURVE",
"660 616 CURVE SMOOTH",
"660 170 LINE",
"634 170 LINE SMOOTH",
"542 170 OFFCURVE",
"488 256 OFFCURVE",
"488 417 CURVE SMOOTH",
"488 653 LINE SMOOTH",
"488 838 OFFCURVE",
"471 961 OFFCURVE",
"438 1024 CURVE SMOOTH",
"404 1087 OFFCURVE",
"353 1118 OFFCURVE",
"286 1118 CURVE SMOOTH",
"219 1118 OFFCURVE",
"168 1085 OFFCURVE",
"133 1019 CURVE SMOOTH",
"98 953 OFFCURVE",
"80 842 OFFCURVE",
"80 686 CURVE",
"116 680 LINE",
"126 680 OFFCURVE",
"141 683 OFFCURVE",
"160 688 CURVE",
"161 773 OFFCURVE",
"166 830 OFFCURVE",
"173 859 CURVE SMOOTH",
"188 917 OFFCURVE",
"222 948 OFFCURVE",
"289 948 CURVE SMOOTH",
"333 948 OFFCURVE",
"364 928 OFFCURVE",
"382 887 CURVE SMOOTH",
"399 846 OFFCURVE",
"408 770 OFFCURVE",
"408 660 CURVE SMOOTH",
"408 465 LINE SMOOTH",
"408 330 OFFCURVE",
"417 234 OFFCURVE",
"435 175 CURVE SMOOTH",
"470 57 OFFCURVE",
"556 0 OFFCURVE",
"693 0 CURVE SMOOTH",
"740 0 LINE",
"740 616 LINE SMOOTH",
"740 845 OFFCURVE",
"803 948 OFFCURVE",
"971 948 CURVE SMOOTH",
"1086 948 OFFCURVE",
"1186 845 OFFCURVE",
"1186 733 CURVE",
"1255 733 LINE",
"1267 865 OFFCURVE",
"1357 948 OFFCURVE",
"1470 948 CURVE SMOOTH",
"1650 948 OFFCURVE",
"1740 718 OFFCURVE",
"1740 258 CURVE SMOOTH",
"1740 56 OFFCURVE",
"1719 -163 OFFCURVE",
"1677 -398 CURVE",
"1573 -383 OFFCURVE",
"1426 -336 OFFCURVE",
"1236 -257 CURVE SMOOTH",
"1046 -179 OFFCURVE",
"882 -140 OFFCURVE",
"743 -140 CURVE SMOOTH",
"531 -140 OFFCURVE",
"380 -268 OFFCURVE",
"380 -428 CURVE SMOOTH",
"380 -495 OFFCURVE",
"405 -553 OFFCURVE",
"454 -604 CURVE SMOOTH",
"553 -705 OFFCURVE",
"725 -768 OFFCURVE",
"1060 -844 CURVE SMOOTH",
"1227 -882 OFFCURVE",
"1344 -918 OFFCURVE",
"1409 -951 CURVE SMOOTH",
"1474 -984 OFFCURVE",
"1507 -1023 OFFCURVE",
"1510 -1068 CURVE",
"1500 -1100 LINE",
"1580 -1120 LINE"
);
},
{
closed = 1;
nodes = (
"1500 -876 OFFCURVE",
"1354 -818 OFFCURVE",
"1112 -763 CURVE SMOOTH",
"869 -708 OFFCURVE",
"703 -656 OFFCURVE",
"614 -606 CURVE SMOOTH",
"525 -556 OFFCURVE",
"480 -498 OFFCURVE",
"480 -432 CURVE SMOOTH",
"480 -337 OFFCURVE",
"547 -290 OFFCURVE",
"681 -290 CURVE SMOOTH",
"794 -290 OFFCURVE",
"953 -321 OFFCURVE",
"1158 -383 CURVE SMOOTH",
"1363 -446 OFFCURVE",
"1530 -484 OFFCURVE",
"1659 -499 CURVE",
"1633 -631 OFFCURVE",
"1597 -776 OFFCURVE",
"1551 -935 CURVE"
);
}
);
width = 1940;
}
);
note = uni1B52;
unicode = 1B52;
},
{
glyphname = uni1B53;
lastChange = "2016-11-10 14:12:45 +0000";
layers = (
{
layerId = "BB284FF0-04DD-4FE7-B9B3-843DE156013A";
paths = (
{
closed = 1;
nodes = (
"1154 -1118 LINE",
"1154 -822 LINE SMOOTH",
"1154 -595 OFFCURVE",
"1269 -488 OFFCURVE",
"1544 -488 CURVE SMOOTH",
"1817 -488 OFFCURVE",
"1934 -590 OFFCURVE",
"1934 -826 CURVE SMOOTH",
"1934 -1118 LINE",
"2014 -1118 LINE",
"2014 -823 LINE SMOOTH",
"2014 -482 OFFCURVE",
"1844 -318 OFFCURVE",
"1543 -318 CURVE SMOOTH",
"1236 -318 OFFCURVE",
"1074 -495 OFFCURVE",
"1074 -822 CURVE SMOOTH",
"1074 -948 LINE",
"1048 -948 LINE SMOOTH",
"933 -948 OFFCURVE",
"841 -815 OFFCURVE",
"841 -683 CURVE SMOOTH",
"841 -543 OFFCURVE",
"910 -418 OFFCURVE",
"1191 -210 CURVE SMOOTH",
"1332 -107 OFFCURVE",
"1446 -9 OFFCURVE",
"1535 84 CURVE SMOOTH",
"1712 268 OFFCURVE",
"1793 475 OFFCURVE",
"1793 714 CURVE SMOOTH",
"1793 971 OFFCURVE",
"1674 1118 OFFCURVE",
"1470 1118 CURVE SMOOTH",
"1348 1118 OFFCURVE",
"1265 1049 OFFCURVE",
"1220 912 CURVE",
"1176 1049 OFFCURVE",
"1093 1118 OFFCURVE",
"971 1118 CURVE SMOOTH",
"748 1118 OFFCURVE",
"660 981 OFFCURVE",
"660 616 CURVE SMOOTH",
"660 170 LINE",
"634 170 LINE SMOOTH",
"542 170 OFFCURVE",
"488 256 OFFCURVE",
"488 417 CURVE SMOOTH",
"488 653 LINE SMOOTH",
"488 838 OFFCURVE",
"471 961 OFFCURVE",
"438 1024 CURVE SMOOTH",
"404 1087 OFFCURVE",
"353 1118 OFFCURVE",
"286 1118 CURVE SMOOTH",
"219 1118 OFFCURVE",
"168 1085 OFFCURVE",
"133 1019 CURVE SMOOTH",
"98 953 OFFCURVE",
"80 842 OFFCURVE",
"80 686 CURVE",
"116 680 LINE",
"126 680 OFFCURVE",
"141 683 OFFCURVE",
"160 688 CURVE",
"161 773 OFFCURVE",
"166 830 OFFCURVE",
"173 859 CURVE SMOOTH",
"188 917 OFFCURVE",
"222 948 OFFCURVE",
"289 948 CURVE SMOOTH",
"333 948 OFFCURVE",
"364 928 OFFCURVE",
"382 887 CURVE SMOOTH",
"399 846 OFFCURVE",
"408 770 OFFCURVE",
"408 660 CURVE SMOOTH",
"408 465 LINE SMOOTH",
"408 330 OFFCURVE",
"417 234 OFFCURVE",
"435 175 CURVE SMOOTH",
"470 57 OFFCURVE",
"556 0 OFFCURVE",
"693 0 CURVE SMOOTH",
"740 0 LINE",
"740 616 LINE SMOOTH",
"740 845 OFFCURVE",
"803 948 OFFCURVE",
"971 948 CURVE SMOOTH",
"1086 948 OFFCURVE",
"1186 845 OFFCURVE",
"1186 733 CURVE",
"1255 733 LINE",
"1267 865 OFFCURVE",
"1357 948 OFFCURVE",
"1470 948 CURVE SMOOTH",
"1609 948 OFFCURVE",
"1693 862 OFFCURVE",
"1693 721 CURVE SMOOTH",
"1693 496 OFFCURVE",
"1588 319 OFFCURVE",
"1217 23 CURVE SMOOTH",
"845 -274 OFFCURVE",
"741 -451 OFFCURVE",
"741 -676 CURVE SMOOTH",
"741 -956 OFFCURVE",
"879 -1118 OFFCURVE",
"1107 -1118 CURVE SMOOTH"
);
}
);
width = 2014;
}
);
note = uni1B53;
unicode = 1B53;
},
{
glyphname = uni1B54;
lastChange = "2016-11-10 14:12:45 +0000";
layers = (
{
layerId = "BB284FF0-04DD-4FE7-B9B3-843DE156013A";
paths = (
{
closed = 1;
nodes = (
"797 -20 OFFCURVE",
"940 118 OFFCURVE",
"940 321 CURVE SMOOTH",
"940 422 OFFCURVE",
"880 503 OFFCURVE",
"773 536 CURVE",
"852 587 OFFCURVE",
"892 663 OFFCURVE",
"892 764 CURVE SMOOTH",
"892 877 OFFCURVE",
"801 960 OFFCURVE",
"684 960 CURVE SMOOTH",
"579 960 OFFCURVE",
"485 866 OFFCURVE",
"440 726 CURVE",
"476 700 LINE",
"515 763 OFFCURVE",
"572 790 OFFCURVE",
"665 790 CURVE SMOOTH",
"736 790 OFFCURVE",
"792 751 OFFCURVE",
"792 691 CURVE SMOOTH",
"792 631 OFFCURVE",
"717 566 OFFCURVE",
"620 555 CURVE",
"543 555 LINE",
"533 475 LINE",
"625 475 LINE SMOOTH",
"766 475 OFFCURVE",
"840 419 OFFCURVE",
"840 332 CURVE SMOOTH",
"840 212 OFFCURVE",
"765 150 OFFCURVE",
"580 150 CURVE SMOOTH",
"336 150 OFFCURVE",
"200 310 OFFCURVE",
"200 605 CURVE SMOOTH",
"200 776 OFFCURVE",
"259 922 OFFCURVE",
"351 1025 CURVE",
"274 1068 LINE",
"159 948 OFFCURVE",
"100 782 OFFCURVE",
"100 597 CURVE SMOOTH",
"100 249 OFFCURVE",
"308 -20 OFFCURVE",
"580 -20 CURVE SMOOTH"
);
}
);
width = 1040;
}
);
note = uni1B54;
unicode = 1B54;
},
{
glyphname = uni1B55;
lastChange = "2016-11-10 14:12:45 +0000";
layers = (
{
layerId = "BB284FF0-04DD-4FE7-B9B3-843DE156013A";
paths = (
{
closed = 1;
nodes = (
"1240 -1079 LINE",
"1228 -1047 LINE",
"1156 -876 OFFCURVE",
"1106 -677 OFFCURVE",
"1106 -513 CURVE SMOOTH",
"1106 -368 OFFCURVE",
"1127 -184 OFFCURVE",
"1168 39 CURVE SMOOTH",
"1209 261 OFFCURVE",
"1230 437 OFFCURVE",
"1230 567 CURVE SMOOTH",
"1230 979 OFFCURVE",
"1030 1210 OFFCURVE",
"689 1210 CURVE SMOOTH",
"583 1210 OFFCURVE",
"483 1183 OFFCURVE",
"389 1128 CURVE SMOOTH",
"200 1019 OFFCURVE",
"100 830 OFFCURVE",
"100 597 CURVE SMOOTH",
"100 249 OFFCURVE",
"308 -20 OFFCURVE",
"580 -20 CURVE SMOOTH",
"797 -20 OFFCURVE",
"940 118 OFFCURVE",
"940 321 CURVE SMOOTH",
"940 422 OFFCURVE",
"880 503 OFFCURVE",
"773 536 CURVE",
"852 587 OFFCURVE",
"892 663 OFFCURVE",
"892 764 CURVE SMOOTH",
"892 877 OFFCURVE",
"801 960 OFFCURVE",
"684 960 CURVE SMOOTH",
"579 960 OFFCURVE",
"485 866 OFFCURVE",
"440 726 CURVE",
"476 700 LINE",
"515 763 OFFCURVE",
"572 790 OFFCURVE",
"665 790 CURVE SMOOTH",
"736 790 OFFCURVE",
"792 751 OFFCURVE",
"792 691 CURVE SMOOTH",
"792 631 OFFCURVE",
"717 566 OFFCURVE",
"620 555 CURVE",
"543 555 LINE",
"533 475 LINE",
"625 475 LINE SMOOTH",
"766 475 OFFCURVE",
"840 419 OFFCURVE",
"840 332 CURVE SMOOTH",
"840 212 OFFCURVE",
"765 150 OFFCURVE",
"580 150 CURVE SMOOTH",
"336 150 OFFCURVE",
"200 310 OFFCURVE",
"200 605 CURVE SMOOTH",
"200 906 OFFCURVE",
"415 1110 OFFCURVE",
"691 1110 CURVE SMOOTH",
"979 1110 OFFCURVE",
"1130 918 OFFCURVE",
"1130 579 CURVE SMOOTH",
"1130 400 OFFCURVE",
"1109 216 OFFCURVE",
"1068 27 CURVE SMOOTH",
"1027 -162 OFFCURVE",
"1006 -338 OFFCURVE",
"1006 -503 CURVE SMOOTH",
"1006 -723 OFFCURVE",
"1116 -1046 OFFCURVE",
"1173 -1118 CURVE"
);
}
);
width = 1340;
}
);
note = uni1B55;
unicode = 1B55;
},
{
glyphname = uni1B56;
lastChange = "2016-11-10 14:12:45 +0000";
layers = (
{
layerId = "BB284FF0-04DD-4FE7-B9B3-843DE156013A";
paths = (
{
closed = 1;
nodes = (
"393 25 LINE SMOOTH",
"393 270 OFFCURVE",
"557 431 OFFCURVE",
"822 431 CURVE SMOOTH",
"1085 431 OFFCURVE",
"1251 284 OFFCURVE",
"1251 44 CURVE SMOOTH",
"1251 12 LINE",
"1249 -20 LINE",
"1350 1 LINE",
"1351 26 LINE",
"1351 52 LINE SMOOTH",
"1351 371 OFFCURVE",
"1134 601 OFFCURVE",
"819 601 CURVE SMOOTH",
"579 601 OFFCURVE",
"384 436 OFFCURVE",
"329 185 CURVE",
"256 265 OFFCURVE",
"220 385 OFFCURVE",
"220 545 CURVE SMOOTH",
"220 846 OFFCURVE",
"435 1050 OFFCURVE",
"711 1050 CURVE SMOOTH",
"742 1050 OFFCURVE",
"776 1048 OFFCURVE",
"813 1043 CURVE",
"836 1139 LINE",
"792 1146 OFFCURVE",
"750 1150 OFFCURVE",
"709 1150 CURVE SMOOTH",
"603 1150 OFFCURVE",
"503 1123 OFFCURVE",
"409 1068 CURVE SMOOTH",
"220 959 OFFCURVE",
"120 770 OFFCURVE",
"120 537 CURVE SMOOTH",
"120 293 OFFCURVE",
"221 79 OFFCURVE",
"393 -24 CURVE"
);
}
);
width = 1471;
}
);
note = uni1B56;
unicode = 1B56;
},
{
glyphname = uni1B57;
lastChange = "2016-11-10 14:12:45 +0000";
layers = (
{
layerId = "BB284FF0-04DD-4FE7-B9B3-843DE156013A";
paths = (
{
closed = 1;
nodes = (
"1843 -20 OFFCURVE",
"1940 114 OFFCURVE",
"1940 483 CURVE SMOOTH",
"1940 901 LINE",
"2101 905 OFFCURVE",
"2221 1052 OFFCURVE",
"2238 1280 CURVE",
"2169 1323 LINE",
"2156 1167 OFFCURVE",
"2057 1072 OFFCURVE",
"1940 1072 CURVE",
"1933 1276 OFFCURVE",
"1840 1430 OFFCURVE",
"1712 1430 CURVE SMOOTH",
"1607 1430 OFFCURVE",
"1542 1359 OFFCURVE",
"1542 1246 CURVE SMOOTH",
"1542 1065 OFFCURVE",
"1668 931 OFFCURVE",
"1860 903 CURVE",
"1860 486 LINE SMOOTH",
"1860 231 OFFCURVE",
"1791 150 OFFCURVE",
"1600 150 CURVE SMOOTH",
"1388 150 OFFCURVE",
"1340 219 OFFCURVE",
"1340 482 CURVE SMOOTH",
"1340 615 LINE SMOOTH",
"1340 980 OFFCURVE",
"1244 1118 OFFCURVE",
"999 1118 CURVE SMOOTH",
"755 1118 OFFCURVE",
"660 983 OFFCURVE",
"660 616 CURVE SMOOTH",
"660 170 LINE",
"634 170 LINE SMOOTH",
"542 170 OFFCURVE",
"488 256 OFFCURVE",
"488 417 CURVE SMOOTH",
"488 653 LINE SMOOTH",
"488 838 OFFCURVE",
"471 961 OFFCURVE",
"438 1024 CURVE SMOOTH",
"404 1087 OFFCURVE",
"353 1118 OFFCURVE",
"286 1118 CURVE SMOOTH",
"219 1118 OFFCURVE",
"168 1085 OFFCURVE",
"133 1019 CURVE SMOOTH",
"98 953 OFFCURVE",
"80 842 OFFCURVE",
"80 686 CURVE",
"116 680 LINE",
"126 680 OFFCURVE",
"141 683 OFFCURVE",
"160 688 CURVE",
"161 773 OFFCURVE",
"166 830 OFFCURVE",
"173 859 CURVE SMOOTH",
"188 917 OFFCURVE",
"222 948 OFFCURVE",
"289 948 CURVE SMOOTH",
"333 948 OFFCURVE",
"364 928 OFFCURVE",
"382 887 CURVE SMOOTH",
"399 846 OFFCURVE",
"408 770 OFFCURVE",
"408 660 CURVE SMOOTH",
"408 465 LINE SMOOTH",
"408 330 OFFCURVE",
"417 234 OFFCURVE",
"435 175 CURVE SMOOTH",
"470 57 OFFCURVE",
"556 0 OFFCURVE",
"693 0 CURVE SMOOTH",
"740 0 LINE",
"740 616 LINE SMOOTH",
"740 709 OFFCURVE",
"748 778 OFFCURVE",
"763 823 CURVE SMOOTH",
"793 913 OFFCURVE",
"852 948 OFFCURVE",
"1000 948 CURVE SMOOTH",
"1192 948 OFFCURVE",
"1260 868 OFFCURVE",
"1260 612 CURVE SMOOTH",
"1260 482 LINE SMOOTH",
"1260 118 OFFCURVE",
"1354 -20 OFFCURVE",
"1599 -20 CURVE SMOOTH"
);
},
{
closed = 1;
nodes = (
"1715 1084 OFFCURVE",
"1632 1146 OFFCURVE",
"1632 1247 CURVE SMOOTH",
"1632 1302 OFFCURVE",
"1660 1330 OFFCURVE",
"1716 1330 CURVE SMOOTH",
"1789 1330 OFFCURVE",
"1855 1221 OFFCURVE",
"1860 1072 CURVE"
);
}
);
width = 2238;
}
);
note = uni1B57;
unicode = 1B57;
},
{
glyphname = uni1B58;
lastChange = "2016-11-10 14:12:45 +0000";
layers = (
{
layerId = "BB284FF0-04DD-4FE7-B9B3-843DE156013A";
paths = (
{
closed = 1;
nodes = (
"1124 -20 OFFCURVE",
"1268 155 OFFCURVE",
"1268 482 CURVE SMOOTH",
"1268 901 LINE",
"1429 905 OFFCURVE",
"1549 1052 OFFCURVE",
"1566 1280 CURVE",
"1497 1323 LINE",
"1484 1167 OFFCURVE",
"1385 1072 OFFCURVE",
"1268 1072 CURVE",
"1261 1276 OFFCURVE",
"1168 1430 OFFCURVE",
"1040 1430 CURVE SMOOTH",
"935 1430 OFFCURVE",
"870 1359 OFFCURVE",
"870 1246 CURVE SMOOTH",
"870 1065 OFFCURVE",
"996 931 OFFCURVE",
"1188 903 CURVE",
"1188 482 LINE SMOOTH",
"1188 255 OFFCURVE",
"1087 150 OFFCURVE",
"838 150 CURVE SMOOTH",
"590 150 OFFCURVE",
"488 246 OFFCURVE",
"488 486 CURVE SMOOTH",
"488 653 LINE SMOOTH",
"488 838 OFFCURVE",
"471 961 OFFCURVE",
"438 1024 CURVE SMOOTH",
"404 1087 OFFCURVE",
"353 1118 OFFCURVE",
"286 1118 CURVE SMOOTH",
"219 1118 OFFCURVE",
"168 1085 OFFCURVE",
"133 1019 CURVE SMOOTH",
"98 953 OFFCURVE",
"80 842 OFFCURVE",
"80 686 CURVE",
"116 680 LINE",
"126 680 OFFCURVE",
"141 683 OFFCURVE",
"160 688 CURVE",
"161 773 OFFCURVE",
"166 830 OFFCURVE",
"173 859 CURVE SMOOTH",
"188 917 OFFCURVE",
"222 948 OFFCURVE",
"289 948 CURVE SMOOTH",
"333 948 OFFCURVE",
"364 928 OFFCURVE",
"382 887 CURVE SMOOTH",
"399 846 OFFCURVE",
"408 770 OFFCURVE",
"408 660 CURVE SMOOTH",
"408 464 LINE SMOOTH",
"408 148 OFFCURVE",
"552 -20 OFFCURVE",
"839 -20 CURVE SMOOTH"
);
},
{
closed = 1;
nodes = (
"1043 1084 OFFCURVE",
"960 1146 OFFCURVE",
"960 1247 CURVE SMOOTH",
"960 1302 OFFCURVE",
"988 1330 OFFCURVE",
"1044 1330 CURVE SMOOTH",
"1117 1330 OFFCURVE",
"1183 1221 OFFCURVE",
"1188 1072 CURVE"
);
}
);
width = 1566;
}
);
note = uni1B58;
unicode = 1B58;
},
{
glyphname = uni1B59;
lastChange = "2016-11-10 14:12:45 +0000";
layers = (
{
layerId = "BB284FF0-04DD-4FE7-B9B3-843DE156013A";
paths = (
{
closed = 1;
nodes = (
"832 -20 OFFCURVE",
"932 116 OFFCURVE",
"982 388 CURVE",
"1032 116 OFFCURVE",
"1132 -20 OFFCURVE",
"1283 -20 CURVE SMOOTH",
"1455 -20 OFFCURVE",
"1549 133 OFFCURVE",
"1549 410 CURVE SMOOTH",
"1549 901 LINE",
"1710 905 OFFCURVE",
"1830 1052 OFFCURVE",
"1847 1280 CURVE",
"1778 1323 LINE",
"1765 1167 OFFCURVE",
"1666 1072 OFFCURVE",
"1549 1072 CURVE",
"1542 1276 OFFCURVE",
"1449 1430 OFFCURVE",
"1321 1430 CURVE SMOOTH",
"1216 1430 OFFCURVE",
"1151 1359 OFFCURVE",
"1151 1246 CURVE SMOOTH",
"1151 1065 OFFCURVE",
"1277 931 OFFCURVE",
"1469 903 CURVE",
"1469 439 LINE SMOOTH",
"1469 252 OFFCURVE",
"1414 150 OFFCURVE",
"1277 150 CURVE SMOOTH",
"1196 150 OFFCURVE",
"1133 218 OFFCURVE",
"1090 353 CURVE SMOOTH",
"1046 488 OFFCURVE",
"1024 707 OFFCURVE",
"1024 1010 CURVE",
"940 1010 LINE",
"938 858 LINE SMOOTH",
"934 631 OFFCURVE",
"911 457 OFFCURVE",
"868 334 CURVE SMOOTH",
"825 211 OFFCURVE",
"765 150 OFFCURVE",
"687 150 CURVE SMOOTH",
"558 150 OFFCURVE",
"495 239 OFFCURVE",
"495 439 CURVE SMOOTH",
"495 652 LINE SMOOTH",
"495 819 OFFCURVE",
"480 939 OFFCURVE",
"449 1011 CURVE SMOOTH",
"418 1082 OFFCURVE",
"371 1118 OFFCURVE",
"309 1118 CURVE SMOOTH",
"238 1118 OFFCURVE",
"182 1088 OFFCURVE",
"141 1028 CURVE SMOOTH",
"100 967 OFFCURVE",
"80 853 OFFCURVE",
"80 686 CURVE",
"116 680 LINE",
"126 680 OFFCURVE",
"141 683 OFFCURVE",
"160 688 CURVE",
"162 800 OFFCURVE",
"174 871 OFFCURVE",
"196 902 CURVE SMOOTH",
"217 933 OFFCURVE",
"251 948 OFFCURVE",
"298 948 CURVE SMOOTH",
"338 948 OFFCURVE",
"368 926 OFFCURVE",
"387 881 CURVE SMOOTH",
"406 836 OFFCURVE",
"415 762 OFFCURVE",
"415 659 CURVE SMOOTH",
"415 410 LINE SMOOTH",
"415 134 OFFCURVE",
"508 -20 OFFCURVE",
"681 -20 CURVE SMOOTH"
);
},
{
closed = 1;
nodes = (
"1324 1084 OFFCURVE",
"1241 1146 OFFCURVE",
"1241 1247 CURVE SMOOTH",
"1241 1302 OFFCURVE",
"1269 1330 OFFCURVE",
"1325 1330 CURVE SMOOTH",
"1398 1330 OFFCURVE",
"1464 1221 OFFCURVE",
"1469 1072 CURVE"
);
}
);
width = 1847;
}
);
note = uni1B59;
unicode = 1B59;
},
{
glyphname = uni1B5A;
lastChange = "2016-11-10 14:12:45 +0000";
layers = (
{
layerId = "BB284FF0-04DD-4FE7-B9B3-843DE156013A";
paths = (
{
closed = 1;
nodes = (
"2177 -320 OFFCURVE",
"2228 -284 OFFCURVE",
"2263 -211 CURVE SMOOTH",
"2298 -139 OFFCURVE",
"2316 -21 OFFCURVE",
"2316 142 CURVE",
"2280 148 LINE",
"2270 148 OFFCURVE",
"2255 145 OFFCURVE",
"2236 140 CURVE",
"2235 61 OFFCURVE",
"2231 4 OFFCURVE",
"2225 -31 CURVE SMOOTH",
"2213 -102 OFFCURVE",
"2179 -150 OFFCURVE",
"2107 -150 CURVE SMOOTH",
"2063 -150 OFFCURVE",
"2032 -129 OFFCURVE",
"2015 -88 CURVE SMOOTH",
"1997 -47 OFFCURVE",
"1988 28 OFFCURVE",
"1988 138 CURVE SMOOTH",
"1988 616 LINE SMOOTH",
"1988 989 OFFCURVE",
"1910 1118 OFFCURVE",
"1699 1118 CURVE SMOOTH",
"1488 1118 OFFCURVE",
"1408 991 OFFCURVE",
"1408 615 CURVE SMOOTH",
"1408 486 LINE SMOOTH",
"1408 221 OFFCURVE",
"1349 150 OFFCURVE",
"1198 150 CURVE SMOOTH",
"1022 150 OFFCURVE",
"988 231 OFFCURVE",
"988 482 CURVE SMOOTH",
"988 615 LINE SMOOTH",
"988 994 OFFCURVE",
"909 1118 OFFCURVE",
"697 1118 CURVE SMOOTH",
"486 1118 OFFCURVE",
"408 988 OFFCURVE",
"408 616 CURVE SMOOTH",
"408 438 LINE SMOOTH",
"408 327 OFFCURVE",
"399 252 OFFCURVE",
"382 211 CURVE SMOOTH",
"364 170 OFFCURVE",
"333 150 OFFCURVE",
"289 150 CURVE SMOOTH",
"225 150 OFFCURVE",
"191 187 OFFCURVE",
"175 252 CURVE SMOOTH",
"166 284 OFFCURVE",
"161 347 OFFCURVE",
"160 440 CURVE",
"141 445 OFFCURVE",
"126 448 OFFCURVE",
"116 448 CURVE",
"80 442 LINE",
"80 278 OFFCURVE",
"98 160 OFFCURVE",
"133 88 CURVE SMOOTH",
"168 16 OFFCURVE",
"219 -20 OFFCURVE",
"286 -20 CURVE SMOOTH",
"353 -20 OFFCURVE",
"403 12 OFFCURVE",
"437 75 CURVE SMOOTH",
"471 138 OFFCURVE",
"488 261 OFFCURVE",
"488 445 CURVE SMOOTH",
"488 616 LINE SMOOTH",
"488 868 OFFCURVE",
"521 948 OFFCURVE",
"698 948 CURVE SMOOTH",
"846 948 OFFCURVE",
"908 880 OFFCURVE",
"908 612 CURVE SMOOTH",
"908 482 LINE SMOOTH",
"908 109 OFFCURVE",
"986 -20 OFFCURVE",
"1197 -20 CURVE SMOOTH",
"1408 -20 OFFCURVE",
"1488 104 OFFCURVE",
"1488 483 CURVE SMOOTH",
"1488 612 LINE SMOOTH",
"1488 876 OFFCURVE",
"1546 948 OFFCURVE",
"1698 948 CURVE SMOOTH",
"1874 948 OFFCURVE",
"1908 867 OFFCURVE",
"1908 616 CURVE SMOOTH",
"1908 145 LINE SMOOTH",
"1908 -40 OFFCURVE",
"1925 -163 OFFCURVE",
"1959 -226 CURVE SMOOTH",
"1992 -289 OFFCURVE",
"2043 -320 OFFCURVE",
"2110 -320 CURVE SMOOTH"
);
}
);
width = 2396;
}
);
note = uni1B5A;
unicode = 1B5A;
},
{
glyphname = uni1B5B;
lastChange = "2016-11-10 14:12:45 +0000";
layers = (
{
layerId = "BB284FF0-04DD-4FE7-B9B3-843DE156013A";
paths = (
{
closed = 1;
nodes = (
"1020 -1118 OFFCURVE",
"1098 -1060 OFFCURVE",
"1143 -979 CURVE SMOOTH",
"1188 -899 OFFCURVE",
"1245 -810 OFFCURVE",
"1332 -810 CURVE SMOOTH",
"1397 -810 OFFCURVE",
"1457 -861 OFFCURVE",
"1513 -964 CURVE SMOOTH",
"1568 -1067 OFFCURVE",
"1643 -1118 OFFCURVE",
"1736 -1118 CURVE SMOOTH",
"1928 -1118 OFFCURVE",
"2028 -956 OFFCURVE",
"2028 -664 CURVE SMOOTH",
"2028 -127 LINE",
"2094 -144 OFFCURVE",
"2152 -171 OFFCURVE",
"2203 -210 CURVE",
"2203 -1088 LINE",
"2283 -1088 LINE",
"2283 -287 LINE",
"2372 -394 OFFCURVE",
"2430 -538 OFFCURVE",
"2482 -710 CURVE",
"2545 -686 LINE",
"2444 -358 OFFCURVE",
"2374 -242 OFFCURVE",
"2283 -141 CURVE",
"2283 635 LINE SMOOTH",
"2283 768 OFFCURVE",
"2274 865 OFFCURVE",
"2256 925 CURVE SMOOTH",
"2219 1044 OFFCURVE",
"2135 1100 OFFCURVE",
"1995 1100 CURVE SMOOTH",
"1948 1100 LINE",
"1948 38 LINE",
"1893 41 LINE",
"1757 41 OFFCURVE",
"1669 -27 OFFCURVE",
"1669 -139 CURVE SMOOTH",
"1669 -174 OFFCURVE",
"1682 -212 OFFCURVE",
"1708 -255 CURVE SMOOTH",
"1734 -298 OFFCURVE",
"1747 -333 OFFCURVE",
"1747 -359 CURVE SMOOTH",
"1747 -423 OFFCURVE",
"1692 -471 OFFCURVE",
"1601 -471 CURVE SMOOTH",
"1469 -471 OFFCURVE",
"1379 -390 OFFCURVE",
"1346 -241 CURVE",
"1308 -267 LINE",
"1329 -460 OFFCURVE",
"1463 -621 OFFCURVE",
"1599 -621 CURVE SMOOTH",
"1735 -621 OFFCURVE",
"1832 -529 OFFCURVE",
"1832 -405 CURVE SMOOTH",
"1832 -362 OFFCURVE",
"1819 -317 OFFCURVE",
"1793 -270 CURVE SMOOTH",
"1767 -224 OFFCURVE",
"1754 -190 OFFCURVE",
"1754 -169 CURVE SMOOTH",
"1754 -129 OFFCURVE",
"1792 -109 OFFCURVE",
"1867 -109 CURVE SMOOTH",
"1894 -109 OFFCURVE",
"1921 -110 OFFCURVE",
"1948 -113 CURVE",
"1948 -661 LINE SMOOTH",
"1948 -852 OFFCURVE",
"1875 -948 OFFCURVE",
"1728 -948 CURVE SMOOTH",
"1639 -948 OFFCURVE",
"1564 -894 OFFCURVE",
"1516 -811 CURVE SMOOTH",
"1468 -728 OFFCURVE",
"1413 -640 OFFCURVE",
"1333 -640 CURVE SMOOTH",
"1279 -640 OFFCURVE",
"1230 -678 OFFCURVE",
"1186 -755 CURVE SMOOTH",
"1097 -908 OFFCURVE",
"1029 -948 OFFCURVE",
"937 -948 CURVE SMOOTH",
"772 -948 OFFCURVE",
"680 -834 OFFCURVE",
"680 -638 CURVE SMOOTH",
"680 -466 OFFCURVE",
"732 -273 OFFCURVE",
"820 -141 CURVE",
"736 -125 LINE",
"632 -312 OFFCURVE",
"580 -501 OFFCURVE",
"580 -694 CURVE SMOOTH",
"580 -965 OFFCURVE",
"700 -1118 OFFCURVE",
"929 -1118 CURVE SMOOTH"
);
},
{
closed = 1;
nodes = (
"740 100 LINE",
"740 616 LINE SMOOTH",
"740 845 OFFCURVE",
"803 948 OFFCURVE",
"971 948 CURVE SMOOTH",
"1086 948 OFFCURVE",
"1186 845 OFFCURVE",
"1186 733 CURVE",
"1255 733 LINE",
"1267 865 OFFCURVE",
"1357 948 OFFCURVE",
"1470 948 CURVE SMOOTH",
"1638 948 OFFCURVE",
"1700 845 OFFCURVE",
"1700 616 CURVE SMOOTH",
"1700 100 LINE",
"1780 100 LINE",
"1780 616 LINE SMOOTH",
"1780 981 OFFCURVE",
"1694 1118 OFFCURVE",
"1470 1118 CURVE SMOOTH",
"1348 1118 OFFCURVE",
"1265 1049 OFFCURVE",
"1220 912 CURVE",
"1176 1049 OFFCURVE",
"1093 1118 OFFCURVE",
"971 1118 CURVE SMOOTH",
"748 1118 OFFCURVE",
"660 981 OFFCURVE",
"660 616 CURVE SMOOTH",
"660 270 LINE",
"634 270 LINE SMOOTH",
"537 270 OFFCURVE",
"488 346 OFFCURVE",
"488 497 CURVE SMOOTH",
"488 653 LINE SMOOTH",
"488 838 OFFCURVE",
"471 961 OFFCURVE",
"438 1024 CURVE SMOOTH",
"404 1087 OFFCURVE",
"353 1118 OFFCURVE",
"286 1118 CURVE SMOOTH",
"219 1118 OFFCURVE",
"168 1085 OFFCURVE",
"133 1019 CURVE SMOOTH",
"98 953 OFFCURVE",
"80 842 OFFCURVE",
"80 686 CURVE",
"116 680 LINE",
"126 680 OFFCURVE",
"141 683 OFFCURVE",
"160 688 CURVE",
"161 773 OFFCURVE",
"166 830 OFFCURVE",
"173 859 CURVE SMOOTH",
"188 917 OFFCURVE",
"222 948 OFFCURVE",
"289 948 CURVE SMOOTH",
"333 948 OFFCURVE",
"364 928 OFFCURVE",
"382 887 CURVE SMOOTH",
"399 846 OFFCURVE",
"408 770 OFFCURVE",
"408 660 CURVE SMOOTH",
"408 545 LINE SMOOTH",
"408 410 OFFCURVE",
"417 316 OFFCURVE",
"434 263 CURVE SMOOTH",
"469 158 OFFCURVE",
"545 100 OFFCURVE",
"693 100 CURVE SMOOTH"
);
},
{
closed = 1;
nodes = (
"2149 -24 OFFCURVE",
"2091 6 OFFCURVE",
"2028 23 CURVE",
"2028 930 LINE",
"2054 930 LINE SMOOTH",
"2153 930 OFFCURVE",
"2203 829 OFFCURVE",
"2203 626 CURVE SMOOTH",
"2203 -65 LINE"
);
}
);
width = 2645;
}
);
note = uni1B5B;
unicode = 1B5B;
},
{
glyphname = uni1B5C;
lastChange = "2016-11-10 14:12:45 +0000";
layers = (
{
layerId = "BB284FF0-04DD-4FE7-B9B3-843DE156013A";
paths = (
{
closed = 1;
nodes = (
"518 482 OFFCURVE",
"627 626 OFFCURVE",
"627 857 CURVE SMOOTH",
"627 1092 OFFCURVE",
"517 1239 OFFCURVE",
"342 1239 CURVE SMOOTH",
"165 1239 OFFCURVE",
"50 1089 OFFCURVE",
"50 857 CURVE SMOOTH",
"50 626 OFFCURVE",
"162 482 OFFCURVE",
"342 482 CURVE SMOOTH"
);
},
{
closed = 1;
nodes = (
"207 652 OFFCURVE",
"130 730 OFFCURVE",
"130 861 CURVE SMOOTH",
"130 993 OFFCURVE",
"206 1069 OFFCURVE",
"338 1069 CURVE SMOOTH",
"470 1069 OFFCURVE",
"547 993 OFFCURVE",
"547 861 CURVE SMOOTH",
"547 729 OFFCURVE",
"470 652 OFFCURVE",
"338 652 CURVE SMOOTH"
);
}
);
width = 757;
}
);
note = uni1B5C;
unicode = 1B5C;
},
{
glyphname = uni1B5D;
lastChange = "2016-11-10 14:12:45 +0000";
layers = (
{
layerId = "BB284FF0-04DD-4FE7-B9B3-843DE156013A";
paths = (
{
closed = 1;
nodes = (
"572 580 OFFCURVE",
"739 710 OFFCURVE",
"807 885 CURVE",
"767 910 LINE",
"647 746 OFFCURVE",
"550 710 OFFCURVE",
"398 710 CURVE SMOOTH",
"339 710 OFFCURVE",
"293 717 OFFCURVE",
"260 732 CURVE SMOOTH",
"227 746 OFFCURVE",
"210 766 OFFCURVE",
"210 791 CURVE SMOOTH",
"210 824 OFFCURVE",
"233 842 OFFCURVE",
"265 842 CURVE SMOOTH",
"298 842 OFFCURVE",
"325 832 OFFCURVE",
"346 813 CURVE",
"401 891 LINE",
"377 932 OFFCURVE",
"332 962 OFFCURVE",
"281 962 CURVE SMOOTH",
"188 962 OFFCURVE",
"130 896 OFFCURVE",
"130 796 CURVE SMOOTH",
"130 669 OFFCURVE",
"248 580 OFFCURVE",
"400 580 CURVE SMOOTH"
);
},
{
closed = 1;
nodes = (
"572 110 OFFCURVE",
"739 240 OFFCURVE",
"807 415 CURVE",
"767 440 LINE",
"647 276 OFFCURVE",
"550 240 OFFCURVE",
"398 240 CURVE SMOOTH",
"339 240 OFFCURVE",
"293 247 OFFCURVE",
"260 262 CURVE SMOOTH",
"227 276 OFFCURVE",
"210 296 OFFCURVE",
"210 321 CURVE SMOOTH",
"210 354 OFFCURVE",
"233 372 OFFCURVE",
"265 372 CURVE SMOOTH",
"298 372 OFFCURVE",
"325 362 OFFCURVE",
"346 343 CURVE",
"401 421 LINE",
"377 462 OFFCURVE",
"332 492 OFFCURVE",
"281 492 CURVE SMOOTH",
"188 492 OFFCURVE",
"130 426 OFFCURVE",
"130 326 CURVE SMOOTH",
"130 199 OFFCURVE",
"248 110 OFFCURVE",
"400 110 CURVE SMOOTH"
);
}
);
width = 937;
}
);
note = uni1B5D;
unicode = 1B5D;
},
{
glyphname = uni1B5E;
lastChange = "2016-11-10 14:12:45 +0000";
layers = (
{
layerId = "BB284FF0-04DD-4FE7-B9B3-843DE156013A";
paths = (
{
closed = 1;
nodes = (
"805 -481 LINE",
"765 -212 OFFCURVE",
"612 406 OFFCURVE",
"512 737 CURVE SMOOTH",
"462 902 OFFCURVE",
"418 1016 OFFCURVE",
"380 1079 CURVE SMOOTH",
"342 1141 OFFCURVE",
"315 1177 OFFCURVE",
"299 1186 CURVE SMOOTH",
"282 1195 OFFCURVE",
"262 1200 OFFCURVE",
"237 1200 CURVE SMOOTH",
"215 1200 OFFCURVE",
"189 1166 OFFCURVE",
"158 1097 CURVE SMOOTH",
"127 1028 OFFCURVE",
"101 955 OFFCURVE",
"80 877 CURVE",
"130 831 LINE",
"152 882 OFFCURVE",
"171 919 OFFCURVE",
"188 940 CURVE SMOOTH",
"204 961 OFFCURVE",
"220 974 OFFCURVE",
"236 978 CURVE",
"385 838 OFFCURVE",
"589 210 OFFCURVE",
"732 -495 CURVE"
);
}
);
width = 805;
}
);
note = uni1B5E;
unicode = 1B5E;
},
{
glyphname = uni1B5F;
lastChange = "2016-11-10 14:12:45 +0000";
layers = (
{
layerId = "BB284FF0-04DD-4FE7-B9B3-843DE156013A";
paths = (
{
closed = 1;
nodes = (
"1315 -481 LINE",
"1275 -212 OFFCURVE",
"1122 406 OFFCURVE",
"1022 737 CURVE SMOOTH",
"972 902 OFFCURVE",
"928 1016 OFFCURVE",
"890 1079 CURVE SMOOTH",
"852 1141 OFFCURVE",
"825 1177 OFFCURVE",
"809 1186 CURVE SMOOTH",
"792 1195 OFFCURVE",
"772 1200 OFFCURVE",
"747 1200 CURVE SMOOTH",
"725 1200 OFFCURVE",
"699 1166 OFFCURVE",
"668 1097 CURVE SMOOTH",
"637 1028 OFFCURVE",
"611 955 OFFCURVE",
"590 877 CURVE",
"640 831 LINE",
"662 882 OFFCURVE",
"681 919 OFFCURVE",
"698 940 CURVE SMOOTH",
"714 961 OFFCURVE",
"730 974 OFFCURVE",
"746 978 CURVE",
"819 909 OFFCURVE",
"901 741 OFFCURVE",
"991 474 CURVE SMOOTH",
"1080 207 OFFCURVE",
"1164 -116 OFFCURVE",
"1242 -495 CURVE"
);
},
{
closed = 1;
nodes = (
"805 -481 LINE",
"765 -212 OFFCURVE",
"612 406 OFFCURVE",
"512 737 CURVE SMOOTH",
"462 902 OFFCURVE",
"418 1016 OFFCURVE",
"380 1079 CURVE SMOOTH",
"342 1141 OFFCURVE",
"315 1177 OFFCURVE",
"299 1186 CURVE SMOOTH",
"282 1195 OFFCURVE",
"262 1200 OFFCURVE",
"237 1200 CURVE SMOOTH",
"215 1200 OFFCURVE",
"189 1166 OFFCURVE",
"158 1097 CURVE SMOOTH",
"127 1028 OFFCURVE",
"101 955 OFFCURVE",
"80 877 CURVE",
"130 831 LINE",
"152 882 OFFCURVE",
"171 919 OFFCURVE",
"188 940 CURVE SMOOTH",
"204 961 OFFCURVE",
"220 974 OFFCURVE",
"236 978 CURVE",
"385 838 OFFCURVE",
"589 210 OFFCURVE",
"732 -495 CURVE"
);
}
);
width = 1315;
}
);
note = uni1B5F;
unicode = 1B5F;
},
{
glyphname = uni1B60;
lastChange = "2016-11-10 14:12:45 +0000";
layers = (
{
layerId = "BB284FF0-04DD-4FE7-B9B3-843DE156013A";
paths = (
{
closed = 1;
nodes = (
"640 -20 OFFCURVE",
"783 133 OFFCURVE",
"783 325 CURVE SMOOTH",
"783 469 OFFCURVE",
"710 571 OFFCURVE",
"585 600 CURVE",
"664 644 OFFCURVE",
"704 718 OFFCURVE",
"704 823 CURVE SMOOTH",
"704 1000 OFFCURVE",
"605 1118 OFFCURVE",
"465 1118 CURVE SMOOTH",
"344 1118 OFFCURVE",
"244 1027 OFFCURVE",
"185 850 CURVE",
"226 823 LINE",
"297 919 OFFCURVE",
"360 948 OFFCURVE",
"445 948 CURVE SMOOTH",
"548 948 OFFCURVE",
"604 895 OFFCURVE",
"604 807 CURVE SMOOTH",
"604 682 OFFCURVE",
"542 625 OFFCURVE",
"382 625 CURVE SMOOTH",
"338 625 LINE",
"318 547 LINE",
"412 547 LINE SMOOTH",
"581 547 OFFCURVE",
"683 470 OFFCURVE",
"683 349 CURVE SMOOTH",
"683 221 OFFCURVE",
"595 150 OFFCURVE",
"446 150 CURVE SMOOTH",
"254 150 OFFCURVE",
"170 242 OFFCURVE",
"162 435 CURVE",
"100 421 LINE",
"113 138 OFFCURVE",
"235 -20 OFFCURVE",
"443 -20 CURVE SMOOTH"
);
}
);
width = 883;
}
);
note = uni1B60;
unicode = 1B60;
},
{
glyphname = uni1B61;
lastChange = "2016-11-10 14:12:45 +0000";
layers = (
{
layerId = "BB284FF0-04DD-4FE7-B9B3-843DE156013A";
paths = (
{
closed = 1;
nodes = (
"865 -20 OFFCURVE",
"1039 215 OFFCURVE",
"1039 562 CURVE SMOOTH",
"1039 891 OFFCURVE",
"825 1118 OFFCURVE",
"517 1118 CURVE SMOOTH",
"318 1118 OFFCURVE",
"146 1005 OFFCURVE",
"50 806 CURVE",
"121 761 LINE",
"186 881 OFFCURVE",
"332 948 OFFCURVE",
"520 948 CURVE SMOOTH",
"776 948 OFFCURVE",
"939 798 OFFCURVE",
"939 554 CURVE SMOOTH",
"939 294 OFFCURVE",
"818 94 OFFCURVE",
"659 94 CURVE SMOOTH",
"586 94 OFFCURVE",
"533 132 OFFCURVE",
"533 209 CURVE SMOOTH",
"533 253 OFFCURVE",
"550 293 OFFCURVE",
"584 328 CURVE",
"523 379 LINE",
"433 302 OFFCURVE",
"388 221 OFFCURVE",
"388 134 CURVE SMOOTH",
"388 43 OFFCURVE",
"480 -20 OFFCURVE",
"577 -20 CURVE SMOOTH"
);
}
);
width = 1139;
}
);
note = uni1B61;
unicode = 1B61;
},
{
glyphname = uni1B62;
lastChange = "2016-11-10 14:12:45 +0000";
layers = (
{
layerId = "BB284FF0-04DD-4FE7-B9B3-843DE156013A";
paths = (
{
closed = 1;
nodes = (
"620 -1079 LINE",
"611 -1047 LINE",
"588 -982 OFFCURVE",
"576 -904 OFFCURVE",
"576 -813 CURVE SMOOTH",
"576 -658 OFFCURVE",
"628 -457 OFFCURVE",
"733 -210 CURVE SMOOTH",
"838 37 OFFCURVE",
"890 284 OFFCURVE",
"890 533 CURVE SMOOTH",
"890 910 OFFCURVE",
"738 1118 OFFCURVE",
"463 1118 CURVE SMOOTH",
"211 1118 OFFCURVE",
"60 917 OFFCURVE",
"60 686 CURVE",
"96 680 LINE",
"106 680 OFFCURVE",
"121 683 OFFCURVE",
"140 688 CURVE",
"143 845 OFFCURVE",
"271 948 OFFCURVE",
"466 948 CURVE SMOOTH",
"682 948 OFFCURVE",
"790 812 OFFCURVE",
"790 540 CURVE SMOOTH",
"790 312 OFFCURVE",
"753 100 OFFCURVE",
"595 -292 CURVE SMOOTH",
"516 -488 OFFCURVE",
"476 -658 OFFCURVE",
"476 -803 CURVE SMOOTH",
"476 -888 OFFCURVE",
"513 -1063 OFFCURVE",
"553 -1118 CURVE"
);
}
);
width = 990;
}
);
note = uni1B62;
unicode = 1B62;
},
{
glyphname = uni1B63;
lastChange = "2016-11-10 14:12:45 +0000";
layers = (
{
layerId = "BB284FF0-04DD-4FE7-B9B3-843DE156013A";
paths = (
{
closed = 1;
nodes = (
"558 -60 OFFCURVE",
"730 290 OFFCURVE",
"730 834 CURVE SMOOTH",
"730 1128 LINE",
"650 1128 LINE",
"650 834 LINE SMOOTH",
"650 699 OFFCURVE",
"633 575 OFFCURVE",
"600 462 CURVE SMOOTH",
"533 237 OFFCURVE",
"411 100 OFFCURVE",
"287 100 CURVE SMOOTH",
"209 100 OFFCURVE",
"170 137 OFFCURVE",
"170 210 CURVE SMOOTH",
"170 267 OFFCURVE",
"210 344 OFFCURVE",
"289 442 CURVE SMOOTH",
"448 637 OFFCURVE",
"523 797 OFFCURVE",
"544 977 CURVE",
"488 1003 LINE",
"459 838 OFFCURVE",
"394 689 OFFCURVE",
"215 472 CURVE SMOOTH",
"125 363 OFFCURVE",
"80 268 OFFCURVE",
"80 185 CURVE SMOOTH",
"80 34 OFFCURVE",
"166 -60 OFFCURVE",
"307 -60 CURVE SMOOTH"
);
}
);
width = 860;
}
);
note = uni1B63;
unicode = 1B63;
},
{
glyphname = uni1B64;
lastChange = "2016-11-10 14:12:45 +0000";
layers = (
{
layerId = "BB284FF0-04DD-4FE7-B9B3-843DE156013A";
paths = (
{
closed = 1;
nodes = (
"902 18 LINE",
"656 634 LINE SMOOTH",
"581 819 OFFCURVE",
"516 946 OFFCURVE",
"462 1015 CURVE SMOOTH",
"407 1084 OFFCURVE",
"353 1118 OFFCURVE",
"299 1118 CURVE SMOOTH",
"174 1118 OFFCURVE",
"100 918 OFFCURVE",
"100 721 CURVE",
"180 714 LINE",
"184 829 OFFCURVE",
"240 908 OFFCURVE",
"321 908 CURVE SMOOTH",
"366 908 OFFCURVE",
"411 875 OFFCURVE",
"456 810 CURVE SMOOTH",
"501 745 OFFCURVE",
"550 648 OFFCURVE",
"601 520 CURVE SMOOTH",
"818 -21 LINE"
);
}
);
width = 982;
}
);
note = uni1B64;
unicode = 1B64;
},
{
glyphname = uni1B65;
lastChange = "2016-11-10 14:12:45 +0000";
layers = (
{
layerId = "BB284FF0-04DD-4FE7-B9B3-843DE156013A";
paths = (
{
closed = 1;
nodes = (
"1186 40 LINE",
"1033 53 OFFCURVE",
"893 102 OFFCURVE",
"767 189 CURVE SMOOTH",
"514 362 OFFCURVE",
"329 702 OFFCURVE",
"276 1090 CURVE",
"80 1134 LINE",
"89 960 OFFCURVE",
"148 780 OFFCURVE",
"256 593 CURVE SMOOTH",
"472 220 OFFCURVE",
"814 -13 OFFCURVE",
"1162 -20 CURVE"
);
}
);
width = 1246;
}
);
note = uni1B65;
unicode = 1B65;
},
{
glyphname = uni1B66;
lastChange = "2016-11-10 14:12:45 +0000";
layers = (
{
layerId = "BB284FF0-04DD-4FE7-B9B3-843DE156013A";
paths = (
{
closed = 1;
nodes = (
"498 72 LINE",
"333 131 OFFCURVE",
"230 308 OFFCURVE",
"230 547 CURVE SMOOTH",
"230 794 OFFCURVE",
"406 948 OFFCURVE",
"675 948 CURVE SMOOTH",
"962 948 OFFCURVE",
"1129 799 OFFCURVE",
"1129 547 CURVE SMOOTH",
"1129 312 OFFCURVE",
"1031 138 OFFCURVE",
"862 69 CURVE",
"899 -20 LINE",
"1103 59 OFFCURVE",
"1229 276 OFFCURVE",
"1229 544 CURVE SMOOTH",
"1229 885 OFFCURVE",
"1012 1118 OFFCURVE",
"683 1118 CURVE SMOOTH",
"350 1118 OFFCURVE",
"130 888 OFFCURVE",
"130 544 CURVE SMOOTH",
"130 264 OFFCURVE",
"255 57 OFFCURVE",
"463 -20 CURVE"
);
}
);
width = 1359;
}
);
note = uni1B66;
unicode = 1B66;
},
{
glyphname = uni1B67;
lastChange = "2016-11-10 14:12:45 +0000";
layers = (
{
layerId = "BB284FF0-04DD-4FE7-B9B3-843DE156013A";
paths = (
{
closed = 1;
nodes = (
"830 768 OFFCURVE",
"1096 948 OFFCURVE",
"1381 948 CURVE SMOOTH",
"1466 948 OFFCURVE",
"1526 931 OFFCURVE",
"1597 871 CURVE",
"814 486 LINE",
"851 416 LINE",
"1845 892 LINE",
"1758 1023 OFFCURVE",
"1594 1118 OFFCURVE",
"1434 1118 CURVE SMOOTH",
"1313 1118 OFFCURVE",
"1201 1096 OFFCURVE",
"1098 1051 CURVE SMOOTH",
"890 961 OFFCURVE",
"713 786 OFFCURVE",
"480 413 CURVE",
"526 380 LINE"
);
},
{
closed = 1;
nodes = (
"593 46 LINE",
"406 260 OFFCURVE",
"264 431 OFFCURVE",
"169 559 CURVE",
"80 467 LINE",
"189 307 OFFCURVE",
"413 86 OFFCURVE",
"550 -7 CURVE"
);
}
);
width = 1925;
}
);
note = uni1B67;
unicode = 1B67;
},
{
glyphname = uni1B68;
lastChange = "2016-11-10 14:12:45 +0000";
layers = (
{
layerId = "BB284FF0-04DD-4FE7-B9B3-843DE156013A";
paths = (
{
closed = 1;
nodes = (
"503 -607 OFFCURVE",
"662 -283 OFFCURVE",
"662 57 CURVE SMOOTH",
"662 221 OFFCURVE",
"616 330 OFFCURVE",
"475 429 CURVE SMOOTH",
"406 476 LINE SMOOTH",
"323 532 OFFCURVE",
"287 597 OFFCURVE",
"287 686 CURVE SMOOTH",
"287 786 OFFCURVE",
"325 988 OFFCURVE",
"370 1137 CURVE",
"302 1155 LINE",
"210 853 OFFCURVE",
"164 630 OFFCURVE",
"164 487 CURVE SMOOTH",
"164 391 OFFCURVE",
"218 321 OFFCURVE",
"347 233 CURVE SMOOTH",
"475 144 OFFCURVE",
"541 48 OFFCURVE",
"541 -84 CURVE SMOOTH",
"541 -328 OFFCURVE",
"385 -619 OFFCURVE",
"130 -890 CURVE",
"172 -951 LINE"
);
}
);
width = 792;
}
);
note = uni1B68;
unicode = 1B68;
},
{
glyphname = uni1B69;
lastChange = "2016-11-10 14:12:45 +0000";
layers = (
{
layerId = "BB284FF0-04DD-4FE7-B9B3-843DE156013A";
paths = (
{
closed = 1;
nodes = (
"1154 -1118 LINE",
"1154 -812 LINE SMOOTH",
"1154 -601 OFFCURVE",
"1209 -500 OFFCURVE",
"1404 -500 CURVE SMOOTH",
"1531 -500 OFFCURVE",
"1598 -560 OFFCURVE",
"1631 -692 CURVE SMOOTH",
"1648 -759 OFFCURVE",
"1669 -828 OFFCURVE",
"1694 -899 CURVE SMOOTH",
"1745 -1043 OFFCURVE",
"1821 -1118 OFFCURVE",
"1970 -1118 CURVE SMOOTH",
"2177 -1118 OFFCURVE",
"2284 -956 OFFCURVE",
"2284 -648 CURVE SMOOTH",
"2284 930 LINE",
"2310 930 LINE SMOOTH",
"2409 930 OFFCURVE",
"2459 829 OFFCURVE",
"2459 626 CURVE SMOOTH",
"2459 -1088 LINE",
"2539 -1088 LINE",
"2539 635 LINE SMOOTH",
"2539 768 OFFCURVE",
"2530 865 OFFCURVE",
"2512 925 CURVE SMOOTH",
"2475 1044 OFFCURVE",
"2391 1100 OFFCURVE",
"2251 1100 CURVE SMOOTH",
"2204 1100 LINE",
"2204 -648 LINE SMOOTH",
"2204 -847 OFFCURVE",
"2158 -948 OFFCURVE",
"1973 -948 CURVE SMOOTH",
"1818 -948 OFFCURVE",
"1749 -879 OFFCURVE",
"1709 -653 CURVE SMOOTH",
"1668 -427 OFFCURVE",
"1574 -330 OFFCURVE",
"1403 -330 CURVE SMOOTH",
"1184 -330 OFFCURVE",
"1074 -487 OFFCURVE",
"1074 -802 CURVE SMOOTH",
"1074 -948 LINE",
"1048 -948 LINE SMOOTH",
"933 -948 OFFCURVE",
"841 -815 OFFCURVE",
"841 -683 CURVE SMOOTH",
"841 -543 OFFCURVE",
"910 -418 OFFCURVE",
"1191 -210 CURVE SMOOTH",
"1332 -107 OFFCURVE",
"1446 -9 OFFCURVE",
"1535 84 CURVE SMOOTH",
"1712 268 OFFCURVE",
"1793 475 OFFCURVE",
"1793 714 CURVE SMOOTH",
"1793 971 OFFCURVE",
"1674 1118 OFFCURVE",
"1470 1118 CURVE SMOOTH",
"1348 1118 OFFCURVE",
"1265 1049 OFFCURVE",
"1220 912 CURVE",
"1176 1049 OFFCURVE",
"1093 1118 OFFCURVE",
"971 1118 CURVE SMOOTH",
"748 1118 OFFCURVE",
"660 981 OFFCURVE",
"660 616 CURVE SMOOTH",
"660 170 LINE",
"634 170 LINE SMOOTH",
"542 170 OFFCURVE",
"488 256 OFFCURVE",
"488 417 CURVE SMOOTH",
"488 653 LINE SMOOTH",
"488 838 OFFCURVE",
"471 961 OFFCURVE",
"438 1024 CURVE SMOOTH",
"404 1087 OFFCURVE",
"353 1118 OFFCURVE",
"286 1118 CURVE SMOOTH",
"219 1118 OFFCURVE",
"168 1085 OFFCURVE",
"133 1019 CURVE SMOOTH",
"98 953 OFFCURVE",
"80 842 OFFCURVE",
"80 686 CURVE",
"116 680 LINE",
"126 680 OFFCURVE",
"141 683 OFFCURVE",
"160 688 CURVE",
"161 773 OFFCURVE",
"166 830 OFFCURVE",
"173 859 CURVE SMOOTH",
"188 917 OFFCURVE",
"222 948 OFFCURVE",
"289 948 CURVE SMOOTH",
"333 948 OFFCURVE",
"364 928 OFFCURVE",
"382 887 CURVE SMOOTH",
"399 846 OFFCURVE",
"408 770 OFFCURVE",
"408 660 CURVE SMOOTH",
"408 465 LINE SMOOTH",
"408 330 OFFCURVE",
"417 234 OFFCURVE",
"435 175 CURVE SMOOTH",
"470 57 OFFCURVE",
"556 0 OFFCURVE",
"693 0 CURVE SMOOTH",
"740 0 LINE",
"740 616 LINE SMOOTH",
"740 845 OFFCURVE",
"803 948 OFFCURVE",
"971 948 CURVE SMOOTH",
"1086 948 OFFCURVE",
"1186 845 OFFCURVE",
"1186 733 CURVE",
"1255 733 LINE",
"1267 865 OFFCURVE",
"1357 948 OFFCURVE",
"1470 948 CURVE SMOOTH",
"1609 948 OFFCURVE",
"1693 862 OFFCURVE",
"1693 721 CURVE SMOOTH",
"1693 496 OFFCURVE",
"1588 319 OFFCURVE",
"1217 23 CURVE SMOOTH",
"845 -274 OFFCURVE",
"741 -451 OFFCURVE",
"741 -676 CURVE SMOOTH",
"741 -956 OFFCURVE",
"879 -1118 OFFCURVE",
"1107 -1118 CURVE SMOOTH"
);
}
);
width = 2669;
}
);
note = uni1B69;
unicode = 1B69;
},
{
glyphname = uni1B6A;
lastChange = "2016-11-10 14:12:45 +0000";
layers = (
{
layerId = "BB284FF0-04DD-4FE7-B9B3-843DE156013A";
paths = (
{
closed = 1;
nodes = (
"510 -1079 LINE",
"503 -1055 LINE",
"485 -1012 OFFCURVE",
"476 -947 OFFCURVE",
"476 -862 CURVE SMOOTH",
"476 -762 OFFCURVE",
"521 -629 OFFCURVE",
"610 -463 CURVE SMOOTH",
"699 -297 OFFCURVE",
"743 -133 OFFCURVE",
"743 28 CURVE SMOOTH",
"743 210 OFFCURVE",
"657 337 OFFCURVE",
"485 409 CURVE",
"618 476 OFFCURVE",
"698 591 OFFCURVE",
"698 714 CURVE SMOOTH",
"698 963 OFFCURVE",
"574 1118 OFFCURVE",
"383 1118 CURVE SMOOTH",
"188 1118 OFFCURVE",
"80 949 OFFCURVE",
"80 686 CURVE",
"116 680 LINE",
"126 680 OFFCURVE",
"141 683 OFFCURVE",
"160 688 CURVE",
"163 855 OFFCURVE",
"247 948 OFFCURVE",
"386 948 CURVE SMOOTH",
"514 948 OFFCURVE",
"598 864 OFFCURVE",
"598 721 CURVE SMOOTH",
"598 540 OFFCURVE",
"484 449 OFFCURVE",
"255 449 CURVE SMOOTH",
"202 449 LINE",
"192 369 LINE",
"234 369 LINE SMOOTH",
"486 369 OFFCURVE",
"643 271 OFFCURVE",
"643 95 CURVE SMOOTH",
"643 -44 OFFCURVE",
"599 -187 OFFCURVE",
"510 -335 CURVE SMOOTH",
"421 -484 OFFCURVE",
"376 -640 OFFCURVE",
"376 -803 CURVE SMOOTH",
"376 -887 OFFCURVE",
"418 -1062 OFFCURVE",
"459 -1118 CURVE"
);
}
);
width = 843;
}
);
note = uni1B6A;
unicode = 1B6A;
},
{
glyphname = uni1B6B;
lastChange = "2016-11-10 14:12:45 +0000";
layers = (
{
layerId = "BB284FF0-04DD-4FE7-B9B3-843DE156013A";
paths = (
{
closed = 1;
nodes = (
"-329 1270 OFFCURVE",
"-236 1345 OFFCURVE",
"-200 1450 CURVE",
"-238 1476 LINE",
"-267 1432 OFFCURVE",
"-324 1410 OFFCURVE",
"-411 1410 CURVE SMOOTH",
"-486 1410 OFFCURVE",
"-539 1458 OFFCURVE",
"-539 1511 CURVE SMOOTH",
"-539 1546 OFFCURVE",
"-517 1574 OFFCURVE",
"-461 1574 CURVE SMOOTH",
"-422 1574 OFFCURVE",
"-364 1556 OFFCURVE",
"-325 1527 CURVE",
"-283 1564 LINE",
"-330 1669 OFFCURVE",
"-402 1714 OFFCURVE",
"-471 1714 CURVE SMOOTH",
"-562 1714 OFFCURVE",
"-619 1627 OFFCURVE",
"-619 1504 CURVE SMOOTH",
"-619 1363 OFFCURVE",
"-542 1270 OFFCURVE",
"-421 1270 CURVE SMOOTH"
);
}
);
width = 0;
}
);
note = uni1B6B;
unicode = 1B6B;
},
{
glyphname = uni1B6C;
lastChange = "2016-11-10 14:12:45 +0000";
layers = (
{
layerId = "BB284FF0-04DD-4FE7-B9B3-843DE156013A";
paths = (
{
closed = 1;
nodes = (
"-329 -730 OFFCURVE",
"-236 -655 OFFCURVE",
"-200 -550 CURVE",
"-238 -524 LINE",
"-267 -568 OFFCURVE",
"-324 -590 OFFCURVE",
"-411 -590 CURVE SMOOTH",
"-486 -590 OFFCURVE",
"-539 -542 OFFCURVE",
"-539 -489 CURVE SMOOTH",
"-539 -454 OFFCURVE",
"-517 -426 OFFCURVE",
"-461 -426 CURVE SMOOTH",
"-422 -426 OFFCURVE",
"-364 -444 OFFCURVE",
"-325 -473 CURVE",
"-283 -436 LINE",
"-330 -331 OFFCURVE",
"-402 -286 OFFCURVE",
"-471 -286 CURVE SMOOTH",
"-562 -286 OFFCURVE",
"-619 -373 OFFCURVE",
"-619 -496 CURVE SMOOTH",
"-619 -637 OFFCURVE",
"-542 -730 OFFCURVE",
"-421 -730 CURVE SMOOTH"
);
}
);
width = 0;
}
);
note = uni1B6C;
unicode = 1B6C;
},
{
glyphname = uni1B6D;
lastChange = "2016-11-10 14:12:45 +0000";
layers = (
{
layerId = "BB284FF0-04DD-4FE7-B9B3-843DE156013A";
paths = (
{
closed = 1;
nodes = (
"-603 1369 OFFCURVE",
"-585 1453 OFFCURVE",
"-575 1510 CURVE",
"-428 1523 OFFCURVE",
"-288 1553 OFFCURVE",
"-154 1602 CURVE",
"-180 1667 LINE",
"-298 1634 OFFCURVE",
"-424 1617 OFFCURVE",
"-557 1617 CURVE",
"-546 1681 OFFCURVE",
"-541 1741 OFFCURVE",
"-541 1798 CURVE SMOOTH",
"-541 1921 OFFCURVE",
"-587 2004 OFFCURVE",
"-662 2004 CURVE SMOOTH",
"-675 2004 OFFCURVE",
"-692 1995 OFFCURVE",
"-713 1978 CURVE SMOOTH",
"-735 1961 OFFCURVE",
"-772 1922 OFFCURVE",
"-823 1863 CURVE",
"-788 1818 LINE",
"-716 1880 LINE",
"-661 1877 OFFCURVE",
"-633 1843 OFFCURVE",
"-633 1750 CURVE SMOOTH",
"-633 1723 OFFCURVE",
"-636 1680 OFFCURVE",
"-643 1620 CURVE",
"-744 1629 OFFCURVE",
"-846 1651 OFFCURVE",
"-949 1687 CURVE",
"-1047 1556 LINE",
"-926 1523 OFFCURVE",
"-802 1506 OFFCURVE",
"-675 1506 CURVE SMOOTH",
"-658 1506 LINE",
"-672 1409 OFFCURVE",
"-684 1335 OFFCURVE",
"-695 1283 CURVE",
"-629 1258 LINE"
);
}
);
width = 0;
}
);
note = uni1B6D;
unicode = 1B6D;
},
{
glyphname = uni1B6E;
lastChange = "2016-11-10 14:12:45 +0000";
layers = (
{
layerId = "BB284FF0-04DD-4FE7-B9B3-843DE156013A";
paths = (
{
closed = 1;
nodes = (
"-524 1506 OFFCURVE",
"-315 1543 OFFCURVE",
"-154 1602 CURVE",
"-180 1667 LINE",
"-301 1634 OFFCURVE",
"-427 1617 OFFCURVE",
"-558 1617 CURVE SMOOTH",
"-686 1617 OFFCURVE",
"-816 1640 OFFCURVE",
"-949 1687 CURVE",
"-1047 1556 LINE",
"-926 1523 OFFCURVE",
"-802 1506 OFFCURVE",
"-675 1506 CURVE SMOOTH"
);
}
);
width = 0;
}
);
note = uni1B6E;
unicode = 1B6E;
},
{
glyphname = uni1B6F;
lastChange = "2016-11-10 14:12:45 +0000";
layers = (
{
layerId = "BB284FF0-04DD-4FE7-B9B3-843DE156013A";
paths = (
{
closed = 1;
nodes = (
"-931 1371 OFFCURVE",
"-780 1520 OFFCURVE",
"-661 1706 CURVE",
"-530 1509 OFFCURVE",
"-381 1361 OFFCURVE",
"-214 1260 CURVE",
"-180 1322 LINE",
"-327 1421 OFFCURVE",
"-521 1674 OFFCURVE",
"-588 1831 CURVE",
"-564 1879 OFFCURVE",
"-546 1917 OFFCURVE",
"-535 1944 CURVE",
"-700 1921 LINE",
"-795 1664 OFFCURVE",
"-944 1464 OFFCURVE",
"-1148 1322 CURVE",
"-1114 1260 LINE"
);
}
);
width = 0;
}
);
note = uni1B6F;
unicode = 1B6F;
},
{
glyphname = uni1B70;
lastChange = "2016-11-10 14:12:45 +0000";
layers = (
{
layerId = "BB284FF0-04DD-4FE7-B9B3-843DE156013A";
paths = (
{
closed = 1;
nodes = (
"-576 1504 LINE",
"-489 1406 OFFCURVE",
"-392 1325 OFFCURVE",
"-284 1260 CURVE",
"-250 1322 LINE",
"-322 1370 OFFCURVE",
"-444 1486 OFFCURVE",
"-513 1586 CURVE",
"-390 1601 OFFCURVE",
"-271 1629 OFFCURVE",
"-154 1672 CURVE",
"-180 1737 LINE",
"-291 1705 OFFCURVE",
"-413 1688 OFFCURVE",
"-547 1687 CURVE",
"-543 1724 OFFCURVE",
"-541 1761 OFFCURVE",
"-541 1798 CURVE SMOOTH",
"-541 1921 OFFCURVE",
"-587 2004 OFFCURVE",
"-662 2004 CURVE SMOOTH",
"-675 2004 OFFCURVE",
"-692 1995 OFFCURVE",
"-713 1978 CURVE SMOOTH",
"-735 1961 OFFCURVE",
"-772 1922 OFFCURVE",
"-823 1863 CURVE",
"-788 1818 LINE",
"-716 1880 LINE",
"-661 1877 OFFCURVE",
"-633 1843 OFFCURVE",
"-633 1750 CURVE",
"-636 1690 LINE",
"-741 1698 OFFCURVE",
"-845 1720 OFFCURVE",
"-949 1757 CURVE",
"-1047 1626 LINE",
"-946 1597 OFFCURVE",
"-840 1581 OFFCURVE",
"-729 1577 CURVE",
"-808 1478 OFFCURVE",
"-898 1393 OFFCURVE",
"-998 1322 CURVE",
"-964 1260 LINE",
"-864 1321 OFFCURVE",
"-739 1423 OFFCURVE",
"-658 1507 CURVE",
"-673 1408 OFFCURVE",
"-685 1334 OFFCURVE",
"-695 1283 CURVE",
"-629 1258 LINE"
);
}
);
width = 0;
}
);
note = uni1B70;
unicode = 1B70;
},
{
glyphname = uni1B71;
lastChange = "2016-11-10 14:12:45 +0000";
layers = (
{
layerId = "BB284FF0-04DD-4FE7-B9B3-843DE156013A";
paths = (
{
closed = 1;
nodes = (
"-933 1371 OFFCURVE",
"-781 1519 OFFCURVE",
"-660 1706 CURVE",
"-529 1509 OFFCURVE",
"-381 1360 OFFCURVE",
"-214 1260 CURVE",
"-180 1322 LINE",
"-283 1391 OFFCURVE",
"-425 1550 OFFCURVE",
"-526 1715 CURVE",
"-395 1730 OFFCURVE",
"-271 1759 OFFCURVE",
"-154 1802 CURVE",
"-180 1867 LINE",
"-301 1834 OFFCURVE",
"-427 1817 OFFCURVE",
"-558 1817 CURVE SMOOTH",
"-686 1817 OFFCURVE",
"-816 1840 OFFCURVE",
"-949 1887 CURVE",
"-1047 1756 LINE",
"-965 1733 OFFCURVE",
"-881 1718 OFFCURVE",
"-796 1711 CURVE",
"-885 1553 OFFCURVE",
"-1003 1423 OFFCURVE",
"-1148 1322 CURVE",
"-1114 1260 LINE"
);
}
);
width = 0;
}
);
note = uni1B71;
unicode = 1B71;
},
{
glyphname = uni1B72;
lastChange = "2016-11-10 14:12:45 +0000";
layers = (
{
layerId = "BB284FF0-04DD-4FE7-B9B3-843DE156013A";
paths = (
{
closed = 1;
nodes = (
"-539 1426 OFFCURVE",
"-386 1585 OFFCURVE",
"-180 1714 CURVE",
"-190 1877 LINE",
"-396 1734 OFFCURVE",
"-554 1559 OFFCURVE",
"-664 1350 CURVE",
"-788 1469 OFFCURVE",
"-868 1620 OFFCURVE",
"-936 1783 CURVE",
"-1053 1681 LINE",
"-946 1501 OFFCURVE",
"-807 1352 OFFCURVE",
"-638 1235 CURVE"
);
}
);
width = 0;
}
);
note = uni1B72;
unicode = 1B72;
},
{
glyphname = uni1B73;
lastChange = "2016-11-10 14:12:45 +0000";
layers = (
{
layerId = "BB284FF0-04DD-4FE7-B9B3-843DE156013A";
paths = (
{
closed = 1;
nodes = (
"-331 1270 OFFCURVE",
"-170 1434 OFFCURVE",
"-170 1627 CURVE SMOOTH",
"-170 1818 OFFCURVE",
"-331 1985 OFFCURVE",
"-524 1985 CURVE SMOOTH",
"-719 1985 OFFCURVE",
"-881 1818 OFFCURVE",
"-881 1627 CURVE SMOOTH",
"-881 1434 OFFCURVE",
"-717 1270 OFFCURVE",
"-524 1270 CURVE SMOOTH"
);
},
{
closed = 1;
nodes = (
"-677 1353 OFFCURVE",
"-800 1476 OFFCURVE",
"-800 1627 CURVE SMOOTH",
"-800 1780 OFFCURVE",
"-677 1903 OFFCURVE",
"-524 1903 CURVE SMOOTH",
"-371 1903 OFFCURVE",
"-251 1778 OFFCURVE",
"-251 1627 CURVE SMOOTH",
"-251 1478 OFFCURVE",
"-369 1353 OFFCURVE",
"-524 1353 CURVE SMOOTH"
);
},
{
closed = 1;
nodes = (
"-475 1541 OFFCURVE",
"-435 1582 OFFCURVE",
"-435 1631 CURVE SMOOTH",
"-435 1680 OFFCURVE",
"-475 1721 OFFCURVE",
"-524 1721 CURVE SMOOTH",
"-573 1721 OFFCURVE",
"-614 1680 OFFCURVE",
"-614 1631 CURVE SMOOTH",
"-614 1582 OFFCURVE",
"-573 1541 OFFCURVE",
"-524 1541 CURVE SMOOTH"
);
}
);
width = 0;
}
);
note = uni1B73;
unicode = 1B73;
},
{
glyphname = uni1B74;
lastChange = "2016-11-10 14:12:45 +0000";
layers = (
{
layerId = "BB284FF0-04DD-4FE7-B9B3-843DE156013A";
paths = (
{
closed = 1;
nodes = (
"169 -12 OFFCURVE",
"190 3 OFFCURVE",
"205 34 CURVE SMOOTH",
"616 886 LINE",
"1026 34 LINE SMOOTH",
"1040 3 OFFCURVE",
"1060 -12 OFFCURVE",
"1087 -12 CURVE SMOOTH",
"1130 -12 OFFCURVE",
"1171 22 OFFCURVE",
"1171 59 CURVE SMOOTH",
"1171 72 OFFCURVE",
"1168 85 OFFCURVE",
"1161 99 CURVE SMOOTH",
"669 1118 LINE",
"562 1118 LINE",
"70 99 LINE SMOOTH",
"63 85 OFFCURVE",
"60 72 OFFCURVE",
"60 59 CURVE SMOOTH",
"60 20 OFFCURVE",
"103 -12 OFFCURVE",
"144 -12 CURVE SMOOTH"
);
}
);
width = 1231;
}
);
note = uni1B74;
unicode = 1B74;
},
{
glyphname = uni1B75;
lastChange = "2016-11-10 14:12:45 +0000";
layers = (
{
layerId = "BB284FF0-04DD-4FE7-B9B3-843DE156013A";
paths = (
{
closed = 1;
nodes = (
"862 -19 OFFCURVE",
"1040 203 OFFCURVE",
"1040 543 CURVE SMOOTH",
"1040 890 OFFCURVE",
"855 1118 OFFCURVE",
"590 1118 CURVE SMOOTH",
"319 1118 OFFCURVE",
"130 876 OFFCURVE",
"130 543 CURVE SMOOTH",
"130 206 OFFCURVE",
"315 -19 OFFCURVE",
"590 -19 CURVE SMOOTH"
);
},
{
closed = 1;
nodes = (
"367 151 OFFCURVE",
"230 307 OFFCURVE",
"230 547 CURVE SMOOTH",
"230 790 OFFCURVE",
"367 948 OFFCURVE",
"587 948 CURVE SMOOTH",
"807 948 OFFCURVE",
"940 792 OFFCURVE",
"940 547 CURVE SMOOTH",
"940 300 OFFCURVE",
"802 151 OFFCURVE",
"587 151 CURVE SMOOTH"
);
}
);
width = 1170;
}
);
note = uni1B75;
unicode = 1B75;
},
{
glyphname = uni1B76;
lastChange = "2016-11-10 14:12:45 +0000";
layers = (
{
layerId = "BB284FF0-04DD-4FE7-B9B3-843DE156013A";
paths = (
{
closed = 1;
nodes = (
"169 -12 OFFCURVE",
"190 3 OFFCURVE",
"205 34 CURVE SMOOTH",
"467 578 LINE",
"541 497 LINE SMOOTH",
"558 478 OFFCURVE",
"576 469 OFFCURVE",
"597 469 CURVE SMOOTH",
"636 469 OFFCURVE",
"675 504 OFFCURVE",
"675 548 CURVE SMOOTH",
"675 563 OFFCURVE",
"667 580 OFFCURVE",
"650 599 CURVE SMOOTH",
"537 723 LINE",
"616 886 LINE",
"1026 34 LINE SMOOTH",
"1040 3 OFFCURVE",
"1060 -12 OFFCURVE",
"1087 -12 CURVE SMOOTH",
"1130 -12 OFFCURVE",
"1171 22 OFFCURVE",
"1171 59 CURVE SMOOTH",
"1171 72 OFFCURVE",
"1168 85 OFFCURVE",
"1161 99 CURVE SMOOTH",
"669 1118 LINE",
"562 1118 LINE",
"429 842 LINE",
"153 1147 LINE SMOOTH",
"136 1166 OFFCURVE",
"118 1175 OFFCURVE",
"99 1175 CURVE SMOOTH",
"58 1175 OFFCURVE",
"20 1137 OFFCURVE",
"20 1088 CURVE SMOOTH",
"20 1076 OFFCURVE",
"28 1062 OFFCURVE",
"43 1045 CURVE SMOOTH",
"359 697 LINE",
"70 99 LINE SMOOTH",
"63 85 OFFCURVE",
"60 72 OFFCURVE",
"60 59 CURVE SMOOTH",
"60 20 OFFCURVE",
"103 -12 OFFCURVE",
"144 -12 CURVE SMOOTH"
);
}
);
width = 1231;
}
);
note = uni1B76;
unicode = 1B76;
},
{
glyphname = uni1B77;
lastChange = "2016-11-10 14:12:45 +0000";
layers = (
{
layerId = "BB284FF0-04DD-4FE7-B9B3-843DE156013A";
paths = (
{
closed = 1;
nodes = (
"862 -19 OFFCURVE",
"1040 203 OFFCURVE",
"1040 543 CURVE SMOOTH",
"1040 890 OFFCURVE",
"855 1118 OFFCURVE",
"590 1118 CURVE SMOOTH",
"485 1118 OFFCURVE",
"395 1085 OFFCURVE",
"318 1020 CURVE",
"203 1147 LINE SMOOTH",
"186 1166 OFFCURVE",
"168 1175 OFFCURVE",
"149 1175 CURVE SMOOTH",
"108 1175 OFFCURVE",
"70 1137 OFFCURVE",
"70 1088 CURVE SMOOTH",
"70 1076 OFFCURVE",
"78 1062 OFFCURVE",
"93 1045 CURVE SMOOTH",
"221 903 LINE",
"160 802 OFFCURVE",
"130 682 OFFCURVE",
"130 543 CURVE SMOOTH",
"130 206 OFFCURVE",
"315 -19 OFFCURVE",
"590 -19 CURVE SMOOTH"
);
},
{
closed = 1;
nodes = (
"367 151 OFFCURVE",
"230 307 OFFCURVE",
"230 547 CURVE SMOOTH",
"230 654 OFFCURVE",
"255 743 OFFCURVE",
"304 812 CURVE",
"591 497 LINE SMOOTH",
"608 478 OFFCURVE",
"626 469 OFFCURVE",
"647 469 CURVE SMOOTH",
"686 469 OFFCURVE",
"725 504 OFFCURVE",
"725 548 CURVE SMOOTH",
"725 563 OFFCURVE",
"717 580 OFFCURVE",
"700 599 CURVE SMOOTH",
"418 910 LINE",
"469 935 OFFCURVE",
"525 948 OFFCURVE",
"587 948 CURVE SMOOTH",
"807 948 OFFCURVE",
"940 792 OFFCURVE",
"940 547 CURVE SMOOTH",
"940 300 OFFCURVE",
"802 151 OFFCURVE",
"587 151 CURVE SMOOTH"
);
}
);
width = 1170;
}
);
note = uni1B77;
unicode = 1B77;
},
{
glyphname = uni1B78;
lastChange = "2016-11-10 14:12:45 +0000";
layers = (
{
layerId = "BB284FF0-04DD-4FE7-B9B3-843DE156013A";
paths = (
{
closed = 1;
nodes = (
"1054 485 LINE SMOOTH",
"1102 485 OFFCURVE",
"1129 516 OFFCURVE",
"1129 568 CURVE SMOOTH",
"1129 626 OFFCURVE",
"1104 655 OFFCURVE",
"1054 655 CURVE SMOOTH",
"155 655 LINE SMOOTH",
"105 655 OFFCURVE",
"80 626 OFFCURVE",
"80 568 CURVE SMOOTH",
"80 517 OFFCURVE",
"107 485 OFFCURVE",
"155 485 CURVE SMOOTH"
);
}
);
width = 1209;
}
);
note = uni1B78;
unicode = 1B78;
},
{
glyphname = uni1B79;
lastChange = "2016-11-10 13:44:54 +0000";
layers = (
{
layerId = "BB284FF0-04DD-4FE7-B9B3-843DE156013A";
paths = (
{
closed = 1;
nodes = (
"1072 0 LINE SMOOTH",
"1120 0 OFFCURVE",
"1147 31 OFFCURVE",
"1147 83 CURVE SMOOTH",
"1147 141 OFFCURVE",
"1122 170 OFFCURVE",
"1072 170 CURVE SMOOTH",
"314 170 LINE",
"1119 985 LINE SMOOTH",
"1138 1004 OFFCURVE",
"1147 1022 OFFCURVE",
"1147 1041 CURVE SMOOTH",
"1147 1080 OFFCURVE",
"1104 1118 OFFCURVE",
"1067 1118 CURVE SMOOTH",
"1048 1118 OFFCURVE",
"1030 1110 OFFCURVE",
"1015 1093 CURVE",
"100 167 LINE",
"173 0 LINE"
);
}
);
width = 1277;
}
);
note = uni1B79;
unicode = 1B79;
},
{
glyphname = uni1B7A;
lastChange = "2016-11-10 14:12:45 +0000";
layers = (
{
layerId = "BB284FF0-04DD-4FE7-B9B3-843DE156013A";
paths = (
{
closed = 1;
nodes = (
"963 242 OFFCURVE",
"1002 277 OFFCURVE",
"1002 321 CURVE SMOOTH",
"1002 337 OFFCURVE",
"994 354 OFFCURVE",
"977 372 CURVE SMOOTH",
"874 485 LINE",
"1054 485 LINE SMOOTH",
"1102 485 OFFCURVE",
"1129 516 OFFCURVE",
"1129 568 CURVE SMOOTH",
"1129 626 OFFCURVE",
"1104 655 OFFCURVE",
"1054 655 CURVE SMOOTH",
"719 655 LINE",
"429 973 LINE SMOOTH",
"412 992 OFFCURVE",
"394 1001 OFFCURVE",
"375 1001 CURVE SMOOTH",
"334 1001 OFFCURVE",
"296 963 OFFCURVE",
"296 914 CURVE SMOOTH",
"296 902 OFFCURVE",
"304 888 OFFCURVE",
"319 871 CURVE SMOOTH",
"516 655 LINE",
"155 655 LINE SMOOTH",
"105 655 OFFCURVE",
"80 626 OFFCURVE",
"80 568 CURVE SMOOTH",
"80 517 OFFCURVE",
"107 485 OFFCURVE",
"155 485 CURVE SMOOTH",
"671 485 LINE",
"868 270 LINE SMOOTH",
"885 251 OFFCURVE",
"903 242 OFFCURVE",
"924 242 CURVE SMOOTH"
);
}
);
width = 1209;
}
);
note = uni1B7A;
unicode = 1B7A;
},
{
glyphname = uni1B7B;
lastChange = "2016-11-10 14:12:45 +0000";
layers = (
{
layerId = "BB284FF0-04DD-4FE7-B9B3-843DE156013A";
paths = (
{
closed = 1;
nodes = (
"1072 0 LINE SMOOTH",
"1120 0 OFFCURVE",
"1147 31 OFFCURVE",
"1147 83 CURVE SMOOTH",
"1147 141 OFFCURVE",
"1122 170 OFFCURVE",
"1072 170 CURVE SMOOTH",
"314 170 LINE",
"677 537 LINE",
"762 444 LINE",
"778 425 OFFCURVE",
"797 416 OFFCURVE",
"818 416 CURVE SMOOTH",
"857 416 OFFCURVE",
"896 451 OFFCURVE",
"896 495 CURVE",
"897 501 LINE",
"897 512 OFFCURVE",
"887 529 OFFCURVE",
"868 550 CURVE SMOOTH",
"782 643 LINE",
"1119 985 LINE SMOOTH",
"1138 1004 OFFCURVE",
"1147 1022 OFFCURVE",
"1147 1041 CURVE SMOOTH",
"1147 1080 OFFCURVE",
"1104 1118 OFFCURVE",
"1067 1118 CURVE SMOOTH",
"1048 1118 OFFCURVE",
"1030 1110 OFFCURVE",
"1015 1093 CURVE",
"680 754 LINE",
"323 1147 LINE SMOOTH",
"306 1166 OFFCURVE",
"288 1175 OFFCURVE",
"269 1175 CURVE SMOOTH",
"228 1175 OFFCURVE",
"190 1137 OFFCURVE",
"190 1088 CURVE SMOOTH",
"190 1076 OFFCURVE",
"198 1062 OFFCURVE",
"213 1045 CURVE SMOOTH",
"575 648 LINE",
"100 167 LINE",
"173 0 LINE"
);
}
);
width = 1297;
}
);
note = uni1B7B;
unicode = 1B7B;
},
{
glyphname = uni1B7C;
lastChange = "2016-11-10 14:12:45 +0000";
layers = (
{
layerId = "BB284FF0-04DD-4FE7-B9B3-843DE156013A";
paths = (
{
closed = 1;
nodes = (
"531 344 OFFCURVE",
"624 439 OFFCURVE",
"624 556 CURVE SMOOTH",
"624 675 OFFCURVE",
"529 768 OFFCURVE",
"412 768 CURVE SMOOTH",
"293 768 OFFCURVE",
"200 673 OFFCURVE",
"200 556 CURVE SMOOTH",
"200 437 OFFCURVE",
"295 344 OFFCURVE",
"412 344 CURVE SMOOTH"
);
}
);
width = 824;
}
);
note = uni1B7C;
unicode = 1B7C;
},
{
glyphname = g129;
lastChange = "2016-11-10 14:12:48 +0000";
layers = (
{
layerId = "BB284FF0-04DD-4FE7-B9B3-843DE156013A";
paths = (
{
closed = 1;
nodes = (
"-1205 -1118 OFFCURVE",
"-1133 -1009 OFFCURVE",
"-1133 -746 CURVE SMOOTH",
"-1133 -729 LINE",
"-1076 -728 LINE",
"-1020 -728 LINE",
"-1012 -964 OFFCURVE",
"-867 -1118 OFFCURVE",
"-654 -1118 CURVE SMOOTH",
"-519 -1118 OFFCURVE",
"-419 -1038 OFFCURVE",
"-419 -926 CURVE SMOOTH",
"-419 -709 OFFCURVE",
"-610 -577 OFFCURVE",
"-939 -560 CURVE",
"-922 -396 OFFCURVE",
"-795 -308 OFFCURVE",
"-564 -308 CURVE SMOOTH",
"-320 -308 OFFCURVE",
"-210 -401 OFFCURVE",
"-210 -624 CURVE SMOOTH",
"-210 -1098 LINE",
"-130 -1098 LINE",
"-130 -621 LINE SMOOTH",
"-130 -297 OFFCURVE",
"-268 -138 OFFCURVE",
"-567 -138 CURVE SMOOTH",
"-838 -138 OFFCURVE",
"-1012 -299 OFFCURVE",
"-1020 -558 CURVE",
"-1073 -558 OFFCURVE",
"-1111 -559 OFFCURVE",
"-1133 -561 CURVE",
"-1133 -266 OFFCURVE",
"-1205 -138 OFFCURVE",
"-1350 -138 CURVE SMOOTH",
"-1490 -138 OFFCURVE",
"-1570 -285 OFFCURVE",
"-1570 -490 CURVE",
"-1534 -496 LINE",
"-1524 -496 OFFCURVE",
"-1509 -493 OFFCURVE",
"-1490 -488 CURVE",
"-1487 -365 OFFCURVE",
"-1453 -308 OFFCURVE",
"-1361 -308 CURVE SMOOTH",
"-1253 -308 OFFCURVE",
"-1213 -389 OFFCURVE",
"-1213 -572 CURVE",
"-1425 -611 OFFCURVE",
"-1531 -723 OFFCURVE",
"-1531 -909 CURVE SMOOTH",
"-1531 -1026 OFFCURVE",
"-1459 -1118 OFFCURVE",
"-1356 -1118 CURVE SMOOTH"
);
},
{
closed = 1;
nodes = (
"-1411 -1018 OFFCURVE",
"-1441 -978 OFFCURVE",
"-1441 -898 CURVE SMOOTH",
"-1441 -798 OFFCURVE",
"-1374 -746 OFFCURVE",
"-1213 -733 CURVE",
"-1213 -753 LINE SMOOTH",
"-1213 -933 OFFCURVE",
"-1255 -1018 OFFCURVE",
"-1352 -1018 CURVE SMOOTH"
);
},
{
closed = 1;
nodes = (
"-813 -1018 OFFCURVE",
"-932 -914 OFFCURVE",
"-940 -731 CURVE",
"-688 -748 OFFCURVE",
"-519 -837 OFFCURVE",
"-519 -954 CURVE SMOOTH",
"-519 -997 OFFCURVE",
"-559 -1018 OFFCURVE",
"-640 -1018 CURVE SMOOTH"
);
}
);
width = 0;
}
);
note = g129;
},
{
glyphname = g130;
lastChange = "2016-11-10 14:12:48 +0000";
layers = (
{
layerId = "BB284FF0-04DD-4FE7-B9B3-843DE156013A";
paths = (
{
closed = 1;
nodes = (
"119 -1234 LINE",
"79 -1034 OFFCURVE",
"-69 -940 OFFCURVE",
"-268 -939 CURVE SMOOTH",
"-468 -938 OFFCURVE",
"-556 -886 OFFCURVE",
"-560 -674 CURVE",
"-560 -621 LINE SMOOTH",
"-560 -297 OFFCURVE",
"-698 -138 OFFCURVE",
"-997 -138 CURVE SMOOTH",
"-1268 -138 OFFCURVE",
"-1442 -299 OFFCURVE",
"-1450 -558 CURVE",
"-1503 -558 OFFCURVE",
"-1541 -559 OFFCURVE",
"-1563 -561 CURVE",
"-1563 -266 OFFCURVE",
"-1635 -138 OFFCURVE",
"-1780 -138 CURVE SMOOTH",
"-1920 -138 OFFCURVE",
"-2000 -285 OFFCURVE",
"-2000 -490 CURVE",
"-1964 -496 LINE",
"-1954 -496 OFFCURVE",
"-1939 -493 OFFCURVE",
"-1920 -488 CURVE",
"-1917 -365 OFFCURVE",
"-1883 -308 OFFCURVE",
"-1791 -308 CURVE SMOOTH",
"-1683 -308 OFFCURVE",
"-1643 -389 OFFCURVE",
"-1643 -572 CURVE",
"-1855 -611 OFFCURVE",
"-1961 -723 OFFCURVE",
"-1961 -909 CURVE SMOOTH",
"-1961 -1026 OFFCURVE",
"-1889 -1118 OFFCURVE",
"-1786 -1118 CURVE SMOOTH",
"-1635 -1118 OFFCURVE",
"-1563 -1009 OFFCURVE",
"-1563 -746 CURVE SMOOTH",
"-1563 -729 LINE",
"-1506 -728 LINE",
"-1450 -728 LINE",
"-1442 -964 OFFCURVE",
"-1297 -1118 OFFCURVE",
"-1084 -1118 CURVE SMOOTH",
"-949 -1118 OFFCURVE",
"-849 -1038 OFFCURVE",
"-849 -926 CURVE SMOOTH",
"-849 -709 OFFCURVE",
"-1040 -577 OFFCURVE",
"-1369 -560 CURVE",
"-1352 -396 OFFCURVE",
"-1225 -308 OFFCURVE",
"-994 -308 CURVE SMOOTH",
"-750 -308 OFFCURVE",
"-640 -393 OFFCURVE",
"-640 -648 CURVE SMOOTH",
"-640 -1005 OFFCURVE",
"-532 -1108 OFFCURVE",
"-296 -1108 CURVE SMOOTH",
"-69 -1108 OFFCURVE",
"17 -1156 OFFCURVE",
"50 -1255 CURVE"
);
},
{
closed = 1;
nodes = (
"-1841 -1018 OFFCURVE",
"-1871 -978 OFFCURVE",
"-1871 -898 CURVE SMOOTH",
"-1871 -798 OFFCURVE",
"-1804 -746 OFFCURVE",
"-1643 -733 CURVE",
"-1643 -753 LINE SMOOTH",
"-1643 -933 OFFCURVE",
"-1685 -1018 OFFCURVE",
"-1782 -1018 CURVE SMOOTH"
);
},
{
closed = 1;
nodes = (
"-1243 -1018 OFFCURVE",
"-1362 -914 OFFCURVE",
"-1370 -731 CURVE",
"-1118 -748 OFFCURVE",
"-949 -837 OFFCURVE",
"-949 -954 CURVE SMOOTH",
"-949 -997 OFFCURVE",
"-989 -1018 OFFCURVE",
"-1070 -1018 CURVE SMOOTH"
);
}
);
width = 0;
}
);
note = g130;
},
{
glyphname = g131;
lastChange = "2016-11-10 14:12:48 +0000";
layers = (
{
layerId = "BB284FF0-04DD-4FE7-B9B3-843DE156013A";
paths = (
{
closed = 1;
nodes = (
"-950 -620 LINE SMOOTH",
"-950 -411 OFFCURVE",
"-839 -308 OFFCURVE",
"-580 -308 CURVE SMOOTH",
"-325 -308 OFFCURVE",
"-210 -400 OFFCURVE",
"-210 -624 CURVE SMOOTH",
"-210 -1098 LINE",
"-130 -1098 LINE",
"-130 -621 LINE SMOOTH",
"-130 -290 OFFCURVE",
"-269 -138 OFFCURVE",
"-581 -138 CURVE SMOOTH",
"-868 -138 OFFCURVE",
"-1030 -311 OFFCURVE",
"-1030 -620 CURVE SMOOTH",
"-1030 -928 LINE",
"-1066 -928 OFFCURVE",
"-1095 -908 OFFCURVE",
"-1118 -868 CURVE SMOOTH",
"-1141 -829 OFFCURVE",
"-1152 -766 OFFCURVE",
"-1152 -681 CURVE SMOOTH",
"-1152 -583 LINE SMOOTH",
"-1152 -450 OFFCURVE",
"-1159 -356 OFFCURVE",
"-1173 -302 CURVE SMOOTH",
"-1202 -194 OFFCURVE",
"-1257 -138 OFFCURVE",
"-1354 -138 CURVE SMOOTH",
"-1481 -138 OFFCURVE",
"-1559 -277 OFFCURVE",
"-1559 -489 CURVE",
"-1523 -495 LINE",
"-1513 -495 OFFCURVE",
"-1498 -492 OFFCURVE",
"-1479 -487 CURVE",
"-1476 -358 OFFCURVE",
"-1438 -308 OFFCURVE",
"-1351 -308 CURVE SMOOTH",
"-1304 -308 OFFCURVE",
"-1273 -326 OFFCURVE",
"-1256 -363 CURVE SMOOTH",
"-1240 -400 OFFCURVE",
"-1232 -471 OFFCURVE",
"-1232 -576 CURVE SMOOTH",
"-1232 -633 LINE SMOOTH",
"-1232 -770 OFFCURVE",
"-1223 -868 OFFCURVE",
"-1205 -926 CURVE SMOOTH",
"-1169 -1042 OFFCURVE",
"-1086 -1098 OFFCURVE",
"-950 -1098 CURVE"
);
}
);
width = 0;
}
);
note = g131;
},
